<?xml version="1.0" encoding="UTF-8" standalone="no"?>
<!-- Created with Inkscape (http://www.inkscape.org/) -->

<svg
   width="297.17184mm"
   height="252.17305mm"
   viewBox="0 0 297.17184 252.17305"
   version="1.1"
   id="svg5"
   xmlns="http://www.w3.org/2000/svg"
   xmlns:svg="http://www.w3.org/2000/svg">
  <defs
     id="defs2" />
  <g
     id="layer1"
     transform="translate(31.992105,-14.846785)">
    <g
       id="g33793"
       style="stroke:none;stroke-width:1;stroke-linecap:round;stroke-linejoin:round;stroke-miterlimit:4;stroke-dasharray:none;stroke-opacity:1">
      <path
         id="rect32484"
         style="fill:#450eff;fill-opacity:0.7;fill-rule:evenodd"
         d="M -16.394631,76.622223 35.714592,57.656016 a 2.6458333,2.6458333 25 0 1 3.391198,1.581342 l 31.949289,87.779952 a 2.6458332,2.6458332 115 0 1 -1.581342,3.3912 l -52.109223,18.9662 a 2.6458334,2.6458334 25.000001 0 1 -3.391198,-1.58134 L -17.975973,80.013421 a 2.6458333,2.6458333 115 0 1 1.581342,-3.391198 z" />
      <path
         id="rect33102"
         style="fill:#a61e3b;fill-opacity:0.7;fill-rule:evenodd"
         transform="rotate(70)"
         d="m 86.952832,-158.98444 h 74.589048 a 2.6458333,2.6458333 45 0 1 2.64583,2.64583 v 124.769056 a 2.6458333,2.6458333 135 0 1 -2.64583,2.645833 H 86.952832 a 2.6458333,2.6458333 45 0 1 -2.645833,-2.645833 l 0,-124.769056 a 2.6458333,2.6458333 135 0 1 2.645833,-2.64583 z" />
      <path
         id="rect32484-4"
         style="fill:#21006f;fill-opacity:0.698039;fill-rule:evenodd"
         d="m 155.20651,131.45812 52.10923,-18.9662 a 2.6458334,2.6458334 25.000004 0 1 3.3912,1.58134 l 31.94928,87.77995 a 2.6458334,2.6458334 115 0 1 -1.58134,3.3912 l -52.10922,18.9662 a 2.6458335,2.6458335 24.999999 0 1 -3.3912,-1.58134 l -31.94929,-87.77995 a 2.645833,2.645833 115 0 1 1.58134,-3.3912 z" />
      <path
         id="rect33102-4"
         style="fill:#fe3218;fill-opacity:0.698039;fill-rule:evenodd"
         d="m 142.25028,139.95941 25.51095,70.09078 a 2.6458336,2.6458336 115 0 1 -1.58134,3.3912 L 48.935338,256.11492 A 2.6458331,2.6458331 25 0 1 45.54414,254.53358 L 20.033181,184.44279 a 2.6458333,2.6458333 115 0 1 1.581342,-3.3912 L 138.85908,138.37807 a 2.6458333,2.6458333 25.000003 0 1 3.3912,1.58134 z" />
    </g>
    <g
       aria-label="When it does not
exist #CREATE it"
       id="text4974"
       style="font-size:28.9278px;line-height:1.15;font-family:'Cutive Mono';-inkscape-font-specification:'Cutive Mono';stroke:#ffffff;stroke-width:1.05833">
      <path
         d="m -10.064144,130.39177 -2.387108,-9.23769 q -0.0565,-0.24012 -0.225999,-0.36725 -0.169498,-0.14125 -0.381372,-0.14125 -0.211873,0 -0.395497,0.14125 -0.183624,0.12713 -0.240123,0.36725 l -2.500108,9.19531 -1.949237,-12.51466 h 1.610239 q 0.338998,0 0.522622,-0.18362 0.197748,-0.18363 0.197748,-0.43788 0,-0.24012 -0.183623,-0.40962 -0.183624,-0.18362 -0.508497,-0.18362 h -4.26572 q -0.324873,0 -0.508497,0.18362 -0.183624,0.1695 -0.183624,0.40962 0,0.25425 0.183624,0.43788 0.197749,0.18362 0.522622,0.18362 h 1.186491 l 2.344734,14.83115 q 0.04237,0.33899 0.254248,0.53674 0.211874,0.19775 0.480247,0.19775 0.240123,0 0.437872,-0.15537 0.197749,-0.15538 0.282498,-0.46612 l 2.641357,-9.52019 2.401233,9.40719 q 0.08475,0.33899 0.296623,0.53674 0.211873,0.19775 0.4519967,0.19775 0.2824981,0 0.4802467,-0.15537 0.1977486,-0.15538 0.2542482,-0.46612 l 2.316484,-14.94415 h 0.9887431 q 0.3389977,0 0.5226214,-0.18362 0.1977486,-0.18363 0.1977486,-0.43788 0,-0.24012 -0.1977486,-0.40962 -0.1836237,-0.18362 -0.5084965,-0.18362 H -9.866395 q -0.324873,0 -0.508497,0.18362 -0.183623,0.1695 -0.183623,0.40962 0,0.25425 0.183623,0.43788 0.197749,0.18362 0.5226219,0.18362 h 1.5113645 z"
         style="fill:#ffffff"
         id="path34378" />
      <path
         d="M 7.9874818,132.00201 H 5.9252461 q -0.282498,0 -0.4378719,0.16949 -0.1553739,0.15538 -0.1553739,0.38138 0,0.24012 0.1694988,0.42374 0.1694988,0.18363 0.4802467,0.18363 h 4.8730912 q 0.282498,0 0.437872,-0.1695 0.155374,-0.18362 0.155374,-0.42375 0,-0.226 -0.155374,-0.3955 -0.141249,-0.16949 -0.409622,-0.16949 H 9.3434724 v -6.37033 q 0,-1.89274 -0.9887431,-2.92386 -0.9887432,-1.03112 -2.9803543,-1.03112 -0.9463685,0 -1.8503622,0.32488 -0.8898688,0.32487 -1.5678641,0.88986 -0.6779953,0.55088 -1.03111785,1.243 v -7.09071 q 0,-0.55087 -0.57912098,-0.55087 -0.0564996,0 -0.28249804,0.0282 l -2.66960643,0.26838 q -0.2259985,0.0141 -0.3531226,0.19775 -0.1129992,0.18362 -0.1129992,0.38137 0,0.226 0.1553739,0.38137 0.1553739,0.14125 0.3954973,0.12712 l 2.09048546,-0.12712 v 14.25203 H -1.9564492 q -0.282498,0 -0.4378719,0.16949 -0.1553739,0.15538 -0.1553739,0.38138 0,0.24012 0.1694988,0.42374 0.1694988,0.18363 0.4802467,0.18363 h 4.2798453 q 0.3248727,0 0.5084964,-0.1695 0.1977487,-0.18362 0.1977487,-0.42375 0,-0.226 -0.1836238,-0.3955 -0.1694988,-0.16949 -0.4943715,-0.16949 H 0.92503085 v -5.86184 q 0,-0.74862 0.57912095,-1.52549 0.579121,-0.77687 1.6102389,-1.27124 1.0452427,-0.5085 2.3306088,-0.5085 1.2571163,0 1.8927368,0.70625 0.6497455,0.70624 0.6497455,1.99161 z"
         style="fill:#ffffff"
         id="path34380" />
      <path
         d="m 15.840928,127.41141 q 0,1.85036 0.80512,3.20636 0.805119,1.34186 2.245859,2.06223 1.454865,0.72037 3.347602,0.72037 1.200616,0 2.570732,-0.46612 1.38424,-0.46612 2.118735,-1.25712 0.254248,-0.28249 0.254248,-0.59324 0,-0.25425 -0.155374,-0.43787 -0.155373,-0.18363 -0.409622,-0.18363 -0.282498,0 -0.579121,0.24012 -0.805119,0.76275 -1.836237,1.15825 -1.016993,0.38137 -2.076361,0.38137 -2.175234,0 -3.5171,-1.15824 -1.341866,-1.15824 -1.41249,-3.38998 l 8.884563,-0.0706 q 0.494372,0 0.790995,-0.339 0.296622,-0.35312 0.296622,-0.88987 0,-1.51136 -0.66387,-2.57073 -0.649745,-1.05937 -1.807987,-1.59612 -1.144117,-0.55087 -2.613107,-0.55087 -1.723238,0 -3.149853,0.69212 -1.412491,0.69212 -2.259985,1.99161 -0.833369,1.29949 -0.833369,3.05098 z m 6.271457,-4.57647 q 2.203484,0 2.980354,1.11587 0.77687,1.11587 0.875744,2.64136 l -8.72919,0.0565 q 0.254249,-1.80799 1.52549,-2.81086 1.285366,-1.00287 3.347602,-1.00287 z"
         style="fill:#ffffff"
         id="path34382" />
      <path
         d="m 42.988992,132.00201 h -2.062235 q -0.282498,0 -0.437872,0.16949 -0.155374,0.15538 -0.155374,0.38138 0,0.24012 0.169499,0.42374 0.169498,0.18363 0.480246,0.18363 h 4.873091 q 0.282499,0 0.437872,-0.1695 0.155374,-0.18362 0.155374,-0.42375 0,-0.226 -0.155374,-0.3955 -0.141249,-0.16949 -0.409622,-0.16949 h -1.539614 v -6.37033 q 0,-1.89274 -0.988743,-2.92386 -0.988743,-1.03112 -2.980354,-1.03112 -0.960494,0 -1.864488,0.32488 -0.903993,0.32487 -1.596113,0.88986 -0.692121,0.55088 -1.045243,1.243 l -0.07062,-1.69499 q -0.02825,-0.55087 -0.550871,-0.55087 -0.0565,0 -0.254248,0.0282 l -2.316484,0.46612 q -0.240123,0.0565 -0.353123,0.226 -0.112999,0.15537 -0.112999,0.35312 0,0.226 0.155374,0.38137 0.155374,0.15537 0.395497,0.15537 0.141249,0 0.282498,-0.0424 l 1.52549,-0.31075 v 8.85632 h -1.52549 q -0.282498,0 -0.437872,0.16949 -0.155373,0.15538 -0.155373,0.38138 0,0.24012 0.169498,0.42374 0.169499,0.18363 0.480247,0.18363 h 4.279845 q 0.324873,0 0.508497,-0.1695 0.197748,-0.18362 0.197748,-0.42375 0,-0.226 -0.183623,-0.3955 -0.169499,-0.16949 -0.494372,-0.16949 h -1.483115 v -5.94659 q 0,-0.73449 0.579121,-1.48311 0.579121,-0.74862 1.610239,-1.24299 1.045243,-0.49438 2.330609,-0.49438 1.257116,0 1.892737,0.70625 0.649745,0.70624 0.649745,1.99161 z"
         style="fill:#ffffff"
         id="path34384" />
      <path
         d="m 73.99315,117.79235 q 0,0.48025 0.338998,0.81925 0.338997,0.339 0.833369,0.339 0.494371,0 0.819244,-0.339 0.338998,-0.339 0.338998,-0.81925 0,-0.49437 -0.338998,-0.83336 -0.338998,-0.339 -0.819244,-0.339 -0.480247,0 -0.833369,0.339 -0.338998,0.33899 -0.338998,0.83336 z m 6.808203,15.3679 q 0.268373,0 0.423747,-0.1695 0.155374,-0.1695 0.155374,-0.40962 0,-0.226 -0.155374,-0.3955 -0.141249,-0.18362 -0.409622,-0.18362 h -4.703593 v -9.84506 q 0,-0.21187 -0.141249,-0.32487 -0.141249,-0.12713 -0.367247,-0.12713 -0.112999,0 -0.155374,0.0141 l -5.621711,0.77687 q -0.225999,0.0282 -0.338998,0.19775 -0.112999,0.15537 -0.112999,0.36724 0,0.24013 0.155374,0.42375 0.155374,0.1695 0.423747,0.1695 l 0.09887,-0.0141 4.703593,-0.63562 v 8.99757 h -5.254464 q -0.282498,0 -0.437872,0.16949 -0.155374,0.15538 -0.155374,0.38138 0,0.24012 0.169499,0.42374 0.169499,0.18363 0.480247,0.18363 z"
         style="fill:#ffffff"
         id="path34386" />
      <path
         d="m 95.279384,123.38582 q 0.268373,0 0.409622,-0.1695 0.155374,-0.1695 0.155374,-0.40963 0,-0.22599 -0.155374,-0.39549 -0.141249,-0.18363 -0.395497,-0.18363 h -5.254464 v -3.37585 q 0,-0.31075 -0.09887,-0.46612 -0.09888,-0.1695 -0.409622,-0.1695 -0.409623,0 -0.593246,0.36725 -0.169499,0.35312 -0.211874,1.11587 -0.04237,0.76274 -0.04237,2.52835 h -2.076361 q -0.282498,0 -0.437872,0.1695 -0.155374,0.15538 -0.155374,0.38137 0,0.24013 0.169499,0.42375 0.169499,0.18363 0.480247,0.18363 h 2.019861 v 7.38732 q 0,0.69212 0.494371,1.29949 0.508497,0.60737 1.341866,0.97462 0.847494,0.35312 1.807987,0.35312 0.946369,0 1.906862,-0.226 0.960493,-0.21187 1.680863,-0.55087 0.734495,-0.35312 1.031118,-0.70624 0.07062,-0.0989 0.07062,-0.21188 0,-0.24012 -0.197749,-0.48024 -0.197749,-0.24013 -0.395497,-0.24013 -0.09888,0 -0.155374,0.0565 -0.677995,0.5085 -1.751488,0.86162 -1.059368,0.339 -2.048111,0.339 -1.087617,0 -1.765612,-0.46612 -0.663871,-0.48025 -0.663871,-1.49724 v -6.89295 z"
         style="fill:#ffffff"
         id="path34388" />
      <path
         d="m 130.94476,133.20262 2.62723,-0.2825 q 0.25425,-0.0565 0.3955,-0.22599 0.14125,-0.18363 0.14125,-0.3955 0,-0.21187 -0.14125,-0.35312 -0.14125,-0.14125 -0.42375,-0.14125 h -0.0848 l -2.09048,0.15537 v -14.9159 q 0,-0.55087 -0.57912,-0.55087 -0.0565,0 -0.2825,0.0282 l -2.66961,0.26838 q -0.24012,0.0424 -0.35312,0.21187 -0.113,0.1695 -0.113,0.36725 0,0.226 0.15537,0.38137 0.15538,0.15537 0.3955,0.15537 0.0847,0 0.15537,-0.0141 0.0706,-0.0141 0.12713,-0.0282 l 1.80799,-0.113 v 5.42396 q -0.8475,-0.73449 -1.79387,-1.11587 -0.93224,-0.38137 -2.21761,-0.38137 -1.62436,0 -2.8391,0.76275 -1.20062,0.74862 -1.85036,2.09048 -0.64975,1.32774 -0.64975,3.00861 0,1.70911 0.64975,3.03685 0.64974,1.32774 1.85036,2.07636 1.21474,0.74862 2.8391,0.74862 1.29949,0 2.38711,-0.48025 1.10174,-0.49437 1.75149,-1.27124 l 0.0424,0.8475 q 0.0141,0.35312 0.19775,0.53674 0.18363,0.1695 0.46612,0.1695 z m -4.85897,-10.36768 q 2.47186,0 3.92673,1.82212 v 5.53696 q -1.42662,2.04811 -3.98323,2.04811 -1.27124,0 -2.17523,-0.63562 -0.904,-0.63562 -1.37012,-1.70911 -0.46612,-1.0735 -0.46612,-2.35886 0,-1.28537 0.46612,-2.35886 0.46612,-1.07349 1.38424,-1.70911 0.91812,-0.63563 2.21761,-0.63563 z"
         style="fill:#ffffff"
         id="path34390" />
      <path
         d="m 138.21908,127.53854 q 0,1.76561 0.74862,3.09335 0.74862,1.32774 2.10461,2.04811 1.35599,0.72037 3.13573,0.72037 1.77974,0 3.13573,-0.72037 1.35599,-0.72037 2.10461,-2.04811 0.74862,-1.32774 0.74862,-3.09335 0,-1.77974 -0.74862,-3.10748 -0.74862,-1.32774 -2.10461,-2.03399 -1.35599,-0.72037 -3.13573,-0.72037 -1.77974,0 -3.13573,0.72037 -1.35599,0.70625 -2.10461,2.03399 -0.74862,1.32774 -0.74862,3.10748 z m 1.52549,0 q 0,-1.37012 0.52262,-2.42949 0.53675,-1.07349 1.53962,-1.66673 1.01699,-0.60738 2.40123,-0.60738 1.38424,0 2.38711,0.60738 1.01699,0.59324 1.53961,1.66673 0.53675,1.05937 0.53675,2.42949 0,1.38424 -0.53675,2.45773 -0.52262,1.05937 -1.53961,1.65261 -1.00287,0.59325 -2.38711,0.59325 -1.38424,0 -2.40123,-0.59325 -1.00287,-0.59324 -1.53962,-1.65261 -0.52262,-1.07349 -0.52262,-2.45773 z"
         style="fill:#ffffff"
         id="path34392" />
      <path
         d="m 155.95996,127.41141 q 0,1.85036 0.80512,3.20636 0.80512,1.34186 2.24586,2.06223 1.45486,0.72037 3.3476,0.72037 1.20062,0 2.57073,-0.46612 1.38424,-0.46612 2.11874,-1.25712 0.25424,-0.28249 0.25424,-0.59324 0,-0.25425 -0.15537,-0.43787 -0.15537,-0.18363 -0.40962,-0.18363 -0.2825,0 -0.57912,0.24012 -0.80512,0.76275 -1.83624,1.15825 -1.01699,0.38137 -2.07636,0.38137 -2.17524,0 -3.5171,-1.15824 -1.34187,-1.15824 -1.41249,-3.38998 l 8.88456,-0.0706 q 0.49437,0 0.791,-0.339 0.29662,-0.35312 0.29662,-0.88987 0,-1.51136 -0.66387,-2.57073 -0.64975,-1.05937 -1.80799,-1.59612 -1.14412,-0.55087 -2.61311,-0.55087 -1.72323,0 -3.14985,0.69212 -1.41249,0.69212 -2.25998,1.99161 -0.83337,1.29949 -0.83337,3.05098 z m 6.27145,-4.57647 q 2.20349,0 2.98036,1.11587 0.77687,1.11587 0.87574,2.64136 l -8.72919,0.0565 q 0.25425,-1.80799 1.52549,-2.81086 1.28537,-1.00287 3.3476,-1.00287 z"
         style="fill:#ffffff"
         id="path34394" />
      <path
         d="m 174.5342,124.88306 q 0,1.18649 0.77687,1.86448 0.77687,0.678 2.18936,0.94637 l 3.75723,0.7345 q 0.90399,0.16949 1.28536,0.62149 0.38137,0.43787 0.38137,1.15824 0,1.03112 -0.86161,1.53962 -0.8475,0.49437 -2.45774,0.49437 -1.20061,0 -2.18936,-0.36725 -0.98874,-0.36725 -1.56786,-1.01699 -0.565,-0.64975 -0.565,-1.44074 0,-0.452 -0.14125,-0.59325 -0.12712,-0.14125 -0.36724,-0.14125 -0.19775,0 -0.35313,0.18363 -0.15537,0.18362 -0.15537,0.55087 l -0.0282,3.19223 q 0,0.24012 0.1695,0.39549 0.1695,0.15538 0.3955,0.15538 0.21187,0 0.35312,-0.14125 0.15537,-0.15538 0.15537,-0.452 v -0.84749 q 0.77687,0.88987 1.90686,1.28536 1.14412,0.3955 2.47186,0.3955 2.10461,0 3.3476,-0.79099 1.25712,-0.80512 1.25712,-2.38711 0,-1.45487 -0.74862,-2.16111 -0.73449,-0.70625 -2.10461,-0.97462 l -3.65835,-0.73449 q -1.00287,-0.226 -1.39836,-0.6215 -0.3955,-0.40962 -0.3955,-1.05937 0,-1.83624 2.99448,-1.83624 1.53961,0 2.59898,0.43788 1.07349,0.43787 1.45486,1.32774 0.0141,0.66387 0.113,0.93224 0.0989,0.26837 0.452,0.26837 0.2825,0 0.40962,-0.12712 0.12713,-0.12712 0.15538,-0.3955 l 0.0282,-2.8391 q 0,-0.32488 -0.1695,-0.5085 -0.1695,-0.18362 -0.40962,-0.18362 -0.24013,0 -0.42375,0.19775 -0.18363,0.18362 -0.1695,0.50849 v 0.52262 q -0.42375,-0.55087 -1.56786,-0.91812 -1.14412,-0.38137 -2.37299,-0.38137 -1.93511,0 -3.24873,0.7345 -1.29949,0.73449 -1.29949,2.47186 z"
         style="fill:#ffffff"
         id="path34396" />
      <path
         d="m 218.13779,132.00201 h -2.06224 q -0.2825,0 -0.43787,0.16949 -0.15537,0.15538 -0.15537,0.38138 0,0.24012 0.1695,0.42374 0.16949,0.18363 0.48024,0.18363 h 4.87309 q 0.2825,0 0.43788,-0.1695 0.15537,-0.18362 0.15537,-0.42375 0,-0.226 -0.15537,-0.3955 -0.14125,-0.16949 -0.40963,-0.16949 h -1.53961 v -6.37033 q 0,-1.89274 -0.98874,-2.92386 -0.98875,-1.03112 -2.98036,-1.03112 -0.96049,0 -1.86449,0.32488 -0.90399,0.32487 -1.59611,0.88986 -0.69212,0.55088 -1.04524,1.243 l -0.0706,-1.69499 q -0.0282,-0.55087 -0.55087,-0.55087 -0.0565,0 -0.25425,0.0282 l -2.31648,0.46612 q -0.24012,0.0565 -0.35312,0.226 -0.113,0.15537 -0.113,0.35312 0,0.226 0.15537,0.38137 0.15538,0.15537 0.3955,0.15537 0.14125,0 0.2825,-0.0424 l 1.52549,-0.31075 v 8.85632 h -1.52549 q -0.2825,0 -0.43787,0.16949 -0.15538,0.15538 -0.15538,0.38138 0,0.24012 0.1695,0.42374 0.1695,0.18363 0.48025,0.18363 h 4.27984 q 0.32488,0 0.5085,-0.1695 0.19775,-0.18362 0.19775,-0.42375 0,-0.226 -0.18363,-0.3955 -0.1695,-0.16949 -0.49437,-0.16949 h -1.48311 v -5.94659 q 0,-0.73449 0.57912,-1.48311 0.57912,-0.74862 1.61024,-1.24299 1.04524,-0.49438 2.33061,-0.49438 1.25711,0 1.89273,0.70625 0.64975,0.70624 0.64975,1.99161 z"
         style="fill:#ffffff"
         id="path34398" />
      <path
         d="m 225.79348,127.53854 q 0,1.76561 0.74862,3.09335 0.74862,1.32774 2.10461,2.04811 1.356,0.72037 3.13573,0.72037 1.77974,0 3.13573,-0.72037 1.35599,-0.72037 2.10461,-2.04811 0.74862,-1.32774 0.74862,-3.09335 0,-1.77974 -0.74862,-3.10748 -0.74862,-1.32774 -2.10461,-2.03399 -1.35599,-0.72037 -3.13573,-0.72037 -1.77973,0 -3.13573,0.72037 -1.35599,0.70625 -2.10461,2.03399 -0.74862,1.32774 -0.74862,3.10748 z m 1.52549,0 q 0,-1.37012 0.52263,-2.42949 0.53674,-1.07349 1.53961,-1.66673 1.01699,-0.60738 2.40123,-0.60738 1.38424,0 2.38711,0.60738 1.01699,0.59324 1.53962,1.66673 0.53674,1.05937 0.53674,2.42949 0,1.38424 -0.53674,2.45773 -0.52263,1.05937 -1.53962,1.65261 -1.00287,0.59325 -2.38711,0.59325 -1.38424,0 -2.40123,-0.59325 -1.00287,-0.59324 -1.53961,-1.65261 -0.52263,-1.07349 -0.52263,-2.45773 z"
         style="fill:#ffffff"
         id="path34400" />
      <path
         d="m 252.91328,123.38582 q 0.26837,0 0.40962,-0.1695 0.15538,-0.1695 0.15538,-0.40963 0,-0.22599 -0.15538,-0.39549 -0.14125,-0.18363 -0.3955,-0.18363 h -5.25446 v -3.37585 q 0,-0.31075 -0.0989,-0.46612 -0.0989,-0.1695 -0.40963,-0.1695 -0.40962,0 -0.59324,0.36725 -0.1695,0.35312 -0.21187,1.11587 -0.0424,0.76274 -0.0424,2.52835 h -2.07636 q -0.2825,0 -0.43787,0.1695 -0.15538,0.15538 -0.15538,0.38137 0,0.24013 0.1695,0.42375 0.1695,0.18363 0.48025,0.18363 h 2.01986 v 7.38732 q 0,0.69212 0.49437,1.29949 0.5085,0.60737 1.34187,0.97462 0.84749,0.35312 1.80799,0.35312 0.94636,0 1.90686,-0.226 0.96049,-0.21187 1.68086,-0.55087 0.7345,-0.35312 1.03112,-0.70624 0.0706,-0.0989 0.0706,-0.21188 0,-0.24012 -0.19775,-0.48024 -0.19774,-0.24013 -0.39549,-0.24013 -0.0989,0 -0.15538,0.0565 -0.67799,0.5085 -1.75149,0.86162 -1.05936,0.339 -2.04811,0.339 -1.08761,0 -1.76561,-0.46612 -0.66387,-0.48025 -0.66387,-1.49724 v -6.89295 z"
         style="fill:#ffffff"
         id="path34402" />
      <path
         d="m -19.18883,160.67838 q 0,1.85036 0.805119,3.20635 0.805119,1.34187 2.245859,2.06224 1.454865,0.72037 3.347602,0.72037 1.200617,0 2.570732,-0.46612 1.3842408,-0.46612 2.1187357,-1.25712 0.2542482,-0.2825 0.2542482,-0.59324 0,-0.25425 -0.1553739,-0.43788 -0.1553739,-0.18362 -0.4096221,-0.18362 -0.2824981,0 -0.579121,0.24012 -0.8051194,0.76275 -1.8362369,1.15825 -1.016993,0.38137 -2.076361,0.38137 -2.175235,0 -3.517101,-1.15824 -1.341865,-1.15825 -1.41249,-3.38998 l 8.8845636,-0.0706 q 0.4943716,0 0.7909945,-0.33899 0.2966229,-0.35313 0.2966229,-0.88987 0,-1.51137 -0.6638704,-2.57073 -0.6497454,-1.05937 -1.8079876,-1.59612 -1.144117,-0.55087 -2.613107,-0.55087 -1.723238,0 -3.149853,0.69212 -1.41249,0.69212 -2.259984,1.99161 -0.833369,1.29949 -0.833369,3.05098 z m 6.271456,-4.57647 q 2.203485,0 2.9803544,1.11587 0.7768697,1.11587 0.875744,2.64136 l -8.7291894,0.0565 q 0.254248,-1.80799 1.525489,-2.81086 1.285366,-1.00287 3.347602,-1.00287 z"
         style="fill:#ffffff"
         id="path34404" />
      <path
         d="m 10.007343,166.42722 q 0.338997,0 0.522621,-0.1695 0.197749,-0.18363 0.197749,-0.42375 0,-0.226 -0.183624,-0.3955 -0.183624,-0.1695 -0.508496,-0.1695 H 9.0327246 l -4.0679718,-4.53409 3.4888508,-4.0821 H 9.837844 q 0.579121,0 0.579121,-0.59324 0,-0.565 -0.5508712,-0.565 H 6.094745 q -0.5932459,0 -0.5932459,0.565 0,0.59324 0.6497455,0.59324 h 0.6356206 l -2.6554816,3.14986 -2.8249804,-3.14986 h 0.5649961 q 0.5649961,0 0.5649961,-0.59324 0,-0.565 -0.5367463,-0.565 h -3.3476018 q -0.5932459,0 -0.5932459,0.565 0,0.59324 0.6497455,0.59324 h 1.2429914 l 3.5312255,4.03973 -3.85609824,4.57646 H -1.6598262 q -0.5932459,0 -0.5932459,0.565 0,0.59325 0.6497455,0.59325 h 3.4888508 q 0.5649961,0 0.5649961,-0.59325 0,-0.565 -0.5367463,-0.565 H 1.0804048 l 3.1216033,-3.64422 3.1781029,3.64422 H 6.2501189 q -0.3389977,0 -0.5367463,0.1695 -0.1836237,0.1695 -0.1836237,0.3955 0,0.24012 0.1977486,0.42375 0.2118735,0.1695 0.5932459,0.1695 z"
         style="fill:#ffffff"
         id="path34406" />
      <path
         d="m 21.448514,151.05932 q 0,0.48025 0.338998,0.81925 0.338997,0.33899 0.833369,0.33899 0.494372,0 0.819244,-0.33899 0.338998,-0.339 0.338998,-0.81925 0,-0.49437 -0.338998,-0.83337 -0.338997,-0.33899 -0.819244,-0.33899 -0.480247,0 -0.833369,0.33899 -0.338998,0.339 -0.338998,0.83337 z m 6.808203,15.3679 q 0.268373,0 0.423747,-0.1695 0.155374,-0.1695 0.155374,-0.40962 0,-0.226 -0.155374,-0.3955 -0.141249,-0.18363 -0.409622,-0.18363 h -4.703593 v -9.84505 q 0,-0.21188 -0.141249,-0.32488 -0.141249,-0.12712 -0.367247,-0.12712 -0.112999,0 -0.155374,0.0141 l -5.621711,0.77687 q -0.225998,0.0282 -0.338998,0.19774 -0.112999,0.15538 -0.112999,0.36725 0,0.24012 0.155374,0.42375 0.155374,0.1695 0.423747,0.1695 l 0.09888,-0.0141 4.703592,-0.63562 v 8.99756 H 16.9568 q -0.282498,0 -0.437872,0.1695 -0.155374,0.15538 -0.155374,0.38138 0,0.24012 0.169499,0.42374 0.169499,0.18363 0.480247,0.18363 z"
         style="fill:#ffffff"
         id="path34408" />
      <path
         d="m 34.415177,158.15002 q 0,1.1865 0.77687,1.86449 0.776869,0.678 2.189359,0.94637 l 3.757224,0.73449 q 0.903994,0.1695 1.285366,0.6215 0.381373,0.43787 0.381373,1.15824 0,1.03112 -0.861619,1.53962 -0.847494,0.49437 -2.457733,0.49437 -1.200617,0 -2.18936,-0.36725 -0.988743,-0.36725 -1.567864,-1.01699 -0.564996,-0.64975 -0.564996,-1.44074 0,-0.452 -0.141249,-0.59325 -0.127124,-0.14125 -0.367248,-0.14125 -0.197748,0 -0.353122,0.18363 -0.155374,0.18362 -0.155374,0.55087 l -0.02825,3.19223 q 0,0.24012 0.169499,0.39549 0.169499,0.15538 0.395497,0.15538 0.211874,0 0.353123,-0.14125 0.155374,-0.15538 0.155374,-0.452 v -0.84749 q 0.776869,0.88987 1.906861,1.28536 1.144117,0.3955 2.471858,0.3955 2.104611,0 3.347602,-0.79099 1.257116,-0.80512 1.257116,-2.38711 0,-1.45487 -0.74862,-2.16111 -0.734495,-0.70625 -2.10461,-0.97462 l -3.65835,-0.7345 q -1.002868,-0.22599 -1.398365,-0.62149 -0.395497,-0.40962 -0.395497,-1.05937 0,-1.83624 2.994479,-1.83624 1.539614,0 2.598982,0.43787 1.073493,0.43788 1.454865,1.32775 0.01412,0.66387 0.112999,0.93224 0.09887,0.26837 0.451997,0.26837 0.282498,0 0.409622,-0.12712 0.127124,-0.12713 0.155374,-0.3955 l 0.02825,-2.8391 q 0,-0.32488 -0.169499,-0.5085 -0.169499,-0.18362 -0.409622,-0.18362 -0.240123,0 -0.423747,0.19774 -0.183624,0.18363 -0.169499,0.5085 v 0.52262 q -0.423747,-0.55087 -1.567864,-0.91812 -1.144117,-0.38137 -2.372984,-0.38137 -1.935111,0 -3.248727,0.7345 -1.299491,0.73449 -1.299491,2.47185 z"
         style="fill:#ffffff"
         id="path34410" />
      <path
         d="m 60.249621,156.65278 q 0.268374,0 0.409623,-0.16949 0.155374,-0.1695 0.155374,-0.40963 0,-0.226 -0.155374,-0.39549 -0.141249,-0.18363 -0.395498,-0.18363 h -5.254463 v -3.37585 q 0,-0.31075 -0.09887,-0.46612 -0.09887,-0.1695 -0.409623,-0.1695 -0.409622,0 -0.593246,0.36725 -0.169498,0.35312 -0.211873,1.11586 -0.04237,0.76275 -0.04237,2.52836 h -2.07636 q -0.282498,0 -0.437872,0.1695 -0.155374,0.15537 -0.155374,0.38137 0,0.24013 0.169499,0.42375 0.169498,0.18362 0.480246,0.18362 h 2.019861 v 7.38733 q 0,0.69212 0.494372,1.29949 0.508496,0.60737 1.341866,0.97462 0.847494,0.35312 1.807987,0.35312 0.946368,0 1.906862,-0.226 0.960493,-0.21187 1.680863,-0.55087 0.734495,-0.35312 1.031118,-0.70625 0.07062,-0.0989 0.07062,-0.21187 0,-0.24012 -0.197748,-0.48025 -0.197749,-0.24012 -0.395497,-0.24012 -0.09887,0 -0.155374,0.0565 -0.677996,0.5085 -1.751488,0.86162 -1.059368,0.339 -2.048111,0.339 -1.087617,0 -1.765613,-0.46612 -0.66387,-0.48025 -0.66387,-1.49724 v -6.89296 z"
         style="fill:#ffffff"
         id="path34412" />
      <path
         d="m 231.62707,151.05932 q 0,0.48025 0.339,0.81925 0.33899,0.33899 0.83337,0.33899 0.49437,0 0.81924,-0.33899 0.339,-0.339 0.339,-0.81925 0,-0.49437 -0.339,-0.83337 -0.339,-0.33899 -0.81924,-0.33899 -0.48025,0 -0.83337,0.33899 -0.339,0.339 -0.339,0.83337 z m 6.8082,15.3679 q 0.26837,0 0.42375,-0.1695 0.15537,-0.1695 0.15537,-0.40962 0,-0.226 -0.15537,-0.3955 -0.14125,-0.18363 -0.40962,-0.18363 h -4.7036 v -9.84505 q 0,-0.21188 -0.14124,-0.32488 -0.14125,-0.12712 -0.36725,-0.12712 -0.113,0 -0.15538,0.0141 l -5.62171,0.77687 q -0.226,0.0282 -0.33899,0.19774 -0.113,0.15538 -0.113,0.36725 0,0.24012 0.15537,0.42375 0.15537,0.1695 0.42375,0.1695 l 0.0989,-0.0141 4.70359,-0.63562 v 8.99756 h -5.25446 q -0.2825,0 -0.43787,0.1695 -0.15538,0.15538 -0.15538,0.38138 0,0.24012 0.1695,0.42374 0.1695,0.18363 0.48025,0.18363 z"
         style="fill:#ffffff"
         id="path34428" />
      <path
         d="m 252.91328,156.65278 q 0.26837,0 0.40962,-0.16949 0.15538,-0.1695 0.15538,-0.40963 0,-0.226 -0.15538,-0.39549 -0.14125,-0.18363 -0.3955,-0.18363 h -5.25446 v -3.37585 q 0,-0.31075 -0.0989,-0.46612 -0.0989,-0.1695 -0.40963,-0.1695 -0.40962,0 -0.59324,0.36725 -0.1695,0.35312 -0.21187,1.11586 -0.0424,0.76275 -0.0424,2.52836 h -2.07636 q -0.2825,0 -0.43787,0.1695 -0.15538,0.15537 -0.15538,0.38137 0,0.24013 0.1695,0.42375 0.1695,0.18362 0.48025,0.18362 h 2.01986 v 7.38733 q 0,0.69212 0.49437,1.29949 0.5085,0.60737 1.34187,0.97462 0.84749,0.35312 1.80799,0.35312 0.94636,0 1.90686,-0.226 0.96049,-0.21187 1.68086,-0.55087 0.7345,-0.35312 1.03112,-0.70625 0.0706,-0.0989 0.0706,-0.21187 0,-0.24012 -0.19775,-0.48025 -0.19774,-0.24012 -0.39549,-0.24012 -0.0989,0 -0.15538,0.0565 -0.67799,0.5085 -1.75149,0.86162 -1.05936,0.339 -2.04811,0.339 -1.08761,0 -1.76561,-0.46612 -0.66387,-0.48025 -0.66387,-1.49724 v -6.89296 z"
         style="fill:#ffffff"
         id="path34430" />
      <g
         id="g34697">
        <rect
           style="fill:#ffffff;fill-opacity:0.8;fill-rule:evenodd;stroke:none;stroke-width:1.01996;stroke-linecap:round;stroke-linejoin:round;stroke-miterlimit:4;stroke-dasharray:none;stroke-opacity:1"
           id="rect34076"
           width="130.46379"
           height="31.759581"
           x="79.221916"
           y="142.48238" />
        <path
           d="m 91.677534,168.16458 q 0.211873,0 0.367247,-0.113 0.155374,-0.0989 0.211874,-0.29662 l 1.723238,-6.76583 h 2.471858 q 0.211873,0 0.324872,-0.1695 0.113,-0.18362 0.113,-0.43787 0,-0.24013 -0.113,-0.40962 -0.112999,-0.18363 -0.324872,-0.18363 h -2.175235 l 0.790994,-3.09335 h 1.991611 q 0.197749,0 0.310748,-0.1695 0.112999,-0.18362 0.112999,-0.42375 0,-0.24012 -0.112999,-0.42374 -0.112999,-0.18363 -0.324873,-0.18363 h -1.680863 l 1.779738,-7.00595 q 0.01412,-0.0282 0.01412,-0.0989 0,-0.19775 -0.183624,-0.31075 -0.169499,-0.12713 -0.395497,-0.12713 -0.197749,0 -0.338998,0.0989 -0.141249,0.0847 -0.197749,0.26837 l -1.807987,7.17545 h -3.6301 l 1.779738,-7.00595 q 0.01412,-0.0282 0.01412,-0.0989 0,-0.19775 -0.183624,-0.31075 -0.169499,-0.12713 -0.395497,-0.12713 -0.197749,0 -0.338998,0.0989 -0.141249,0.0847 -0.197749,0.26837 l -1.807987,7.17545 h -2.443608 q -0.197749,0 -0.324873,0.18363 -0.112999,0.16949 -0.112999,0.40962 0,0.25425 0.112999,0.43787 0.127124,0.1695 0.324873,0.1695 h 2.13286 l -0.776869,3.09335 h -1.949237 q -0.197749,0 -0.324873,0.18363 -0.112999,0.16949 -0.112999,0.40962 0,0.25425 0.112999,0.43787 0.127124,0.1695 0.324873,0.1695 h 1.652614 l -1.680864,6.65283 q -0.01413,0.0424 -0.01413,0.113 0,0.18362 0.155374,0.29662 0.155374,0.113 0.367248,0.113 0.211873,0 0.367247,-0.113 0.155374,-0.0989 0.211874,-0.29662 l 1.723238,-6.76583 h 3.6301 l -1.680864,6.65283 q -0.01413,0.0424 -0.01413,0.113 0,0.18362 0.155374,0.29662 0.155374,0.113 0.367248,0.113 z m -1.370116,-11.46942 h 3.615975 l -0.776869,3.09335 h -3.6301 z"
           style="fill:#000000;stroke:#000000;stroke-opacity:1"
           id="path34414" />
        <path
           d="m 116.60798,161.58237 q 0,-0.24012 -0.25424,-0.42374 -0.25425,-0.19775 -0.55087,-0.19775 -0.42375,0 -0.565,0.3955 -0.57912,1.92098 -1.96336,3.0086 -1.38424,1.08762 -3.38998,1.08762 -1.68086,0 -3.10748,-0.88987 -1.42661,-0.90399 -2.28823,-2.59898 -0.8475,-1.70912 -0.8475,-4.01147 0,-2.04812 0.76275,-3.65835 0.76274,-1.61024 2.17523,-2.51424 1.41249,-0.90399 3.31936,-0.90399 1.25711,0 2.31648,0.49437 1.05937,0.48025 1.76561,1.35599 0.72037,0.87575 0.93225,2.01986 0.0565,0.31075 0.24012,0.49437 0.18362,0.1695 0.43787,0.1695 0.26837,0 0.452,-0.1695 0.19775,-0.16949 0.19775,-0.49437 v -4.13859 q 0,-0.339 -0.21188,-0.52263 -0.19775,-0.19774 -0.48024,-0.19774 -0.2825,0 -0.49437,0.19774 -0.19775,0.18363 -0.19775,0.5085 v 1.49724 q -0.38138,-0.69212 -1.14412,-1.24299 -0.74862,-0.55087 -1.75149,-0.86162 -1.00287,-0.32487 -2.10461,-0.32487 -2.16111,0 -3.88435,1.03112 -1.72323,1.03111 -2.71198,2.8956 -0.97462,1.86449 -0.97462,4.26572 0,2.64136 0.97462,4.64709 0.98875,1.99161 2.71198,3.07923 1.72324,1.08762 3.89848,1.08762 1.93511,0 3.3476,-0.72037 1.42661,-0.72037 2.25998,-1.85036 0.83337,-1.14412 1.11587,-2.41536 0.0141,-0.0283 0.0141,-0.0989 z"
           style="fill:#000000;stroke:#000000;stroke-opacity:1"
           id="path34416" />
        <path
           d="m 123.99531,165.26897 v -6.49745 h 2.47186 q 0.49437,0 1.29949,-0.0706 0.80512,-0.0706 0.96049,-0.12712 l 2.54248,6.6952 h -0.72037 q -0.32487,0 -0.50849,0.1695 -0.18363,0.1695 -0.18363,0.3955 0,0.24012 0.18363,0.42375 0.19774,0.1695 0.53674,0.1695 h 3.31935 q 0.46613,0 0.678,-0.1695 0.21187,-0.1695 0.21187,-0.42375 0,-0.24012 -0.21187,-0.3955 -0.19775,-0.1695 -0.69212,-0.1695 h -1.18649 l -2.88148,-7.00595 q 1.25711,-0.46612 2.07636,-1.41249 0.83337,-0.96049 0.83337,-2.47186 0,-1.83623 -0.8475,-2.81085 -0.83337,-0.98874 -2.31648,-1.32774 -1.48312,-0.35312 -3.75723,-0.35312 h -4.51996 q -0.339,0 -0.53675,0.18362 -0.18362,0.18362 -0.18362,0.43787 0,0.24013 0.18362,0.42375 0.19775,0.1695 0.52262,0.1695 h 1.37012 V 165.269 h -1.76562 q -0.33899,0 -0.52262,0.1695 -0.18362,0.1695 -0.18362,0.40963 0,0.22599 0.18362,0.40962 0.19775,0.1695 0.53675,0.1695 h 5.63583 q 0.339,0 0.52263,-0.1695 0.18362,-0.18363 0.18362,-0.40962 0,-0.24013 -0.18362,-0.40963 -0.18363,-0.1695 -0.5085,-0.1695 z m 1.79386,-14.16727 q 2.13286,0 3.30523,0.25425 1.17236,0.25424 1.72323,0.97461 0.55088,0.72037 0.55088,2.14699 0,1.34186 -0.70625,2.04811 -0.70624,0.69212 -1.94924,0.93224 -1.22886,0.226 -3.20635,0.226 h -1.51136 v -6.5822 z"
           style="fill:#000000;stroke:#000000;stroke-opacity:1"
           id="path34418" />
        <path
           d="m 147.27314,155.42392 q 0,-0.36725 -0.15537,-0.55087 -0.15537,-0.19775 -0.38137,-0.19775 -0.21188,0 -0.38137,0.1695 -0.15538,0.1695 -0.18363,0.46612 l -0.18362,1.87861 h -4.60472 v -6.08783 h 8.60207 l 0.19774,3.44647 q 0.0141,0.25425 0.18363,0.3955 0.18362,0.14125 0.40962,0.14125 0.226,0 0.3955,-0.15537 0.1695,-0.1695 0.1695,-0.46613 v -3.81372 q 0,-0.35312 -0.226,-0.55087 -0.21188,-0.21187 -0.565,-0.21187 h -12.40166 q -0.32487,0 -0.52262,0.18362 -0.18363,0.18362 -0.18363,0.43787 0,0.24013 0.1695,0.42375 0.18363,0.1695 0.5085,0.1695 h 1.90686 v 14.1249 h -2.40123 q -0.32488,0 -0.52262,0.18362 -0.18363,0.1695 -0.18363,0.40963 0,0.24012 0.18363,0.42374 0.19774,0.18363 0.53674,0.18363 h 13.07966 q 0.35312,0 0.565,-0.19775 0.226,-0.19775 0.226,-0.55087 v -3.81373 q 0,-0.35312 -0.18363,-0.53674 -0.1695,-0.19775 -0.40962,-0.19775 -0.24012,0 -0.42375,0.15537 -0.18362,0.15538 -0.19775,0.3955 l -0.22599,3.54535 h -8.68682 v -6.94945 h 4.60472 l 0.18362,2.09048 q 0.0141,0.2825 0.18363,0.452 0.16949,0.15537 0.38137,0.15537 0.226,0 0.38137,-0.18362 0.15537,-0.18362 0.15537,-0.53675 z"
           style="fill:#000000;stroke:#000000;stroke-opacity:1"
           id="path34420" />
        <path
           d="m 159.15219,166.42722 q 0.33899,0 0.52262,-0.1695 0.19775,-0.18363 0.19775,-0.43787 0,-0.24013 -0.19775,-0.42375 -0.18363,-0.18363 -0.5085,-0.18363 h -2.24586 l 1.58199,-4.32222 h 6.82233 l 1.51136,4.32222 h -2.62723 q -0.32487,0 -0.5085,0.18363 -0.18362,0.1695 -0.18362,0.40962 0,0.25425 0.18362,0.43787 0.19775,0.18363 0.53675,0.18363 h 5.16971 q 0.32488,0 0.5085,-0.18363 0.19775,-0.18362 0.19775,-0.43787 0,-0.24012 -0.18362,-0.40962 -0.1695,-0.18363 -0.49438,-0.18363 h -1.11586 l -5.11322,-14.4074 q -0.32487,-0.91811 -1.14411,-0.91811 h -4.27985 q -0.32487,0 -0.5085,0.18362 -0.18362,0.18362 -0.18362,0.42375 0,0.25425 0.18362,0.43787 0.18363,0.1695 0.52263,0.1695 h 3.0651 l -5.43809,14.11077 h -1.20061 q -0.32488,0 -0.5085,0.18363 -0.18363,0.18362 -0.18363,0.42375 0,0.25424 0.18363,0.43787 0.18362,0.1695 0.52262,0.1695 z m 2.93798,-15.1419 2.81085,8.43257 h -5.93246 z"
           style="fill:#000000;stroke:#000000;stroke-opacity:1"
           id="path34422" />
        <path
           d="m 178.53155,151.1017 v 14.11077 h -3.41823 q -0.32487,0 -0.52262,0.18363 -0.18362,0.1695 -0.18362,0.40962 0,0.25425 0.19775,0.43787 0.19775,0.18363 0.53674,0.18363 h 8.13595 q 0.339,0 0.52262,-0.18363 0.19775,-0.18362 0.19775,-0.43787 0,-0.24012 -0.18363,-0.40962 -0.18362,-0.18363 -0.50849,-0.18363 h -3.41823 V 151.1017 h 4.97197 l 0.14125,3.82785 q 0.0141,0.28249 0.19774,0.45199 0.18363,0.15538 0.42375,0.15538 0.26837,0 0.452,-0.18363 0.19775,-0.19775 0.19775,-0.55087 v -4.15272 q 0,-0.38137 -0.14125,-0.565 -0.12713,-0.19774 -0.42375,-0.19774 h -12.93841 q -0.32487,0 -0.46612,0.18362 -0.12713,0.18362 -0.12713,0.57912 v 4.15272 q 0,0.35312 0.21188,0.565 0.21187,0.19775 0.48024,0.19775 0.226,0 0.3955,-0.15538 0.1695,-0.1695 0.18363,-0.48024 l 0.16949,-3.82785 z"
           style="fill:#000000;stroke:#000000;stroke-opacity:1"
           id="path34424" />
        <path
           d="m 199.81779,155.42392 q 0,-0.36725 -0.15537,-0.55087 -0.15538,-0.19775 -0.38137,-0.19775 -0.21188,0 -0.38138,0.1695 -0.15537,0.1695 -0.18362,0.46612 l -0.18362,1.87861 h -4.60472 v -6.08783 h 8.60206 l 0.19775,3.44647 q 0.0141,0.25425 0.18363,0.3955 0.18362,0.14125 0.40962,0.14125 0.226,0 0.39549,-0.15537 0.1695,-0.1695 0.1695,-0.46613 v -3.81372 q 0,-0.35312 -0.22599,-0.55087 -0.21188,-0.21187 -0.565,-0.21187 h -12.40166 q -0.32488,0 -0.52263,0.18362 -0.18362,0.18362 -0.18362,0.43787 0,0.24013 0.1695,0.42375 0.18362,0.1695 0.5085,0.1695 h 1.90686 v 14.1249 h -2.40124 q -0.32487,0 -0.52262,0.18362 -0.18362,0.1695 -0.18362,0.40963 0,0.24012 0.18362,0.42374 0.19775,0.18363 0.53675,0.18363 h 13.07966 q 0.35312,0 0.56499,-0.19775 0.226,-0.19775 0.226,-0.55087 v -3.81373 q 0,-0.35312 -0.18362,-0.53674 -0.1695,-0.19775 -0.40962,-0.19775 -0.24013,0 -0.42375,0.15537 -0.18362,0.15538 -0.19775,0.3955 l -0.226,3.54535 h -8.68681 v -6.94945 h 4.60472 l 0.18362,2.09048 q 0.0141,0.2825 0.18362,0.452 0.1695,0.15537 0.38138,0.15537 0.22599,0 0.38137,-0.18362 0.15537,-0.18362 0.15537,-0.53675 z"
           style="fill:#000000;stroke:#000000;stroke-opacity:1"
           id="path34426" />
      </g>
    </g>
  </g>
</svg>
