<?xml version="1.0" encoding="UTF-8" standalone="no"?>
<!-- Created with Inkscape (http://www.inkscape.org/) -->

<svg
   width="81.924606mm"
   height="130.04651mm"
   viewBox="0 0 81.924607 130.04651"
   version="1.1"
   id="svg5"
   xmlns:xlink="http://www.w3.org/1999/xlink"
   xmlns="http://www.w3.org/2000/svg"
   xmlns:svg="http://www.w3.org/2000/svg">
  <defs
     id="defs2">
    <linearGradient
       id="linearGradient24936">
      <stop
         style="stop-color:#21006f;stop-opacity:1"
         offset="0"
         id="stop24932" />
      <stop
         style="stop-color:#9a1b3f;stop-opacity:1"
         offset="1"
         id="stop24934" />
    </linearGradient>
    <linearGradient
       id="linearGradient24866">
      <stop
         style="stop-color:#21006f;stop-opacity:1"
         offset="0"
         id="stop24862" />
      <stop
         style="stop-color:#9a1b3f;stop-opacity:1"
         offset="1"
         id="stop24864" />
    </linearGradient>
    <linearGradient
       id="linearGradient24796">
      <stop
         style="stop-color:#21006f;stop-opacity:1"
         offset="0"
         id="stop24792" />
      <stop
         style="stop-color:#d32829;stop-opacity:1"
         offset="1"
         id="stop24794" />
    </linearGradient>
    <linearGradient
       id="linearGradient6924">
      <stop
         style="stop-color:#21006f;stop-opacity:1"
         offset="0"
         id="stop6920" />
      <stop
         style="stop-color:#fe3218;stop-opacity:1"
         offset="1"
         id="stop6922" />
    </linearGradient>
    <linearGradient
       xlink:href="#linearGradient6924"
       id="linearGradient6928"
       x1="9.7897806"
       y1="32.693577"
       x2="9.7898417"
       y2="16.999996"
       gradientUnits="userSpaceOnUse" />
    <linearGradient
       xlink:href="#linearGradient24936"
       id="linearGradient24410"
       x1="36.085133"
       y1="32.989006"
       x2="55.871174"
       y2="32.989006"
       gradientUnits="userSpaceOnUse" />
    <linearGradient
       xlink:href="#linearGradient24796"
       id="linearGradient24418"
       x1="36.090305"
       y1="36.123821"
       x2="47.119762"
       y2="36.123821"
       gradientUnits="userSpaceOnUse" />
    <linearGradient
       xlink:href="#linearGradient24866"
       id="linearGradient24426"
       x1="36.090305"
       y1="41.875889"
       x2="47.403671"
       y2="41.875889"
       gradientUnits="userSpaceOnUse" />
    <linearGradient
       xlink:href="#linearGradient24936"
       id="linearGradient24434"
       x1="36.090305"
       y1="50.505444"
       x2="45.345036"
       y2="50.505444"
       gradientUnits="userSpaceOnUse" />
  </defs>
  <g
     id="layer1"
     style="display:inline;fill:#ffffff"
     transform="translate(10,20)">
    <g
       id="g3838">
      <g
         id="g23044"
         style="display:inline;fill:#fe3218;fill-opacity:1">
        <path
           id="rect22996"
           style="display:inline;fill:#fe3218;fill-opacity:1;stroke-width:1.18226"
           d="m 54.826802,90.045349 h 0.1425 a 1.42875,1.42875 45 0 1 1.42875,1.42875 V 98.6166 a 1.42875,1.42875 135 0 1 -1.42875,1.42875 h -0.1425 a 1.42875,1.42875 45 0 1 -1.42875,-1.42875 v -7.142501 a 1.42875,1.42875 135 0 1 1.42875,-1.42875 z" />
        <path
           id="rect23000"
           style="display:inline;fill:#d32829;fill-opacity:1;stroke-width:1.29511"
           d="m 60.35336,88.045349 h 0.1425 a 1.42875,1.42875 45 0 1 1.42875,1.42875 V 98.6166 a 1.42875,1.42875 135 0 1 -1.42875,1.42875 h -0.1425 A 1.42875,1.42875 45 0 1 58.92461,98.6166 v -9.142501 a 1.42875,1.42875 135 0 1 1.42875,-1.42875 z" />
        <path
           id="rect23038"
           style="display:inline;fill:#b62234;fill-opacity:1;stroke-width:1.52785"
           d="m 54.826802,70.345001 h 0.1425 a 1.42875,1.42875 45 0 1 1.42875,1.42875 v 13.842501 a 1.42875,1.42875 135 0 1 -1.42875,1.42875 h -0.1425 a 1.42875,1.42875 45 0 1 -1.42875,-1.42875 V 71.773751 a 1.42875,1.42875 135 0 1 1.42875,-1.42875 z" />
        <path
           id="rect22998"
           style="display:inline;fill:#fe3218;fill-opacity:1;stroke-width:1.67198"
           d="m 49.299801,80.045349 h 0.1425 a 1.42875,1.42875 45 0 1 1.42875,1.42875 V 98.6166 a 1.42875,1.42875 135 0 1 -1.42875,1.42875 h -0.1425 A 1.42875,1.42875 45 0 1 47.871051,98.6166 V 81.474099 a 1.42875,1.42875 135 0 1 1.42875,-1.42875 z" />
        <path
           id="rect22994"
           style="display:inline;fill:#fe3218;fill-opacity:1;stroke-width:1.44799"
           d="m 43.7738,85.045349 h 0.1425 a 1.42875,1.42875 45 0 1 1.42875,1.42875 V 98.6166 a 1.42875,1.42875 135 0 1 -1.42875,1.42875 H 43.7738 A 1.42875,1.42875 45 0 1 42.34505,98.6166 V 86.474099 a 1.42875,1.42875 135 0 1 1.42875,-1.42875 z" />
        <path
           id="rect23038-8"
           style="display:inline;fill:#fe3218;fill-opacity:1;stroke-width:1.49549"
           d="m 60.348046,69.348 h 0.1425 a 1.42875,1.42875 45 0 1 1.42875,1.42875 v 13.1425 a 1.42875,1.42875 135 0 1 -1.42875,1.42875 h -0.1425 a 1.42875,1.42875 45 0 1 -1.42875,-1.42875 v -13.1425 a 1.42875,1.42875 135 0 1 1.42875,-1.42875 z" />
        <path
           id="rect23040"
           style="display:inline;fill:#9a1b3f;fill-opacity:1;stroke-width:0.835998"
           d="m 54.826802,62.345001 h 0.1425 a 1.42875,1.42875 45 0 1 1.42875,1.42875 v 2.1425 a 1.42875,1.42875 135 0 1 -1.42875,1.42875 h -0.1425 a 1.42875,1.42875 45 0 1 -1.42875,-1.42875 v -2.1425 a 1.42875,1.42875 135 0 1 1.42875,-1.42875 z" />
        <path
           id="rect23036"
           style="display:inline;fill:#d32829;fill-opacity:1;stroke-width:1.33221"
           d="m 49.300049,64.348 h 0.1425 a 1.42875,1.42875 45 0 1 1.42875,1.42875 v 9.839499 a 1.42875,1.42875 135 0 1 -1.42875,1.42875 h -0.1425 a 1.42875,1.42875 45 0 1 -1.42875,-1.42875 V 65.77675 a 1.42875,1.42875 135 0 1 1.42875,-1.42875 z" />
        <path
           id="rect23034"
           style="display:inline;fill:#fe3218;fill-opacity:1;stroke-width:0.766935"
           d="m 43.7738,77.836998 h 0.1425 a 1.42875,1.42875 45 0 1 1.42875,1.42875 v 1.3505 a 1.42875,1.42875 135 0 1 -1.42875,1.42875 h -0.1425 a 1.42875,1.42875 45 0 1 -1.42875,-1.42875 v -1.3505 a 1.42875,1.42875 135 0 1 1.42875,-1.42875 z" />
        <path
           id="rect23032"
           style="display:inline;fill:#9a1b3f;fill-opacity:1;stroke-width:1.44799"
           d="m 43.7738,59.837002 h 0.1425 a 1.42875,1.42875 45 0 1 1.42875,1.42875 v 12.1425 a 1.42875,1.42875 135 0 1 -1.42875,1.42875 h -0.1425 a 1.42875,1.42875 45 0 1 -1.42875,-1.42875 v -12.1425 a 1.42875,1.42875 135 0 1 1.42875,-1.42875 z" />
        <path
           style="display:inline;fill:#b62234;fill-opacity:1;stroke:none;stroke-width:1.00737;stroke-miterlimit:4;stroke-dasharray:none;stroke-opacity:1"
           d="m 56.858414,38.742811 c -0.51623,0.440122 -0.609529,1.348894 -0.264427,2.058314 1.319111,2.711675 2.107493,5.854967 2.286314,9.119127 0.04316,0.787796 0.0391,1.875718 0.0391,2.427973 v 12.571428 a 1.42875,1.42875 45 0 0 1.42875,1.42875 h 0.142317 a 1.42875,1.42875 135 0 0 1.42875,-1.42875 V 53.776975 51.348287 C 61.691834,46.061924 60.726373,42.342077 59.089543,39.140463 58.64112,38.263355 57.608236,38.103537 56.858414,38.742811 Z"
           id="path329" />
        <path
           style="display:inline;fill:url(#linearGradient24410);fill-opacity:1;stroke:none;stroke-width:1.00737;stroke-miterlimit:4;stroke-dasharray:none;stroke-opacity:1"
           d="m 36.085137,30.866026 v 0.202981 a 1.42875,1.42875 45 0 0 1.42875,1.42875 h 6.39723 1.43395 c 3.75423,0.447124 5.983264,1.621769 7.891547,3.515576 0.559869,0.555621 1.452005,0.63756 2.052415,0.125554 l 0.08243,-0.07029 c 0.60041,-0.512006 0.680017,-1.42195 0.128367,-1.985885 -2.521035,-2.577178 -5.552975,-4.140285 -8.729172,-4.503132 -0.783543,-0.08951 -1.42795,-0.08163 -1.430822,-0.08163 H 38.084979 37.45322 a 1.3680859,1.3680859 135 0 0 -1.368086,1.368086 z"
           id="path22990" />
        <path
           style="display:inline;fill:#d32829;fill-opacity:1;stroke:none;stroke-width:0.771655;stroke-miterlimit:4;stroke-dasharray:none;stroke-opacity:1"
           d="m 49.317683,38.855989 c -0.379176,0.555993 -0.197151,1.422812 0.330968,2.008457 2.085857,2.313064 3.406252,5.537303 3.691414,9.02456 0.05771,1.45928 0.05771,1.45928 0.05771,1.45928 v 0.999938 h 5.16e-4 v 5.56824 a 1.42875,1.42875 45 0 0 1.42875,1.42875 h 0.142316 a 1.42875,1.42875 135 0 0 1.42875,-1.42875 v -4.13949 -2.428688 c 0,-5.18e-4 0,-5.18e-4 0,-5.18e-4 0,-5.16e-4 0,-5.16e-4 0,-5.16e-4 0,-5.16e-4 0,-5.16e-4 0,-5.16e-4 0,-5.19e-4 0,-5.19e-4 0,-5.19e-4 0,-5.16e-4 0,-5.16e-4 0,-5.16e-4 0,-5.15e-4 0,-5.15e-4 0,-5.15e-4 -0.362719,-5.803071 -2.07023,-9.858655 -4.80141,-12.740555 -0.669485,-0.70643 -1.730342,-0.553168 -2.279013,0.251358 z"
           id="path370" />
        <path
           style="display:inline;fill:url(#linearGradient24418);fill-opacity:1;stroke:none;stroke-width:0.771655;stroke-miterlimit:4;stroke-dasharray:none;stroke-opacity:1"
           d="m 36.090304,35.8189 v 0.142316 a 1.42875,1.42875 45 0 0 1.42875,1.42875 h 3.397414 c 0.789077,0 2.073372,-0.0096 2.8509,0.119789 0.390362,0.06494 0.777739,0.15612 1.160465,0.273171 0.668754,0.204528 1.502668,-0.01731 1.896941,-0.595543 l 0.01473,-0.0216 c 0.53656,-0.786902 0.286541,-1.790647 -0.611775,-2.104834 -0.801617,-0.280367 -1.622517,-0.474064 -2.452944,-0.578676 -0.782401,-0.09856 -1.424917,-0.09184 -1.424917,-0.09212 h -0.0047 -4.255037 -0.571078 a 1.42875,1.42875 135 0 0 -1.42875,1.42875 z"
           id="path22986" />
        <path
           style="display:inline;fill:#9a1b3f;fill-opacity:1;stroke:none;stroke-width:0.546148;stroke-miterlimit:4;stroke-dasharray:none;stroke-opacity:1"
           d="m 48.100716,46.976617 c -0.504763,0.367233 -0.7223,1.147183 -0.563127,1.764344 0.100035,0.387862 0.177964,0.783153 0.233293,1.183191 0.108026,0.781054 0.100614,1.871818 0.100614,2.424073 v 7.571218 a 1.42875,1.42875 45 0 0 1.42875,1.42875 h 0.142317 a 1.42875,1.42875 135 0 0 1.42875,-1.42875 v -6.142468 -2.428688 c -0.155166,-2.193416 -0.300598,-2.94974 -0.508647,-3.68471 -0.295074,-1.042401 -1.385074,-1.324918 -2.26195,-0.68696 z"
           id="path199" />
        <path
           style="display:inline;fill:url(#linearGradient24426);fill-opacity:1;stroke:none;stroke-width:0.546148;stroke-miterlimit:4;stroke-dasharray:none;stroke-opacity:1"
           d="m 36.090304,40.71059 v 0.142833 a 1.42875,1.42875 45 0 0 1.42875,1.42875 c 2.385807,0 3.34734,-0.01287 4.115417,0.160908 1.101033,0.249113 2.143371,0.782054 3.052051,1.561218 0.598255,0.512986 1.514278,0.644563 2.15238,0.180378 0.706433,-0.513892 0.782477,-1.578023 0.04397,-2.248976 -1.507137,-1.369266 -3.317381,-2.250258 -5.23526,-2.544605 -0.779195,-0.119587 -1.42619,-0.109256 -1.42989,-0.109256 H 38.10409 37.519054 a 1.42875,1.42875 135 0 0 -1.42875,1.42875 z"
           id="path22988" />
        <path
           id="rect23002"
           style="display:inline;fill:url(#linearGradient24434);fill-opacity:1;stroke:none;stroke-width:0.835996;stroke-miterlimit:4;stroke-dasharray:none;stroke-opacity:1"
           d="m 36.090304,45.602281 v 0.142833 a 1.42875,1.42875 45 0 0 1.42875,1.42875 c 0.315434,0 1.231187,-0.02217 1.974253,0.232485 1.209278,0.414422 2.169805,1.349321 2.602314,2.531399 0.269792,0.737363 0.249081,1.84737 0.249081,2.399626 h 5.16e-4 v 3.071233 a 1.42875,1.42875 45 0 0 1.42875,1.42875 h 0.142317 a 1.42875,1.42875 135 0 0 1.42875,-1.42875 v -1.642483 -1.928979 -0.499711 c -0.814347,-4.696865 -3.743618,-7.163815 -7.254854,-7.163903 h -0.571127 a 1.42875,1.42875 135 0 0 -1.42875,1.42875 z" />
      </g>
      <g
         id="g7750"
         style="display:inline;fill:#ffffff">
        <path
           id="rect6728"
           style="display:inline;fill:url(#linearGradient6928);fill-opacity:1;stroke:none;stroke-width:0.264583;stroke-miterlimit:4;stroke-dasharray:none;stroke-opacity:1;paint-order:normal"
           d="m 11.053072,18.428746 v 11.327163 a 1.42875,1.42875 135 0 1 -1.42875,1.42875 1.2742508,1.2742508 52.451843 0 1 -1.0982276,-1.42875 v -6.326952 a 1.42875,1.42875 45 0 0 -1.42875,-1.42875 H 6.9545109 a 1.42875,1.42875 135 0 0 -1.42875,1.42875 v 1.845572 a 1.42875,1.42875 135 0 1 -1.42875,1.42875 1.2738055,1.2738055 52.477909 0 1 -1.0971939,-1.42875 v -3.845966 a 1.42875,1.42875 45 0 0 -1.42875,-1.42875 H 1.42875 A 1.42875,1.42875 135 0 0 0,21.428563 v 13.571274 a 9.3274632e-5,9.3274632e-5 45 0 0 9.3274632e-5,9.3e-5 H 1.571067 h 2.8575 2.6871744 2.839103 2.7708906 2.755904 1.298215 2.799829 v -9.571095 a 1.42875,1.42875 45 0 0 -1.42875,-1.42875 h -0.142834 a 1.42875,1.42875 135 0 0 -1.42875,1.42875 v 2.642422 a 1.42875,1.42875 135 0 1 -1.42875,1.42875 1.2740278,1.2740278 52.464893 0 1 -1.09771,-1.42875 v -9.642511 a 1.42875,1.42875 45 0 0 -1.42875,-1.42875 h -0.142317 a 1.42875,1.42875 135 0 0 -1.42875,1.42875 z" />
        <path
           style="display:inline;fill:#9a1b3f;fill-opacity:1;stroke:none;stroke-width:1.58618;stroke-miterlimit:4;stroke-dasharray:none;stroke-opacity:1"
           id="rect6728-4-5-2"
           width="3"
           height="18"
           x="16.579561"
           y="2"
           d="m 18.008311,2 h 0.1425 a 1.42875,1.42875 45 0 1 1.42875,1.42875 l 0,15.1425 A 1.42875,1.42875 135 0 1 18.150811,20 h -0.1425 a 1.42875,1.42875 45 0 1 -1.42875,-1.42875 V 3.42875 A 1.42875,1.42875 135 0 1 18.008311,2 Z" />
        <path
           style="display:inline;fill:#b62234;fill-opacity:1;stroke:none;stroke-width:1.42363;stroke-miterlimit:4;stroke-dasharray:none;stroke-opacity:1"
           id="rect6728-4-2-3-35"
           width="3"
           height="14.5"
           x="5.526001"
           y="4"
           d="m 6.954751,4 h 0.1425 a 1.42875,1.42875 45 0 1 1.42875,1.42875 v 11.6425 A 1.42875,1.42875 135 0 1 7.097251,18.5 h -0.1425 a 1.42875,1.42875 45 0 1 -1.42875,-1.42875 l 0,-11.6425 A 1.42875,1.42875 135 0 1 6.954751,4 Z" />
        <path
           style="display:inline;fill:#d32829;fill-opacity:1;stroke:none;stroke-width:0.835998;stroke-miterlimit:4;stroke-dasharray:none;stroke-opacity:1"
           id="rect6728-1-6"
           width="3"
           height="5"
           x="7.1525574e-07"
           y="11"
           d="m 1.4287507,11 h 0.1425 a 1.42875,1.42875 45 0 1 1.42875,1.42875 v 2.1425 A 1.42875,1.42875 135 0 1 1.5712507,16 h -0.1425 A 1.42875,1.42875 45 0 1 7.1525574e-7,14.57125 l 0,-2.1425 A 1.42875,1.42875 135 0 1 1.4287507,11 Z" />
        <path
           style="display:inline;fill:#b62234;fill-opacity:1;stroke:none;stroke-width:0.953173;stroke-miterlimit:4;stroke-dasharray:none;stroke-opacity:1"
           id="rect6728-4-2-3-3"
           width="3"
           height="6.5"
           x="16.579561"
           y="-6.5"
           d="m 18.008311,-6.5 h 0.1425 a 1.42875,1.42875 45 0 1 1.42875,1.42875 v 3.6425 A 1.42875,1.42875 135 0 1 18.150811,0 h -0.1425 a 1.42875,1.42875 45 0 1 -1.42875,-1.42875 v -3.6425 A 1.42875,1.42875 135 0 1 18.008311,-6.5 Z" />
        <path
           style="display:inline;fill:#fe3218;fill-opacity:1;stroke:none;stroke-width:1.81238;stroke-miterlimit:4;stroke-dasharray:none;stroke-opacity:1"
           id="rect6728-4-21"
           width="3"
           height="23.5"
           x="11.053002"
           y="-10"
           d="m 12.481752,-10 h 0.1425 a 1.42875,1.42875 45 0 1 1.42875,1.42875 v 20.6425 A 1.42875,1.42875 135 0 1 12.624252,13.5 h -0.1425 a 1.42875,1.42875 45 0 1 -1.42875,-1.42875 V -8.57125 A 1.42875,1.42875 135 0 1 12.481752,-10 Z" />
        <path
           style="display:inline;fill:#fe3218;fill-opacity:1;stroke:none;stroke-width:0.74773;stroke-miterlimit:4;stroke-dasharray:none;stroke-opacity:1"
           id="rect6728-4-2-3"
           width="3"
           height="4"
           x="5.526001"
           y="-2"
           d="m 6.954751,-2 h 0.1425 a 1.42875,1.42875 45 0 1 1.42875,1.42875 v 1.1425 A 1.42875,1.42875 135 0 1 7.097251,2 h -0.1425 A 1.42875,1.42875 45 0 1 5.526001,0.57125 v -1.1425 A 1.42875,1.42875 135 0 1 6.954751,-2 Z" />
        <path
           style="display:inline;fill:#fe3218;fill-opacity:1;stroke:none;stroke-width:1.44799;stroke-miterlimit:4;stroke-dasharray:none;stroke-opacity:1"
           id="rect6728-1"
           width="3"
           height="15"
           x="7.664795e-07"
           y="-6"
           d="m 1.4287508,-6 h 0.1425 a 1.42875,1.42875 45 0 1 1.42875,1.42875 l 0,12.1425 A 1.42875,1.42875 135 0 1 1.5712508,9 h -0.1425 A 1.42875,1.42875 45 0 1 7.664795e-7,7.57125 l 0,-12.1425 A 1.42875,1.42875 135 0 1 1.4287508,-6 Z" />
      </g>
    </g>
    <g
       id="g27017">
      <path
         id="path14471-4-6"
         style="font-weight:bold;font-family:Asap;-inkscape-font-specification:'Asap Bold';display:inline;fill:#21006f;fill-opacity:1;stroke:none;stroke-width:0.264583;stroke-opacity:1"
         d="M 5.2504054e-5,34.281081 C 7.6887105e-4,56.588822 4.9577578e-4,76.117687 4.8277419e-4,98.42543 c 0,0.876752 0.71075280581,1.59153 1.58751552581,1.59569 3.3073947,0.0157 11.0711127,0.045 16.4039737,0.006 0.876622,-0.006 1.58724,-0.725238 1.58724,-1.60199 V 54.901465 c 0,-0.876752 0.182957,-1.896353 0.43822,-2.257227 0.5209,-0.686263 0.5209,-0.686263 0.5209,-0.686263 0.60358,-0.702799 0.60358,-0.702799 0.60358,-0.702799 0.68626,-0.719336 0.68626,-0.719336 0.68626,-0.719336 0.76895,-0.760677 0.76895,-0.760677 0.76895,-0.760677 0.85162,-0.694531 0.85162,-0.694531 0.85162,-0.694531 0.93431,-0.628386 0.93431,-0.628386 0.93431,-0.628386 1.017,-0.562239 1.017,-0.562239 1.017,-0.562239 1.0914,-0.520899 1.0914,-0.520899 1.0914,-0.520899 1.15755,-0.37207 1.15755,-0.37207 1.15755,-0.37207 1.2237,-0.223242 1.2237,-0.223242 1.2237,-0.223242 1.28985,-0.07441 1.28985,-0.07441 1.28985,-0.07441 0.55242,0.01188 0.55242,0.01188 0.55242,0.01188 1.14101,0.07286 1.14101,0.07286 1.14101,0.07286 0.23358,0.02894 0.23358,0.02894 0.23358,0.02894 0.56948,0.09198 0.56948,0.09198 0.56948,0.09198 0.17208,0.03359 0.17208,0.03359 0.17208,0.03359 0.77411,0.190169 0.77411,0.190169 0.77411,0.190169 0.0238,0.0057 0.0238,0.0057 0.0238,0.0057 0,0 0,0 0,0 0.01383,0 0.03456,0.01103 0.04784,0.01501 0.385719,0.115774 0.697871,-0.190275 0.69787,-0.685741 -3e-6,-2.850748 -1.1e-5,-11.728709 -6e-6,-15.374771 1e-6,-0.876742 -0.641789,-1.585724 -1.433493,-1.587481 h -5.3e-4 c -1.38338,0.04961 -1.38338,0.04961 -1.38338,0.04961 -0.001,0 -0.001,0 -0.001,0 -0.003,5.16e-4 -0.003,5.16e-4 -0.003,5.16e-4 -1.30483,0.147795 -1.30483,0.147795 -1.30483,0.147795 -0.007,0.0015 -0.007,0.0015 -0.007,0.0015 -1.22679,0.24598 -1.22679,0.24598 -1.22679,0.24598 -0.0109,0.0026 -0.0109,0.0026 -0.0109,0.0026 -1.1498,0.343648 -1.1498,0.343648 -1.1498,0.343648 -0.0129,0.0047 -0.0129,0.0047 -0.0129,0.0047 -1.07281,0.4408 -1.07281,0.4408 -1.07281,0.4408 -0.0155,0.0072 -0.0155,0.0072 -0.0155,0.0072 -0.99684,0.536918 -0.99684,0.536918 -0.99684,0.536918 -0.0165,0.01034 -0.0165,0.01034 -0.0165,0.01034 -0.92087,0.633037 -0.92087,0.633037 -0.92087,0.633037 -0.0186,0.01395 -0.0186,0.01395 -0.0186,0.01395 -0.84491,0.728121 -0.84491,0.728121 -0.84491,0.728121 -0.01,0.0083 -0.01,0.0083 -0.01,0.0083 -0.0176,0.01705 -0.0176,0.01705 -0.0176,0.01705 -1.136579,1.10801 -1.136579,1.10801 -1.136579,1.10801 -0.06744,0.06918 -0.06744,0.06918 -0.06744,0.06918 -0.0165,0.01757 -0.0165,0.01757 -0.0165,0.01757 -1.067658,1.17455 -1.067658,1.17455 -1.067658,1.17455 -0.0465,0.05433 -0.0465,0.05433 -0.0465,0.05433 -0.0171,0.02067 -0.0171,0.02067 -0.0171,0.02067 l -0.003,0.0036 c -0.99178,1.239274 -0.99178,1.239274 -0.99178,1.239274 -0.04016,0.05264 -0.04016,0.05264 -0.04016,0.05264 -0.016,0.02222 -0.016,0.02222 -0.016,0.02222 -0.912894,1.298477 -0.912894,1.298477 -0.912894,1.298477 -0.03178,0.04717 -0.03178,0.04717 -0.03178,0.04717 -5.3e-4,5.29e-4 -5.3e-4,5.29e-4 -5.3e-4,5.29e-4 v -3.520732 a 1.5875,1.5875 45 0 0 -1.5875,-1.5875 H 1.5875 c -0.87675204,0 -1.587475651026,0.710748 -1.587447495946,1.5875 z" />
      <g
         id="g27023">
        <path
           style="display:inline;fill:#450eff;fill-opacity:1;stroke-width:0.343503"
           id="rect4854"
           width="4"
           height="10"
           x="26.954428"
           y="32.600002"
           d="m 28.954428,32.600002 a 2,2 45 0 1 2,2 v 6 a 2,2 135 0 1 -2,2 2,2 45 0 1 -2,-2 v -6 a 2,2 135 0 1 2,-2 z" />
        <path
           style="display:inline;fill:#11003c;fill-opacity:1;stroke-width:0.114623"
           id="rect5904-4"
           width="5"
           height="7.6581717"
           x="23.954428"
           y="37.552895"
           d="m 26.454428,37.552895 a 2.5,2.5 45 0 1 2.5,2.5 v 2.658171 a 2.5,2.5 135 0 1 -2.5,2.5 2.5,2.5 45 0 1 -2.5,-2.5 v -2.658171 a 2.5,2.5 135 0 1 2.5,-2.5 z" />
        <path
           style="display:inline;fill:#450eff;fill-opacity:1;stroke-width:0.379211"
           d="m 2.1263816,30.783256 v 31.503261 a 2,2 45 0 0 2,2 1.999878,1.999878 134.9965 0 0 1.9997559,-2 V 47.435986 a 2,2 135 0 1 2,-2 h 2.4529385 a 2,2 45 0 1 2,2 v 6.6748 a 2,2 45 0 0 2,2 h 2.73e-4 a 2,2 135 0 0 2,-2 V 32.527334 a 2,2 45 0 0 -2,-2 h -2.73e-4 a 2,2 135 0 0 -2,2 v 0.141867 a 2,2 135 0 1 -2,2 H 8.1261375 a 2,2 45 0 1 -2,-2 v -1.885945 a 2,2 45 0 0 -2,-2 1.999878,1.999878 134.9965 0 0 -1.9997559,2 z"
           id="rect1163" />
        <path
           style="display:inline;fill:#11003c;fill-opacity:1;stroke-width:0.245044"
           id="rect5904"
           width="5"
           height="35"
           x="10.05298"
           y="40.326591"
           d="m 12.55298,40.326591 a 2.5,2.5 45 0 1 2.5,2.5 l 0,30 a 2.5,2.5 135 0 1 -2.5,2.5 2.5,2.5 45 0 1 -2.5,-2.5 v -30 a 2.5,2.5 135 0 1 2.5,-2.5 z" />
      </g>
    </g>
  </g>
</svg>
