<svg xmlns="http://www.w3.org/2000/svg" xmlns:v="https://vecta.io/nano"><path d="M54.827 100.045h.142a1.43 1.43 0 0 1 1.429 1.429v7.142a1.43 1.43 0 0 1-1.429 1.429h-.142a1.43 1.43 0 0 1-1.429-1.429v-7.142a1.43 1.43 0 0 1 1.429-1.429zm5.526-2h.142a1.43 1.43 0 0 1 1.429 1.429v9.142a1.43 1.43 0 0 1-1.429 1.429h-.143a1.43 1.43 0 0 1-1.429-1.429v-9.142a1.43 1.43 0 0 1 1.429-1.429zm-5.526-17.7h.142a1.43 1.43 0 0 1 1.429 1.429v13.843a1.43 1.43 0 0 1-1.429 1.429h-.142a1.43 1.43 0 0 1-1.429-1.429V81.774a1.43 1.43 0 0 1 1.429-1.429zm-5.527 9.7h.142a1.43 1.43 0 0 1 1.429 1.429v17.143a1.43 1.43 0 0 1-1.429 1.429H49.3a1.43 1.43 0 0 1-1.429-1.429V91.474a1.43 1.43 0 0 1 1.429-1.429zm-5.526 5h.142a1.43 1.43 0 0 1 1.429 1.429v12.143a1.43 1.43 0 0 1-1.429 1.429h-.142a1.43 1.43 0 0 1-1.429-1.429V96.474a1.43 1.43 0 0 1 1.429-1.429zm16.574-15.697h.142a1.43 1.43 0 0 1 1.429 1.429v13.142a1.43 1.43 0 0 1-1.429 1.429h-.142a1.43 1.43 0 0 1-1.429-1.429V80.777a1.43 1.43 0 0 1 1.429-1.429zm-5.521-7.003h.142a1.43 1.43 0 0 1 1.429 1.429v2.143a1.43 1.43 0 0 1-1.429 1.429h-.142a1.43 1.43 0 0 1-1.429-1.429v-2.142a1.43 1.43 0 0 1 1.429-1.429zM49.3 74.348h.142a1.43 1.43 0 0 1 1.429 1.429v9.84a1.43 1.43 0 0 1-1.429 1.429H49.3a1.43 1.43 0 0 1-1.429-1.429v-9.84a1.43 1.43 0 0 1 1.429-1.429zm-5.526 13.489h.142a1.43 1.43 0 0 1 1.429 1.429v1.35a1.43 1.43 0 0 1-1.429 1.429h-.142a1.43 1.43 0 0 1-1.429-1.429v-1.35a1.43 1.43 0 0 1 1.429-1.429zm0-18h.142a1.43 1.43 0 0 1 1.429 1.429v12.142a1.43 1.43 0 0 1-1.429 1.429h-.142a1.43 1.43 0 0 1-1.429-1.429V71.266a1.43 1.43 0 0 1 1.429-1.429zm13.084-21.094c-.516.44-.61 1.349-.264 2.058 1.319 2.712 2.108 5.855 2.286 9.119l.039 2.428v12.571a1.43 1.43 0 0 0 1.429 1.429h.142a1.43 1.43 0 0 0 1.429-1.429V61.348c-.227-5.286-1.193-9.006-2.83-12.208-.448-.877-1.481-1.037-2.231-.398zm-20.773-7.877v.203a1.43 1.43 0 0 0 1.429 1.429h7.831c3.754.447 5.983 1.622 7.892 3.516.56.556 1.452.638 2.052.126l.082-.07c.6-.512.68-1.422.128-1.986-2.521-2.577-5.553-4.14-8.729-4.503-.784-.09-1.428-.082-1.431-.082h-7.887a1.37 1.37 0 0 0-1.368 1.368zm13.233 7.99c-.379.556-.197 1.423.331 2.008 2.086 2.313 3.406 5.537 3.691 9.025l.058 1.459v1h.001v5.568a1.43 1.43 0 0 0 1.429 1.429h.142a1.43 1.43 0 0 0 1.429-1.429v-6.568h0v-.001h0v-.001h0v-.001c-.363-5.803-2.07-9.859-4.801-12.741-.669-.706-1.73-.553-2.279.251zM36.09 45.819v.142a1.43 1.43 0 0 0 1.429 1.429h3.397l2.851.12a9.04 9.04 0 0 1 1.16.273c.669.205 1.503-.017 1.897-.596l.015-.022c.537-.787.287-1.791-.612-2.105a11.95 11.95 0 0 0-2.453-.579c-.782-.099-1.425-.092-1.425-.092h-4.831a1.43 1.43 0 0 0-1.429 1.429zm12.011 11.158c-.505.367-.722 1.147-.563 1.764.1.388.178.783.233 1.183.108.781.101 1.872.101 2.424v7.571a1.43 1.43 0 0 0 1.429 1.429h.142a1.43 1.43 0 0 0 1.429-1.429v-8.571c-.155-2.193-.301-2.95-.509-3.685-.295-1.042-1.385-1.325-2.262-.687zM36.09 50.711v.143a1.43 1.43 0 0 0 1.429 1.429l4.115.161c1.101.249 2.143.782 3.052 1.561.598.513 1.514.645 2.152.18.706-.514.782-1.578.044-2.249-1.507-1.369-3.317-2.25-5.235-2.545-.779-.12-1.426-.109-1.43-.109h-2.699a1.43 1.43 0 0 0-1.429 1.429z"/><path d="M36.09 55.602v.143a1.43 1.43 0 0 0 1.429 1.429c.315 0 1.231-.022 1.974.232 1.209.414 2.17 1.349 2.602 2.531.27.737.249 1.847.249 2.4h.001v3.071a1.43 1.43 0 0 0 1.429 1.429h.142a1.43 1.43 0 0 0 1.429-1.429v-4.071c-.814-4.697-3.744-7.164-7.255-7.164h-.571a1.43 1.43 0 0 0-1.429 1.429zM11.053 28.429v11.327a1.43 1.43 0 0 1-1.429 1.429c-.698-.091-1.189-.731-1.098-1.429v-6.327A1.43 1.43 0 0 0 7.097 32h-.143a1.43 1.43 0 0 0-1.429 1.429v1.846a1.43 1.43 0 0 1-1.429 1.429c-.335-.044-.639-.219-.845-.487s-.297-.607-.253-.942v-3.846A1.43 1.43 0 0 0 1.571 30h-.142A1.43 1.43 0 0 0 0 31.429V45h19.58v-9.571A1.43 1.43 0 0 0 18.151 34h-.143a1.43 1.43 0 0 0-1.429 1.429v2.642A1.43 1.43 0 0 1 15.15 39.5c-.335-.044-.639-.219-.845-.487s-.297-.607-.253-.942v-9.643A1.43 1.43 0 0 0 12.624 27h-.142a1.43 1.43 0 0 0-1.429 1.429zM18.008 12h.142a1.43 1.43 0 0 1 1.429 1.429v15.142A1.43 1.43 0 0 1 18.15 30h-.142a1.43 1.43 0 0 1-1.429-1.429V13.429A1.43 1.43 0 0 1 18.008 12zM6.955 14h.143a1.43 1.43 0 0 1 1.429 1.429v11.642a1.43 1.43 0 0 1-1.43 1.429h-.143a1.43 1.43 0 0 1-1.429-1.429V15.429A1.43 1.43 0 0 1 6.955 14zm-5.526 7h.143A1.43 1.43 0 0 1 3 22.429v2.142A1.43 1.43 0 0 1 1.571 26h-.143A1.43 1.43 0 0 1 0 24.571v-2.143A1.43 1.43 0 0 1 1.429 21zM18.008 3.5h.142a1.43 1.43 0 0 1 1.429 1.429v3.643A1.43 1.43 0 0 1 18.15 10h-.142a1.43 1.43 0 0 1-1.429-1.429V4.929A1.43 1.43 0 0 1 18.008 3.5zM12.482 0h.143a1.43 1.43 0 0 1 1.429 1.429v20.642a1.43 1.43 0 0 1-1.429 1.429h-.143a1.43 1.43 0 0 1-1.429-1.429V1.429A1.43 1.43 0 0 1 12.482 0zM6.955 8h.143a1.43 1.43 0 0 1 1.429 1.429v1.143A1.43 1.43 0 0 1 7.097 12h-.143a1.43 1.43 0 0 1-1.429-1.429V9.429A1.43 1.43 0 0 1 6.955 8z"/><path d="M1.429 4h.143A1.43 1.43 0 0 1 3 5.429v12.142A1.43 1.43 0 0 1 1.571 19h-.143A1.43 1.43 0 0 1 0 17.571V5.429A1.43 1.43 0 0 1 1.429 4zM0 44.281v64.144a1.6 1.6 0 0 0 1.588 1.596l16.404.006c.877-.006 1.587-.725 1.587-1.602V64.901c0-.877.183-1.896.438-2.257l.521-.686.604-.703.686-.719.769-.761.852-.695.934-.628 1.017-.562 1.091-.521 1.158-.372 1.224-.223 1.29-.074.552.012 1.141.073.234.029.569.092.172.034.774.19.024.006c.014 0 .035.011.048.015.386.116.698-.19.698-.686V41.088c0-.877-.642-1.586-1.434-1.587h-.001l-1.383.05h-.001l-.003.001-1.305.148-.007.002-1.227.246-.011.003-1.15.344-.013.005-1.073.441-1.012.544-.017.01-.921.633-.019.014-.845.728-.01.008-.018.017-1.137 1.108-.067.069-.017.018-1.068 1.175-.047.054-.017.021-.003.004-.992 1.239-.04.053-.016.022-.913 1.298-.032.047-.001.001V44.28a1.59 1.59 0 0 0-1.587-1.587H1.587A1.59 1.59 0 0 0 0 44.28z"/></svg>