<?xml version="1.0" encoding="UTF-8" standalone="no"?>
<!-- Created with Inkscape (http://www.inkscape.org/) -->

<svg
   width="152.1642mm"
   height="151.88069mm"
   viewBox="0 0 152.1642 151.88069"
   version="1.1"
   id="svg5"
   inkscape:version="1.1 (c68e22c387, 2021-05-23)"
   sodipodi:docname="logo-monocrome-border.svg"
   inkscape:export-filename="C:\Users\reneh\Desktop\Logo White.png"
   inkscape:export-xdpi="230.81151"
   inkscape:export-ydpi="230.81151"
   xmlns:inkscape="http://www.inkscape.org/namespaces/inkscape"
   xmlns:sodipodi="http://sodipodi.sourceforge.net/DTD/sodipodi-0.dtd"
   xmlns="http://www.w3.org/2000/svg"
   xmlns:svg="http://www.w3.org/2000/svg">
  <sodipodi:namedview
     id="namedview7"
     pagecolor="#21006f"
     bordercolor="#ffffff"
     borderopacity="1"
     inkscape:pageshadow="0"
     inkscape:pageopacity="0"
     inkscape:pagecheckerboard="1"
     inkscape:document-units="px"
     showgrid="false"
     showborder="true"
     inkscape:showpageshadow="false"
     inkscape:zoom="0.70710678"
     inkscape:cx="184.55487"
     inkscape:cy="347.18943"
     inkscape:window-width="1920"
     inkscape:window-height="1009"
     inkscape:window-x="-8"
     inkscape:window-y="-8"
     inkscape:window-maximized="1"
     inkscape:current-layer="svg5"
     inkscape:snap-smooth-nodes="true"
     inkscape:snap-intersection-paths="true"
     inkscape:object-paths="true"
     showguides="false"
     inkscape:guide-bbox="true"
     inkscape:snap-midpoints="true"
     inkscape:snap-others="true"
     inkscape:object-nodes="true"
     inkscape:snap-nodes="false"
     fit-margin-top="10"
     fit-margin-left="10"
     fit-margin-right="10"
     fit-margin-bottom="10"
     borderlayer="false"
     lock-margins="true"
     inkscape:snap-bbox="true"
     inkscape:snap-bbox-edge-midpoints="true"
     inkscape:snap-bbox-midpoints="true">
    <sodipodi:guide
       position="47.820277,22.823118"
       orientation="0,-1"
       id="guide1188" />
    <sodipodi:guide
       position="46.232765,28.065331"
       orientation="1,0"
       id="guide1190" />
    <sodipodi:guide
       position="108.15689,27.270206"
       orientation="1,0"
       id="guide1192" />
    <sodipodi:guide
       position="58.785282,132.84423"
       orientation="0,-1"
       id="guide1194" />
    <sodipodi:guide
       position="76.082107,76.053644"
       orientation="1,0"
       id="guide1196" />
    <sodipodi:guide
       position="76.082109,76.053641"
       orientation="0,-1"
       id="guide1198" />
  </sodipodi:namedview>
  <defs
     id="defs2">
    <inkscape:path-effect
       effect="fillet_chamfer"
       id="path-effect1443"
       is_visible="true"
       lpeversion="1"
       satellites_param="F,0,0,1,0,1.3680859,0,1 @ F,0,0,1,0,1.42875,0,1 @ F,0,0,1,0,1.42875,0,1 @ F,0,0,1,0,1.42875,0,1 @ F,0,0,1,0,1.42875,0,1 @ F,0,0,1,0,1.42875,0,1 @ F,0,0,1,0,1.42875,0,1 @ F,0,0,1,0,1.42875,0,1 @ F,0,0,1,0,1.42875,0,1 @ F,0,0,1,0,0,0,1"
       unit="px"
       method="auto"
       mode="F"
       radius="5.4"
       chamfer_steps="1"
       flexible="false"
       use_knot_distance="true"
       apply_no_radius="true"
       apply_with_radius="true"
       only_selected="false"
       hide_knots="false" />
    <inkscape:path-effect
       effect="fillet_chamfer"
       id="path-effect1427"
       is_visible="true"
       lpeversion="1"
       satellites_param="F,0,0,1,0,1.42875,0,1 @ F,0,0,1,0,1.42875,0,1 @ F,0,0,1,0,1.42875,0,1 @ F,0,0,1,0,1.42875,0,1 @ F,0,0,1,0,1.2672024,0,1 @ F,0,0,1,0,1.7245151,0,1 @ F,0,0,1,0,1.42875,0,1 @ F,0,0,1,0,1.42875,0,1 @ F,0,0,1,0,1.42875,0,1 @ F,0,0,1,0,0,0,1"
       unit="px"
       method="auto"
       mode="F"
       radius="5.4"
       chamfer_steps="1"
       flexible="false"
       use_knot_distance="true"
       apply_no_radius="true"
       apply_with_radius="true"
       only_selected="false"
       hide_knots="false" />
    <inkscape:path-effect
       effect="fillet_chamfer"
       id="path-effect1145"
       is_visible="true"
       lpeversion="1"
       satellites_param="F,0,0,1,0,1.42875,0,1 @ F,0,0,1,0,1.42875,0,1 @ F,0,0,1,0,1.42875,0,1 @ F,0,0,1,0,1.42875,0,1 @ F,0,0,1,0,1.42875,0,1 @ F,0,0,1,0,1.8085666,0,1 @ F,0,0,1,0,1.42875,0,1 @ F,0,0,1,0,1.42875,0,1 @ F,0,0,1,0,0.013891936,0,1"
       unit="px"
       method="auto"
       mode="F"
       radius="5.4"
       chamfer_steps="1"
       flexible="false"
       use_knot_distance="true"
       apply_no_radius="true"
       apply_with_radius="true"
       only_selected="false"
       hide_knots="false" />
    <inkscape:path-effect
       effect="fillet_chamfer"
       id="path-effect6528"
       is_visible="true"
       lpeversion="1"
       satellites_param="F,0,0,1,0,1.42875,0,1 @ F,0,0,1,0,1.42875,0,1 @ F,0,0,1,0,1.42875,0,1 @ F,0,0,1,0,1.42875,0,1"
       unit="px"
       method="auto"
       mode="F"
       radius="5.4"
       chamfer_steps="1"
       flexible="false"
       use_knot_distance="true"
       apply_no_radius="true"
       apply_with_radius="true"
       only_selected="false"
       hide_knots="false" />
    <inkscape:path-effect
       effect="fillet_chamfer"
       id="path-effect6524"
       is_visible="true"
       lpeversion="1"
       satellites_param="F,0,0,1,0,1.42875,0,1 @ F,0,0,1,0,1.42875,0,1 @ F,0,0,1,0,1.42875,0,1 @ F,0,0,1,0,1.42875,0,1"
       unit="px"
       method="auto"
       mode="F"
       radius="5.4"
       chamfer_steps="1"
       flexible="false"
       use_knot_distance="true"
       apply_no_radius="true"
       apply_with_radius="true"
       only_selected="false"
       hide_knots="false" />
    <inkscape:path-effect
       effect="fillet_chamfer"
       id="path-effect6520"
       is_visible="true"
       lpeversion="1"
       satellites_param="F,0,0,1,0,1.42875,0,1 @ F,0,0,1,0,1.42875,0,1 @ F,0,0,1,0,1.42875,0,1 @ F,0,0,1,0,1.42875,0,1"
       unit="px"
       method="auto"
       mode="F"
       radius="5.4"
       chamfer_steps="1"
       flexible="false"
       use_knot_distance="true"
       apply_no_radius="true"
       apply_with_radius="true"
       only_selected="false"
       hide_knots="false" />
    <inkscape:path-effect
       effect="fillet_chamfer"
       id="path-effect6516"
       is_visible="true"
       lpeversion="1"
       satellites_param="F,0,0,1,0,1.42875,0,1 @ F,0,0,1,0,1.42875,0,1 @ F,0,0,1,0,1.42875,0,1 @ F,0,0,1,0,1.42875,0,1"
       unit="px"
       method="auto"
       mode="F"
       radius="5.4"
       chamfer_steps="1"
       flexible="false"
       use_knot_distance="true"
       apply_no_radius="true"
       apply_with_radius="true"
       only_selected="false"
       hide_knots="false" />
    <inkscape:path-effect
       effect="fillet_chamfer"
       id="path-effect6512"
       is_visible="true"
       lpeversion="1"
       satellites_param="F,0,0,1,0,1.42875,0,1 @ F,0,0,1,0,1.42875,0,1 @ F,0,0,1,0,1.42875,0,1 @ F,0,0,1,0,1.42875,0,1"
       unit="px"
       method="auto"
       mode="F"
       radius="5.4"
       chamfer_steps="1"
       flexible="false"
       use_knot_distance="true"
       apply_no_radius="true"
       apply_with_radius="true"
       only_selected="false"
       hide_knots="false" />
    <inkscape:path-effect
       effect="fillet_chamfer"
       id="path-effect6508"
       is_visible="true"
       lpeversion="1"
       satellites_param="F,0,0,1,0,1.42875,0,1 @ F,0,0,1,0,1.42875,0,1 @ F,0,0,1,0,1.42875,0,1 @ F,0,0,1,0,1.42875,0,1"
       unit="px"
       method="auto"
       mode="F"
       radius="5.4"
       chamfer_steps="1"
       flexible="false"
       use_knot_distance="true"
       apply_no_radius="true"
       apply_with_radius="true"
       only_selected="false"
       hide_knots="false" />
    <inkscape:path-effect
       effect="fillet_chamfer"
       id="path-effect6504"
       is_visible="true"
       lpeversion="1"
       satellites_param="F,0,0,1,0,1.42875,0,1 @ F,0,0,1,0,1.42875,0,1 @ F,0,0,1,0,1.42875,0,1 @ F,0,0,1,0,1.42875,0,1"
       unit="px"
       method="auto"
       mode="F"
       radius="5.4"
       chamfer_steps="1"
       flexible="false"
       use_knot_distance="true"
       apply_no_radius="true"
       apply_with_radius="true"
       only_selected="false"
       hide_knots="false" />
    <inkscape:path-effect
       effect="fillet_chamfer"
       id="path-effect5556"
       is_visible="true"
       lpeversion="1"
       satellites_param="F,0,0,1,0,1.7841231,0,1 @ F,0,0,1,0,1.42875,0,1 @ F,0,0,1,0,1.42875,0,1 @ F,0,0,1,0,1.42875,0,1 @ F,0,0,1,0,1.42875,0,1 @ F,0,0,1,0,1.42875,0,1 @ F,0,0,1,0,1.42875,0,1 @ F,0,0,1,0,1.42875,0,1"
       unit="px"
       method="auto"
       mode="F"
       radius="5.4"
       chamfer_steps="1"
       flexible="false"
       use_knot_distance="true"
       apply_no_radius="true"
       apply_with_radius="true"
       only_selected="false"
       hide_knots="false" />
    <inkscape:path-effect
       effect="fillet_chamfer"
       id="path-effect5264"
       is_visible="true"
       lpeversion="1"
       satellites_param="F,0,0,1,0,1.7632341,0,1 @ F,0,0,1,0,1.42875,0,1 @ F,0,0,1,0,1.42875,0,1 @ F,0,0,1,0,1.42875,0,1 @ F,0,0,1,0,1.42875,0,1 @ F,0,0,1,0,1.42875,0,1 @ F,0,0,1,0,1.42875,0,1 @ F,0,0,1,0,1.42875,0,1 @ F,0,0,1,0,1.42875,0,1 @ F,0,0,1,0,1.42875,0,1 @ F,0,0,1,0,1.42875,0,1 @ F,0,0,1,0,1.42875,0,1 @ F,0,0,1,0,1.42875,0,1 @ F,0,0,1,0,1.42875,0,1 @ F,0,0,1,0,1.42875,0,1 @ F,0,0,1,0,1.42875,0,1"
       unit="px"
       method="auto"
       mode="F"
       radius="5.4"
       chamfer_steps="1"
       flexible="false"
       use_knot_distance="true"
       apply_no_radius="true"
       apply_with_radius="true"
       only_selected="false"
       hide_knots="false" />
    <inkscape:path-effect
       effect="fillet_chamfer"
       id="path-effect4934"
       is_visible="true"
       lpeversion="1"
       satellites_param="F,0,0,1,0,1.9634624,0,1 @ F,0,0,1,0,1.1546574,0,1 @ F,0,0,1,0,1.42875,0,1 @ F,0,0,1,0,1.42875,0,1 @ F,0,0,1,0,1.42875,0,1 @ F,0,0,1,0,1.42875,0,1 @ F,0,0,1,0,1.42875,0,1 @ F,0,0,1,0,1.42875,0,1"
       unit="px"
       method="auto"
       mode="F"
       radius="5.4"
       chamfer_steps="1"
       flexible="false"
       use_knot_distance="true"
       apply_no_radius="true"
       apply_with_radius="true"
       only_selected="false"
       hide_knots="false" />
    <inkscape:path-effect
       effect="fillet_chamfer"
       id="path-effect4718"
       is_visible="true"
       lpeversion="1"
       satellites_param="F,0,0,1,0,1.42875,0,1 @ F,0,0,1,0,1.42875,0,1 @ F,0,0,1,0,1.42875,0,1 @ F,0,0,1,0,1.42875,0,1 @ F,0,0,1,0,1.42875,0,1 @ F,0,0,1,0,1.42875,0,1 @ F,0,0,1,0,1.42875,0,1 @ F,0,0,1,0,1.42875,0,1 @ F,0,0,1,0,1.42875,0,1 @ F,0,0,1,0,1.42875,0,1 @ F,0,0,1,0,1.42875,0,1 @ F,0,0,1,0,0,0,1"
       unit="px"
       method="auto"
       mode="F"
       radius="5.4"
       chamfer_steps="1"
       flexible="false"
       use_knot_distance="true"
       apply_no_radius="true"
       apply_with_radius="true"
       only_selected="false"
       hide_knots="false" />
    <inkscape:path-effect
       effect="fillet_chamfer"
       id="path-effect4691"
       is_visible="true"
       lpeversion="1"
       satellites_param="F,0,0,1,0,1.42875,0,1 @ F,0,0,1,0,1.42875,0,1 @ F,0,0,1,0,1.42875,0,1 @ F,0,0,1,0,1.42875,0,1 @ F,0,0,1,0,1.42875,0,1 @ F,0,0,1,0,1.42875,0,1 @ F,0,0,1,0,1.42875,0,1 @ F,0,0,1,0,1.42875,0,1 @ F,0,0,1,0,1.42875,0,1 @ F,0,0,1,0,9.3274632e-05,0,1 @ F,0,0,1,0,1.42875,0,1 @ F,0,0,1,0,1.42875,0,1 @ F,0,0,1,0,1.42875,0,1 @ F,0,0,1,0,1.42875,0,1 @ F,0,0,1,0,1.42875,0,1 @ F,0,0,1,0,1.42875,0,1 @ F,0,0,1,0,1.42875,0,1 @ F,0,0,1,0,0,0,1 @ F,0,0,1,0,1.42875,0,1 @ F,0,0,1,0,1.42875,0,1 @ F,0,0,1,0,1.42875,0,1 @ F,0,0,1,0,1.42875,0,1 @ F,0,0,1,0,1.42875,0,1"
       unit="px"
       method="auto"
       mode="F"
       radius="5.4"
       chamfer_steps="1"
       flexible="false"
       use_knot_distance="true"
       apply_no_radius="true"
       apply_with_radius="true"
       only_selected="false"
       hide_knots="false" />
    <inkscape:path-effect
       effect="fillet_chamfer"
       id="path-effect338"
       is_visible="true"
       lpeversion="1"
       satellites_param="F,0,0,1,0,1.42875,0,1 @ F,0,0,1,0,1.42875,0,1 @ F,0,0,1,0,1.42875,0,1 @ F,0,0,1,0,1.42875,0,1"
       unit="px"
       method="auto"
       mode="F"
       radius="5.4"
       chamfer_steps="1"
       flexible="false"
       use_knot_distance="true"
       apply_no_radius="true"
       apply_with_radius="true"
       only_selected="false"
       hide_knots="false" />
    <inkscape:path-effect
       effect="fillet_chamfer"
       id="path-effect26392"
       is_visible="true"
       lpeversion="1"
       satellites_param="F,0,0,1,0,1.42875,0,1 @ F,0,0,1,0,1.42875,0,1 @ F,0,0,1,0,1.42875,0,1 @ F,0,0,1,0,1.42875,0,1"
       unit="px"
       method="auto"
       mode="F"
       radius="5.4"
       chamfer_steps="1"
       flexible="false"
       use_knot_distance="true"
       apply_no_radius="true"
       apply_with_radius="true"
       only_selected="false"
       hide_knots="false" />
    <inkscape:path-effect
       effect="fillet_chamfer"
       id="path-effect26388"
       is_visible="true"
       lpeversion="1"
       satellites_param="F,0,0,1,0,1.42875,0,1 @ F,0,0,1,0,1.42875,0,1 @ F,0,0,1,0,1.42875,0,1 @ F,0,0,1,0,1.42875,0,1"
       unit="px"
       method="auto"
       mode="F"
       radius="5.4"
       chamfer_steps="1"
       flexible="false"
       use_knot_distance="true"
       apply_no_radius="true"
       apply_with_radius="true"
       only_selected="false"
       hide_knots="false" />
    <inkscape:path-effect
       effect="fillet_chamfer"
       id="path-effect26384"
       is_visible="true"
       lpeversion="1"
       satellites_param="F,0,0,1,0,1.42875,0,1 @ F,0,0,1,0,1.42875,0,1 @ F,0,0,1,0,1.42875,0,1 @ F,0,0,1,0,1.42875,0,1"
       unit="px"
       method="auto"
       mode="F"
       radius="5.4"
       chamfer_steps="1"
       flexible="false"
       use_knot_distance="true"
       apply_no_radius="true"
       apply_with_radius="true"
       only_selected="false"
       hide_knots="false" />
    <inkscape:path-effect
       effect="fillet_chamfer"
       id="path-effect26380"
       is_visible="true"
       lpeversion="1"
       satellites_param="F,0,0,1,0,1.42875,0,1 @ F,0,0,1,0,1.42875,0,1 @ F,0,0,1,0,1.42875,0,1 @ F,0,0,1,0,1.42875,0,1"
       unit="px"
       method="auto"
       mode="F"
       radius="5.4"
       chamfer_steps="1"
       flexible="false"
       use_knot_distance="true"
       apply_no_radius="true"
       apply_with_radius="true"
       only_selected="false"
       hide_knots="false" />
    <inkscape:path-effect
       effect="fillet_chamfer"
       id="path-effect26372"
       is_visible="true"
       lpeversion="1"
       satellites_param="F,0,0,1,0,1.42875,0,1 @ F,0,0,1,0,1.42875,0,1 @ F,0,0,1,0,1.42875,0,1 @ F,0,0,1,0,1.42875,0,1"
       unit="px"
       method="auto"
       mode="F"
       radius="5.4"
       chamfer_steps="1"
       flexible="false"
       use_knot_distance="true"
       apply_no_radius="true"
       apply_with_radius="true"
       only_selected="false"
       hide_knots="false" />
    <inkscape:path-effect
       effect="fillet_chamfer"
       id="path-effect26368"
       is_visible="true"
       lpeversion="1"
       satellites_param="F,0,0,1,0,1.42875,0,1 @ F,0,0,1,0,1.42875,0,1 @ F,0,0,1,0,1.42875,0,1 @ F,0,0,1,0,1.42875,0,1"
       unit="px"
       method="auto"
       mode="F"
       radius="5.4"
       chamfer_steps="1"
       flexible="false"
       use_knot_distance="true"
       apply_no_radius="true"
       apply_with_radius="true"
       only_selected="false"
       hide_knots="false" />
    <inkscape:path-effect
       effect="fillet_chamfer"
       id="path-effect26364"
       is_visible="true"
       lpeversion="1"
       satellites_param="F,0,0,1,0,1.42875,0,1 @ F,0,0,1,0,1.42875,0,1 @ F,0,0,1,0,1.42875,0,1 @ F,0,0,1,0,1.42875,0,1"
       unit="px"
       method="auto"
       mode="F"
       radius="5.4"
       chamfer_steps="1"
       flexible="false"
       use_knot_distance="true"
       apply_no_radius="true"
       apply_with_radius="true"
       only_selected="false"
       hide_knots="false" />
    <inkscape:path-effect
       effect="fillet_chamfer"
       id="path-effect26360"
       is_visible="true"
       lpeversion="1"
       satellites_param="F,0,0,1,0,1.42875,0,1 @ F,0,0,1,0,1.42875,0,1 @ F,0,0,1,0,1.42875,0,1 @ F,0,0,1,0,1.42875,0,1"
       unit="px"
       method="auto"
       mode="F"
       radius="5.4"
       chamfer_steps="1"
       flexible="false"
       use_knot_distance="true"
       apply_no_radius="true"
       apply_with_radius="true"
       only_selected="false"
       hide_knots="false" />
    <inkscape:path-effect
       effect="fillet_chamfer"
       id="path-effect26356"
       is_visible="true"
       lpeversion="1"
       satellites_param="F,0,0,1,0,1.42875,0,1 @ F,0,0,1,0,1.42875,0,1 @ F,0,0,1,0,1.42875,0,1 @ F,0,0,1,0,1.42875,0,1"
       unit="px"
       method="auto"
       mode="F"
       radius="5.4"
       chamfer_steps="1"
       flexible="false"
       use_knot_distance="true"
       apply_no_radius="true"
       apply_with_radius="true"
       only_selected="false"
       hide_knots="false" />
    <inkscape:path-effect
       effect="fillet_chamfer"
       id="path-effect31126"
       is_visible="true"
       lpeversion="1"
       satellites_param="F,0,0,1,0,1.5875,0,1 @ F,0,0,1,0,1.5875,0,1 @ F,0,0,1,0,1.5875,0,1 @ F,0,0,1,0,1.5875,0,1 @ F,0,0,1,0,1.5875,0,1 @ F,0,0,1,0,1.5875,0,1 @ F,0,0,1,0,1.5875,0,1 @ F,0,0,1,0,1.5875,0,1 @ F,0,0,1,0,1.5875,0,1 @ F,0,0,1,0,1.5875,0,1 @ F,0,0,1,0,1.5875,0,1 @ F,0,0,1,0,1.5875,0,1 @ F,0,0,1,0,1.5875,0,1 @ F,0,0,1,0,1.5875,0,1 @ F,0,0,1,0,1.5875,0,1 @ F,0,0,1,0,1.5875,0,1 @ F,0,0,1,0,1.5875,0,1 @ F,0,0,1,0,1.5875,0,1 @ F,0,0,1,0,1.5875,0,1 @ F,0,0,1,0,1.5875,0,1 @ F,0,0,1,0,1.5875,0,1 @ F,0,0,1,0,1.5875,0,1 @ F,0,0,1,0,0.025097858,0,1 @ F,0,0,1,0,0.025097858,0,1 @ F,0,0,1,0,0.89711184,0,1 @ F,0,0,1,0,1.5875,0,1 @ F,0,0,1,0,1.5875,0,1 @ F,0,0,1,0,1.5875,0,1 @ F,0,0,1,0,1.5875,0,1 @ F,0,0,1,0,1.5875,0,1 @ F,0,0,1,0,1.5875,0,1 @ F,0,0,1,0,1.5875,0,1 @ F,0,0,1,0,1.5875,0,1 @ F,0,0,1,0,1.5875,0,1 @ F,0,0,1,0,1.5875,0,1 @ F,0,0,1,0,1.5875,0,1 @ F,0,0,1,0,1.5875,0,1 @ F,0,0,1,0,1.5875,0,1 @ F,0,0,1,0,1.5875,0,1 @ F,0,0,1,0,1.5875,0,1 @ F,0,0,1,0,1.5875,0,1 @ F,0,0,1,0,1.5875,0,1 @ F,0,0,1,0,1.5875,0,1 @ F,0,0,1,0,1.5875,0,1 @ F,0,0,1,0,1.5875,0,1 @ F,0,0,1,0,1.5875,0,1 @ F,0,0,1,0,1.5875,0,1 @ F,0,0,1,0,1.5875,0,1 @ F,0,0,1,0,1.5875,0,1 @ F,0,0,1,0,1.5875,0,1 @ F,0,0,1,0,1.5875,0,1 @ F,0,0,1,0,1.5875,0,1 @ F,0,0,1,0,1.5875,0,1 @ F,0,0,1,0,1.5875,0,1 @ F,0,0,1,0,1.5875,0,1 @ F,0,0,1,0,1.5875,0,1 @ F,0,0,1,0,1.5875,0,1 @ F,0,0,1,0,1.5875,0,1 @ F,0,0,1,0,1.5875,0,1 @ F,0,0,1,0,1.5875,0,1"
       unit="px"
       method="auto"
       mode="F"
       radius="6"
       chamfer_steps="1"
       flexible="false"
       use_knot_distance="true"
       apply_no_radius="true"
       apply_with_radius="true"
       only_selected="false"
       hide_knots="false" />
  </defs>
  <ellipse
     style="fill:none;fill-rule:evenodd;stroke:#450eff;stroke-width:2.38125;stroke-linecap:round;stroke-linejoin:round;stroke-miterlimit:4;stroke-dasharray:14.2875, 14.2875;stroke-dashoffset:0;stroke-opacity:1"
     id="path912"
     cx="76.082123"
     cy="75.827164"
     rx="64.891441"
     ry="64.891418"
     inkscape:label="border" />
  <path
     id="rect22996"
     style="display:inline;fill:#ffffff;stroke-width:1.18226"
     inkscape:label="logo"
     d="m 58.714247,19.036565 a 1.42875,1.42875 0 0 0 -1.428853,1.428853 V 41.10757 a 1.42875,1.42875 0 0 0 1.428853,1.428853 h 0.142111 A 1.42875,1.42875 0 0 0 60.285211,41.10757 V 20.465418 a 1.42875,1.42875 0 0 0 -1.428853,-1.428853 z m 5.526278,3.500044 a 1.42875,1.42875 0 0 0 -1.428853,1.428854 v 3.642155 a 1.42875,1.42875 0 0 0 1.428853,1.428853 h 0.142627 a 1.42875,1.42875 0 0 0 1.428853,-1.428853 v -3.642155 a 1.42875,1.42875 0 0 0 -1.428853,-1.428854 z m -16.57935,0.499712 a 1.42875,1.42875 0 0 0 -1.428853,1.428853 v 12.142413 a 1.42875,1.42875 0 0 0 1.428853,1.428853 h 0.14211 a 1.42875,1.42875 0 0 0 1.428854,-1.428853 V 24.465174 a 1.42875,1.42875 0 0 0 -1.428854,-1.428853 z m 5.52576,4.000273 a 1.42875,1.42875 0 0 0 -1.428854,1.428853 v 1.142048 a 1.42875,1.42875 0 0 0 1.428854,1.428853 h 0.142629 a 1.42875,1.42875 0 0 0 1.428853,-1.428853 v -1.142048 a 1.42875,1.42875 0 0 0 -1.428853,-1.428853 z m 11.05359,3.999754 a 1.42875,1.42875 0 0 0 -1.428853,1.428853 v 15.142748 a 1.42875,1.42875 0 0 0 1.428853,1.428334 h 0.142627 a 1.42875,1.42875 0 0 0 1.428853,-1.428334 V 32.465201 a 1.42875,1.42875 0 0 0 -1.428853,-1.428853 z m -11.05359,1.99988 a 1.42875,1.42875 0 0 0 -1.428854,1.428853 V 46.10778 a 1.42875,1.42875 0 0 0 1.428854,1.428856 h 0.142629 A 1.42875,1.42875 0 0 0 54.758417,46.10778 V 34.465081 a 1.42875,1.42875 0 0 0 -1.428853,-1.428853 z m -5.52576,7.000089 a 1.42875,1.42875 0 0 0 -1.428853,1.428853 v 2.142506 a 1.42875,1.42875 0 0 0 1.428853,1.428853 h 0.14211 a 1.42875,1.42875 0 0 0 1.428854,-1.428853 V 41.46517 a 1.42875,1.42875 0 0 0 -1.428854,-1.428853 z m 11.053072,6.00015 a 1.42875,1.42875 0 0 0 -1.428853,1.428853 v 11.326958 a 1.42875,1.42875 0 0 1 -1.428853,1.428853 1.2742508,1.2742508 0 0 1 -1.098124,-1.428853 v -6.326746 a 1.42875,1.42875 0 0 0 -1.428853,-1.428853 h -0.142629 a 1.42875,1.42875 0 0 0 -1.428854,1.428853 v 1.845366 a 1.42875,1.42875 0 0 1 -1.428853,1.428853 1.2738055,1.2738055 0 0 1 -1.097089,-1.428853 v -3.845759 a 1.42875,1.42875 0 0 0 -1.428854,-1.428856 h -0.14211 a 1.42875,1.42875 0 0 0 -1.428853,1.428856 v 12.852446 0.718817 c 7.94e-4,21.996861 5.29e-4,41.367828 5.29e-4,63.425588 0,0.87675 0.710737,1.59162 1.5875,1.59577 3.307395,0.0157 11.071307,0.0449 16.404167,0.006 0.876623,-0.006 1.586984,-0.72522 1.586984,-1.60197 V 83.93802 c 0,-0.87675 0.182952,-1.896351 0.438216,-2.257227 l 0.520899,-0.686263 0.603581,-0.7028 0.686263,-0.719336 0.768945,-0.760677 0.851628,-0.694531 0.934309,-0.628385 1.016993,-0.56224 1.091406,-0.520898 1.157552,-0.372071 1.223698,-0.223242 1.289844,-0.07441 0.552421,0.01188 1.141015,0.07286 0.233577,0.02894 0.569476,0.09199 0.172082,0.03359 0.774113,0.190169 0.02376,0.0057 c 0.01384,0 0.03478,0.01101 0.04806,0.01498 0.38572,0.115774 0.697632,-0.19028 0.697632,-0.685747 -3e-6,-2.850748 -5e-6,-11.72871 0,-15.374774 0,-0.876742 -0.6418,-1.585741 -1.433505,-1.5875 h -5.29e-4 l -1.383379,0.04961 h -0.0011 l -0.0031,5.3e-4 -1.30483,0.147793 -0.0067,0.0016 -1.226799,0.24598 -0.01085,0.0026 -1.1498,0.343649 -0.01291,0.0047 -1.072803,0.440802 -0.01551,0.0072 -0.996839,0.536919 -0.01654,0.01035 -0.920874,0.633037 -0.0186,0.01394 -0.844909,0.72812 -0.01035,0.0083 -0.01757,0.01707 -1.136364,1.107943 -0.0677,0.06925 -0.01603,0.01757 -1.067634,1.174604 -0.04651,0.05426 -0.01757,0.02066 -0.0026,0.0036 -0.992188,1.2392 -0.03979,0.05271 -0.01601,0.02222 -0.913122,1.298628 -0.03153,0.04702 -5.29e-4,5.29e-4 v -2.801897 -0.718818 -8.852173 a 1.42875,1.42875 0 0 0 -1.428854,-1.428855 h -0.142626 a 1.42875,1.42875 0 0 0 -1.428853,1.428855 v 2.642214 a 1.42875,1.42875 0 0 1 -1.428853,1.428854 1.2740278,1.2740278 0 0 1 -1.097608,-1.428854 V 47.465442 A 1.42875,1.42875 0 0 0 58.85625,46.036589 Z m 24.971087,12.497946 a 1.3680859,1.3680859 0 0 0 -1.367877,1.367874 v 0.203089 a 1.42875,1.42875 0 0 0 1.428853,1.428853 h 6.397028 1.43402 c 3.754229,0.447125 5.983227,1.621743 7.891508,3.515548 0.559864,0.555623 1.452184,0.63758 2.052584,0.125574 l 0.0822,-0.07028 c 0.60041,-0.512006 0.68033,-1.42199 0.12867,-1.985926 -2.521031,-2.577179 -5.552981,-4.140237 -8.72918,-4.503084 -0.783542,-0.08951 -1.428048,-0.08165 -1.430919,-0.08165 h -7.254854 z m 0.06615,4.892209 a 1.42875,1.42875 0 0 0 -1.428856,1.428853 v 0.142111 a 1.42875,1.42875 0 0 0 1.428856,1.428853 h 3.397208 c 0.789078,0 2.07346,-0.0094 2.850989,0.119888 0.390363,0.06494 0.777928,0.155802 1.160653,0.272851 0.668753,0.204529 1.502251,-0.01709 1.896525,-0.595312 l 0.01498,-0.0217 c 0.536559,-0.7869 0.286467,-1.790594 -0.611849,-2.104782 -0.801616,-0.280365 -1.622653,-0.474162 -2.453082,-0.578776 -0.7824,-0.09856 -1.424718,-0.0917 -1.424718,-0.09198 h -0.0047 -4.255037 z m 13.049849,3.763595 c -0.471932,0.0033 -0.942975,0.249735 -1.251604,0.702281 -0.379174,0.555993 -0.196874,1.423019 0.331248,2.008664 2.085856,2.313064 3.406084,5.536999 3.691247,9.024255 l 0.05788,1.459344 v 0.999937 h 5.29e-4 v 5.568135 a 1.42875,1.42875 0 0 0 1.428857,1.428856 h 0.14211 a 1.42875,1.42875 0 0 0 1.42885,-1.428856 v -4.139282 -2.42879 -5.3e-4 -5.29e-4 -5.29e-4 -5.29e-4 -5.29e-4 -5.29e-4 c -0.36272,-5.803072 -2.07007,-9.85841 -4.801257,-12.74031 -0.292901,-0.309063 -0.660786,-0.453718 -1.027845,-0.451133 z m 7.285337,0.199985 c -0.33988,0.0013 -0.69119,0.129421 -0.9958,0.389126 -0.51623,0.440121 -0.60969,1.348853 -0.26458,2.05827 1.3191,2.711675 2.10734,5.855182 2.28616,9.119341 0.0432,0.787797 0.0393,1.875504 0.0393,2.427759 v 12.571328 a 1.42875,1.42875 0 0 0 1.42886,1.428853 h 0.14211 a 1.42875,1.42875 0 0 0 1.42885,-1.428853 v -11.142475 -2.42879 c -0.22738,-5.286365 -1.19297,-9.006428 -2.8298,-12.208042 -0.26625,-0.520783 -0.73832,-0.788599 -1.23507,-0.786517 z m -20.335186,0.928111 a 1.42875,1.42875 0 0 0 -1.428856,1.428853 v 0.142626 a 1.42875,1.42875 0 0 0 1.428856,1.428854 c 2.385807,0 3.347435,-0.01307 4.11551,0.160713 1.101034,0.249113 2.143331,0.781981 3.052011,1.561145 0.598254,0.512987 1.514223,0.645054 2.152322,0.180869 0.706435,-0.513892 0.782436,-1.578007 0.04393,-2.248958 -1.507136,-1.369267 -3.31746,-2.250718 -5.23534,-2.545065 -0.779195,-0.119589 -1.426186,-0.109037 -1.429888,-0.109037 h -2.113565 z m 0,4.891691 a 1.42875,1.42875 0 0 0 -1.428856,1.428853 v 0.142626 a 1.42875,1.42875 0 0 0 1.428856,1.428854 c 0.315434,0 1.230972,-0.02212 1.974038,0.232544 1.209278,0.414423 2.169917,1.349034 2.602426,2.531113 0.269793,0.73736 0.249081,1.847596 0.249081,2.399853 h 5.3e-4 v 3.07113 a 1.42875,1.42875 0 0 0 1.428853,1.428853 h 0.14211 a 1.42875,1.42875 0 0 0 1.428853,-1.428853 V 82.8027 80.873618 80.373907 c -0.814348,-4.696865 -3.743618,-7.163816 -7.254854,-7.163903 z m 11.520226,2.464964 c -0.310848,0.0083 -0.637535,0.118666 -0.938961,0.337966 -0.504762,0.367231 -0.721929,1.147072 -0.562756,1.764233 0.100034,0.387861 0.177732,0.783352 0.233061,1.183389 0.108027,0.781055 0.100769,1.871887 0.100769,2.424142 v 7.571115 a 1.42875,1.42875 0 0 0 1.428854,1.428854 h 0.14211 a 1.42875,1.42875 0 0 0 1.428853,-1.428854 v -6.142262 -2.42879 c -0.155167,-2.193418 -0.300447,-2.949562 -0.508497,-3.684533 -0.193641,-0.684072 -0.729996,-1.041077 -1.323433,-1.02526 z m -5.265827,13.198679 a 1.42875,1.42875 0 0 0 -1.428338,1.428337 v 12.142926 a 1.42875,1.42875 0 0 0 1.428338,1.42834 h 0.142626 a 1.42875,1.42875 0 0 0 1.428853,-1.42834 V 90.301984 a 1.42875,1.42875 0 0 0 -1.428853,-1.428337 z m 11.053067,2.507859 a 1.42875,1.42875 0 0 0 -1.428848,1.428853 v 2.142503 a 1.42875,1.42875 0 0 0 1.428848,1.428853 h 0.14263 a 1.42875,1.42875 0 0 0 1.42885,-1.428853 v -2.142503 a 1.42875,1.42875 0 0 0 -1.42885,-1.428853 z m -5.526789,2.002977 a 1.42875,1.42875 0 0 0 -1.428338,1.428854 v 9.839193 a 1.42875,1.42875 0 0 0 1.428338,1.42885 h 0.142626 a 1.42875,1.42875 0 0 0 1.428853,-1.42885 v -9.839193 a 1.42875,1.42875 0 0 0 -1.428853,-1.428854 z m 11.048419,5.000213 a 1.42875,1.42875 0 0 0 -1.42886,1.428334 v 13.14287 a 1.42875,1.42875 0 0 0 1.42886,1.42834 h 0.14211 a 1.42875,1.42875 0 0 0 1.42885,-1.42834 V 99.81303 a 1.42875,1.42875 0 0 0 -1.42885,-1.428334 z m -5.52163,0.996836 a 1.42875,1.42875 0 0 0 -1.428848,1.428858 v 13.84256 a 1.42875,1.42875 0 0 0 1.428848,1.42834 h 0.14263 a 1.42875,1.42875 0 0 0 1.42885,-1.42834 v -13.84256 a 1.42875,1.42875 0 0 0 -1.42885,-1.428858 z m -11.053067,7.492048 a 1.42875,1.42875 0 0 0 -1.428338,1.42886 v 1.3503 a 1.42875,1.42875 0 0 0 1.428338,1.42886 h 0.142626 a 1.42875,1.42875 0 0 0 1.428853,-1.42886 v -1.3503 a 1.42875,1.42875 0 0 0 -1.428853,-1.42886 z m 5.526278,2.20814 a 1.42875,1.42875 0 0 0 -1.428854,1.42885 v 17.14262 a 1.42875,1.42875 0 0 0 1.428854,1.42886 h 0.142626 a 1.42875,1.42875 0 0 0 1.428337,-1.42886 v -17.14262 a 1.42875,1.42875 0 0 0 -1.428337,-1.42885 z m -5.526278,5.00021 a 1.42875,1.42875 0 0 0 -1.428338,1.42885 v 12.14241 a 1.42875,1.42875 0 0 0 1.428338,1.42886 h 0.142626 a 1.42875,1.42875 0 0 0 1.428853,-1.42886 v -12.14241 a 1.42875,1.42875 0 0 0 -1.428853,-1.42885 z m 16.579857,2.99981 a 1.42875,1.42875 0 0 0 -1.42885,1.42886 v 9.14259 a 1.42875,1.42875 0 0 0 1.42885,1.42886 h 0.14263 a 1.42875,1.42875 0 0 0 1.42834,-1.42886 v -9.14259 a 1.42875,1.42875 0 0 0 -1.42834,-1.42886 z m -5.52679,1.99988 a 1.42875,1.42875 0 0 0 -1.428848,1.42886 v 7.14271 a 1.42875,1.42875 0 0 0 1.428848,1.42886 h 0.14263 a 1.42875,1.42875 0 0 0 1.42885,-1.42886 v -7.14271 a 1.42875,1.42875 0 0 0 -1.42885,-1.42886 z" />
</svg>
