<?xml version="1.0" encoding="UTF-8" standalone="no"?>
<!-- Created with Inkscape (http://www.inkscape.org/) -->

<svg
   width="81.924904mm"
   height="130.04668mm"
   viewBox="0 0 81.924906 130.04667"
   version="1.1"
   id="svg5"
   inkscape:version="1.1 (c68e22c387, 2021-05-23)"
   sodipodi:docname="logo-monocrome.svg"
   inkscape:export-filename="C:\Users\reneh\Desktop\Logo White.png"
   inkscape:export-xdpi="230.81151"
   inkscape:export-ydpi="230.81151"
   xmlns:inkscape="http://www.inkscape.org/namespaces/inkscape"
   xmlns:sodipodi="http://sodipodi.sourceforge.net/DTD/sodipodi-0.dtd"
   xmlns="http://www.w3.org/2000/svg"
   xmlns:svg="http://www.w3.org/2000/svg">
  <sodipodi:namedview
     id="namedview7"
     pagecolor="#ffffff"
     bordercolor="#000000"
     borderopacity="1"
     inkscape:pageshadow="0"
     inkscape:pageopacity="0"
     inkscape:pagecheckerboard="1"
     inkscape:document-units="px"
     showgrid="false"
     showborder="true"
     inkscape:showpageshadow="false"
     inkscape:zoom="0.7071068"
     inkscape:cx="54.447221"
     inkscape:cy="290.62088"
     inkscape:window-width="1920"
     inkscape:window-height="1009"
     inkscape:window-x="-8"
     inkscape:window-y="-8"
     inkscape:window-maximized="1"
     inkscape:current-layer="svg5"
     inkscape:snap-smooth-nodes="true"
     inkscape:snap-intersection-paths="true"
     inkscape:object-paths="true"
     showguides="false"
     inkscape:guide-bbox="true"
     inkscape:snap-midpoints="true"
     inkscape:snap-others="false"
     inkscape:object-nodes="true"
     inkscape:snap-nodes="true"
     fit-margin-top="10"
     fit-margin-left="10"
     fit-margin-right="10"
     fit-margin-bottom="10"
     borderlayer="false"
     lock-margins="true">
    <sodipodi:guide
       position="-80.622138,107.05806"
       orientation="0,-1"
       id="guide3588" />
    <sodipodi:guide
       position="61.344697,7.277054"
       orientation="1,0"
       id="guide10365" />
    <sodipodi:guide
       position="64.344697,6.450234"
       orientation="1,0"
       id="guide10367" />
    <sodipodi:guide
       position="66.870698,7.045544"
       orientation="1,0"
       id="guide10369" />
    <sodipodi:guide
       position="69.870699,7.640864"
       orientation="1,0"
       id="guide10371" />
    <sodipodi:guide
       position="72.397695,8.401534"
       orientation="1,0"
       id="guide10373" />
    <sodipodi:guide
       position="75.397695,8.170024"
       orientation="1,0"
       id="guide10375" />
    <sodipodi:guide
       position="77.924255,7.243984"
       orientation="1,0"
       id="guide10377" />
    <sodipodi:guide
       position="80.924255,7.916154"
       orientation="1,0"
       id="guide10379" />
    <sodipodi:guide
       position="66.037589,0.0012340353"
       orientation="0,-1"
       id="guide10381" />
    <sodipodi:guide
       position="59.360323,70.548591"
       orientation="0,-1"
       id="guide10383" />
    <sodipodi:guide
       position="53.855268,52.87293"
       orientation="0,-1"
       id="guide10385" />
    <sodipodi:guide
       position="61.344831,48.69834"
       orientation="0,-1"
       id="guide11833" />
    <sodipodi:guide
       position="59.217329,60.76458"
       orientation="1,0"
       id="guide17946" />
  </sodipodi:namedview>
  <defs
     id="defs2">
    <inkscape:path-effect
       effect="fillet_chamfer"
       id="path-effect1443"
       is_visible="true"
       lpeversion="1"
       satellites_param="F,0,0,1,0,1.3680859,0,1 @ F,0,0,1,0,1.42875,0,1 @ F,0,0,1,0,1.42875,0,1 @ F,0,0,1,0,1.42875,0,1 @ F,0,0,1,0,1.42875,0,1 @ F,0,0,1,0,1.42875,0,1 @ F,0,0,1,0,1.42875,0,1 @ F,0,0,1,0,1.42875,0,1 @ F,0,0,1,0,1.42875,0,1 @ F,0,0,1,0,0,0,1"
       unit="px"
       method="auto"
       mode="F"
       radius="5.4"
       chamfer_steps="1"
       flexible="false"
       use_knot_distance="true"
       apply_no_radius="true"
       apply_with_radius="true"
       only_selected="false"
       hide_knots="false" />
    <inkscape:path-effect
       effect="fillet_chamfer"
       id="path-effect1427"
       is_visible="true"
       lpeversion="1"
       satellites_param="F,0,0,1,0,1.42875,0,1 @ F,0,0,1,0,1.42875,0,1 @ F,0,0,1,0,1.42875,0,1 @ F,0,0,1,0,1.42875,0,1 @ F,0,0,1,0,1.2672024,0,1 @ F,0,0,1,0,1.7245151,0,1 @ F,0,0,1,0,1.42875,0,1 @ F,0,0,1,0,1.42875,0,1 @ F,0,0,1,0,1.42875,0,1 @ F,0,0,1,0,0,0,1"
       unit="px"
       method="auto"
       mode="F"
       radius="5.4"
       chamfer_steps="1"
       flexible="false"
       use_knot_distance="true"
       apply_no_radius="true"
       apply_with_radius="true"
       only_selected="false"
       hide_knots="false" />
    <inkscape:path-effect
       effect="fillet_chamfer"
       id="path-effect1145"
       is_visible="true"
       lpeversion="1"
       satellites_param="F,0,0,1,0,1.42875,0,1 @ F,0,0,1,0,1.42875,0,1 @ F,0,0,1,0,1.42875,0,1 @ F,0,0,1,0,1.42875,0,1 @ F,0,0,1,0,1.42875,0,1 @ F,0,0,1,0,1.8085666,0,1 @ F,0,0,1,0,1.42875,0,1 @ F,0,0,1,0,1.42875,0,1 @ F,0,0,1,0,0.013891936,0,1"
       unit="px"
       method="auto"
       mode="F"
       radius="5.4"
       chamfer_steps="1"
       flexible="false"
       use_knot_distance="true"
       apply_no_radius="true"
       apply_with_radius="true"
       only_selected="false"
       hide_knots="false" />
    <inkscape:path-effect
       effect="fillet_chamfer"
       id="path-effect6528"
       is_visible="true"
       lpeversion="1"
       satellites_param="F,0,0,1,0,1.42875,0,1 @ F,0,0,1,0,1.42875,0,1 @ F,0,0,1,0,1.42875,0,1 @ F,0,0,1,0,1.42875,0,1"
       unit="px"
       method="auto"
       mode="F"
       radius="5.4"
       chamfer_steps="1"
       flexible="false"
       use_knot_distance="true"
       apply_no_radius="true"
       apply_with_radius="true"
       only_selected="false"
       hide_knots="false" />
    <inkscape:path-effect
       effect="fillet_chamfer"
       id="path-effect6524"
       is_visible="true"
       lpeversion="1"
       satellites_param="F,0,0,1,0,1.42875,0,1 @ F,0,0,1,0,1.42875,0,1 @ F,0,0,1,0,1.42875,0,1 @ F,0,0,1,0,1.42875,0,1"
       unit="px"
       method="auto"
       mode="F"
       radius="5.4"
       chamfer_steps="1"
       flexible="false"
       use_knot_distance="true"
       apply_no_radius="true"
       apply_with_radius="true"
       only_selected="false"
       hide_knots="false" />
    <inkscape:path-effect
       effect="fillet_chamfer"
       id="path-effect6520"
       is_visible="true"
       lpeversion="1"
       satellites_param="F,0,0,1,0,1.42875,0,1 @ F,0,0,1,0,1.42875,0,1 @ F,0,0,1,0,1.42875,0,1 @ F,0,0,1,0,1.42875,0,1"
       unit="px"
       method="auto"
       mode="F"
       radius="5.4"
       chamfer_steps="1"
       flexible="false"
       use_knot_distance="true"
       apply_no_radius="true"
       apply_with_radius="true"
       only_selected="false"
       hide_knots="false" />
    <inkscape:path-effect
       effect="fillet_chamfer"
       id="path-effect6516"
       is_visible="true"
       lpeversion="1"
       satellites_param="F,0,0,1,0,1.42875,0,1 @ F,0,0,1,0,1.42875,0,1 @ F,0,0,1,0,1.42875,0,1 @ F,0,0,1,0,1.42875,0,1"
       unit="px"
       method="auto"
       mode="F"
       radius="5.4"
       chamfer_steps="1"
       flexible="false"
       use_knot_distance="true"
       apply_no_radius="true"
       apply_with_radius="true"
       only_selected="false"
       hide_knots="false" />
    <inkscape:path-effect
       effect="fillet_chamfer"
       id="path-effect6512"
       is_visible="true"
       lpeversion="1"
       satellites_param="F,0,0,1,0,1.42875,0,1 @ F,0,0,1,0,1.42875,0,1 @ F,0,0,1,0,1.42875,0,1 @ F,0,0,1,0,1.42875,0,1"
       unit="px"
       method="auto"
       mode="F"
       radius="5.4"
       chamfer_steps="1"
       flexible="false"
       use_knot_distance="true"
       apply_no_radius="true"
       apply_with_radius="true"
       only_selected="false"
       hide_knots="false" />
    <inkscape:path-effect
       effect="fillet_chamfer"
       id="path-effect6508"
       is_visible="true"
       lpeversion="1"
       satellites_param="F,0,0,1,0,1.42875,0,1 @ F,0,0,1,0,1.42875,0,1 @ F,0,0,1,0,1.42875,0,1 @ F,0,0,1,0,1.42875,0,1"
       unit="px"
       method="auto"
       mode="F"
       radius="5.4"
       chamfer_steps="1"
       flexible="false"
       use_knot_distance="true"
       apply_no_radius="true"
       apply_with_radius="true"
       only_selected="false"
       hide_knots="false" />
    <inkscape:path-effect
       effect="fillet_chamfer"
       id="path-effect6504"
       is_visible="true"
       lpeversion="1"
       satellites_param="F,0,0,1,0,1.42875,0,1 @ F,0,0,1,0,1.42875,0,1 @ F,0,0,1,0,1.42875,0,1 @ F,0,0,1,0,1.42875,0,1"
       unit="px"
       method="auto"
       mode="F"
       radius="5.4"
       chamfer_steps="1"
       flexible="false"
       use_knot_distance="true"
       apply_no_radius="true"
       apply_with_radius="true"
       only_selected="false"
       hide_knots="false" />
    <inkscape:path-effect
       effect="fillet_chamfer"
       id="path-effect5556"
       is_visible="true"
       lpeversion="1"
       satellites_param="F,0,0,1,0,1.7841231,0,1 @ F,0,0,1,0,1.42875,0,1 @ F,0,0,1,0,1.42875,0,1 @ F,0,0,1,0,1.42875,0,1 @ F,0,0,1,0,1.42875,0,1 @ F,0,0,1,0,1.42875,0,1 @ F,0,0,1,0,1.42875,0,1 @ F,0,0,1,0,1.42875,0,1"
       unit="px"
       method="auto"
       mode="F"
       radius="5.4"
       chamfer_steps="1"
       flexible="false"
       use_knot_distance="true"
       apply_no_radius="true"
       apply_with_radius="true"
       only_selected="false"
       hide_knots="false" />
    <inkscape:path-effect
       effect="fillet_chamfer"
       id="path-effect5264"
       is_visible="true"
       lpeversion="1"
       satellites_param="F,0,0,1,0,1.7632341,0,1 @ F,0,0,1,0,1.42875,0,1 @ F,0,0,1,0,1.42875,0,1 @ F,0,0,1,0,1.42875,0,1 @ F,0,0,1,0,1.42875,0,1 @ F,0,0,1,0,1.42875,0,1 @ F,0,0,1,0,1.42875,0,1 @ F,0,0,1,0,1.42875,0,1 @ F,0,0,1,0,1.42875,0,1 @ F,0,0,1,0,1.42875,0,1 @ F,0,0,1,0,1.42875,0,1 @ F,0,0,1,0,1.42875,0,1 @ F,0,0,1,0,1.42875,0,1 @ F,0,0,1,0,1.42875,0,1 @ F,0,0,1,0,1.42875,0,1 @ F,0,0,1,0,1.42875,0,1"
       unit="px"
       method="auto"
       mode="F"
       radius="5.4"
       chamfer_steps="1"
       flexible="false"
       use_knot_distance="true"
       apply_no_radius="true"
       apply_with_radius="true"
       only_selected="false"
       hide_knots="false" />
    <inkscape:path-effect
       effect="fillet_chamfer"
       id="path-effect4934"
       is_visible="true"
       lpeversion="1"
       satellites_param="F,0,0,1,0,1.9634624,0,1 @ F,0,0,1,0,1.1546574,0,1 @ F,0,0,1,0,1.42875,0,1 @ F,0,0,1,0,1.42875,0,1 @ F,0,0,1,0,1.42875,0,1 @ F,0,0,1,0,1.42875,0,1 @ F,0,0,1,0,1.42875,0,1 @ F,0,0,1,0,1.42875,0,1"
       unit="px"
       method="auto"
       mode="F"
       radius="5.4"
       chamfer_steps="1"
       flexible="false"
       use_knot_distance="true"
       apply_no_radius="true"
       apply_with_radius="true"
       only_selected="false"
       hide_knots="false" />
    <inkscape:path-effect
       effect="fillet_chamfer"
       id="path-effect4718"
       is_visible="true"
       lpeversion="1"
       satellites_param="F,0,0,1,0,1.42875,0,1 @ F,0,0,1,0,1.42875,0,1 @ F,0,0,1,0,1.42875,0,1 @ F,0,0,1,0,1.42875,0,1 @ F,0,0,1,0,1.42875,0,1 @ F,0,0,1,0,1.42875,0,1 @ F,0,0,1,0,1.42875,0,1 @ F,0,0,1,0,1.42875,0,1 @ F,0,0,1,0,1.42875,0,1 @ F,0,0,1,0,1.42875,0,1 @ F,0,0,1,0,1.42875,0,1 @ F,0,0,1,0,0,0,1"
       unit="px"
       method="auto"
       mode="F"
       radius="5.4"
       chamfer_steps="1"
       flexible="false"
       use_knot_distance="true"
       apply_no_radius="true"
       apply_with_radius="true"
       only_selected="false"
       hide_knots="false" />
    <inkscape:path-effect
       effect="fillet_chamfer"
       id="path-effect4691"
       is_visible="true"
       lpeversion="1"
       satellites_param="F,0,0,1,0,1.42875,0,1 @ F,0,0,1,0,1.42875,0,1 @ F,0,0,1,0,1.42875,0,1 @ F,0,0,1,0,1.42875,0,1 @ F,0,0,1,0,1.42875,0,1 @ F,0,0,1,0,1.42875,0,1 @ F,0,0,1,0,1.42875,0,1 @ F,0,0,1,0,1.42875,0,1 @ F,0,0,1,0,1.42875,0,1 @ F,0,0,1,0,9.3274632e-05,0,1 @ F,0,0,1,0,1.42875,0,1 @ F,0,0,1,0,1.42875,0,1 @ F,0,0,1,0,1.42875,0,1 @ F,0,0,1,0,1.42875,0,1 @ F,0,0,1,0,1.42875,0,1 @ F,0,0,1,0,1.42875,0,1 @ F,0,0,1,0,1.42875,0,1 @ F,0,0,1,0,0,0,1 @ F,0,0,1,0,1.42875,0,1 @ F,0,0,1,0,1.42875,0,1 @ F,0,0,1,0,1.42875,0,1 @ F,0,0,1,0,1.42875,0,1 @ F,0,0,1,0,1.42875,0,1"
       unit="px"
       method="auto"
       mode="F"
       radius="5.4"
       chamfer_steps="1"
       flexible="false"
       use_knot_distance="true"
       apply_no_radius="true"
       apply_with_radius="true"
       only_selected="false"
       hide_knots="false" />
    <inkscape:path-effect
       effect="fillet_chamfer"
       id="path-effect338"
       is_visible="true"
       lpeversion="1"
       satellites_param="F,0,0,1,0,1.42875,0,1 @ F,0,0,1,0,1.42875,0,1 @ F,0,0,1,0,1.42875,0,1 @ F,0,0,1,0,1.42875,0,1"
       unit="px"
       method="auto"
       mode="F"
       radius="5.4"
       chamfer_steps="1"
       flexible="false"
       use_knot_distance="true"
       apply_no_radius="true"
       apply_with_radius="true"
       only_selected="false"
       hide_knots="false" />
    <inkscape:path-effect
       effect="fillet_chamfer"
       id="path-effect26392"
       is_visible="true"
       lpeversion="1"
       satellites_param="F,0,0,1,0,1.42875,0,1 @ F,0,0,1,0,1.42875,0,1 @ F,0,0,1,0,1.42875,0,1 @ F,0,0,1,0,1.42875,0,1"
       unit="px"
       method="auto"
       mode="F"
       radius="5.4"
       chamfer_steps="1"
       flexible="false"
       use_knot_distance="true"
       apply_no_radius="true"
       apply_with_radius="true"
       only_selected="false"
       hide_knots="false" />
    <inkscape:path-effect
       effect="fillet_chamfer"
       id="path-effect26388"
       is_visible="true"
       lpeversion="1"
       satellites_param="F,0,0,1,0,1.42875,0,1 @ F,0,0,1,0,1.42875,0,1 @ F,0,0,1,0,1.42875,0,1 @ F,0,0,1,0,1.42875,0,1"
       unit="px"
       method="auto"
       mode="F"
       radius="5.4"
       chamfer_steps="1"
       flexible="false"
       use_knot_distance="true"
       apply_no_radius="true"
       apply_with_radius="true"
       only_selected="false"
       hide_knots="false" />
    <inkscape:path-effect
       effect="fillet_chamfer"
       id="path-effect26384"
       is_visible="true"
       lpeversion="1"
       satellites_param="F,0,0,1,0,1.42875,0,1 @ F,0,0,1,0,1.42875,0,1 @ F,0,0,1,0,1.42875,0,1 @ F,0,0,1,0,1.42875,0,1"
       unit="px"
       method="auto"
       mode="F"
       radius="5.4"
       chamfer_steps="1"
       flexible="false"
       use_knot_distance="true"
       apply_no_radius="true"
       apply_with_radius="true"
       only_selected="false"
       hide_knots="false" />
    <inkscape:path-effect
       effect="fillet_chamfer"
       id="path-effect26380"
       is_visible="true"
       lpeversion="1"
       satellites_param="F,0,0,1,0,1.42875,0,1 @ F,0,0,1,0,1.42875,0,1 @ F,0,0,1,0,1.42875,0,1 @ F,0,0,1,0,1.42875,0,1"
       unit="px"
       method="auto"
       mode="F"
       radius="5.4"
       chamfer_steps="1"
       flexible="false"
       use_knot_distance="true"
       apply_no_radius="true"
       apply_with_radius="true"
       only_selected="false"
       hide_knots="false" />
    <inkscape:path-effect
       effect="fillet_chamfer"
       id="path-effect26372"
       is_visible="true"
       lpeversion="1"
       satellites_param="F,0,0,1,0,1.42875,0,1 @ F,0,0,1,0,1.42875,0,1 @ F,0,0,1,0,1.42875,0,1 @ F,0,0,1,0,1.42875,0,1"
       unit="px"
       method="auto"
       mode="F"
       radius="5.4"
       chamfer_steps="1"
       flexible="false"
       use_knot_distance="true"
       apply_no_radius="true"
       apply_with_radius="true"
       only_selected="false"
       hide_knots="false" />
    <inkscape:path-effect
       effect="fillet_chamfer"
       id="path-effect26368"
       is_visible="true"
       lpeversion="1"
       satellites_param="F,0,0,1,0,1.42875,0,1 @ F,0,0,1,0,1.42875,0,1 @ F,0,0,1,0,1.42875,0,1 @ F,0,0,1,0,1.42875,0,1"
       unit="px"
       method="auto"
       mode="F"
       radius="5.4"
       chamfer_steps="1"
       flexible="false"
       use_knot_distance="true"
       apply_no_radius="true"
       apply_with_radius="true"
       only_selected="false"
       hide_knots="false" />
    <inkscape:path-effect
       effect="fillet_chamfer"
       id="path-effect26364"
       is_visible="true"
       lpeversion="1"
       satellites_param="F,0,0,1,0,1.42875,0,1 @ F,0,0,1,0,1.42875,0,1 @ F,0,0,1,0,1.42875,0,1 @ F,0,0,1,0,1.42875,0,1"
       unit="px"
       method="auto"
       mode="F"
       radius="5.4"
       chamfer_steps="1"
       flexible="false"
       use_knot_distance="true"
       apply_no_radius="true"
       apply_with_radius="true"
       only_selected="false"
       hide_knots="false" />
    <inkscape:path-effect
       effect="fillet_chamfer"
       id="path-effect26360"
       is_visible="true"
       lpeversion="1"
       satellites_param="F,0,0,1,0,1.42875,0,1 @ F,0,0,1,0,1.42875,0,1 @ F,0,0,1,0,1.42875,0,1 @ F,0,0,1,0,1.42875,0,1"
       unit="px"
       method="auto"
       mode="F"
       radius="5.4"
       chamfer_steps="1"
       flexible="false"
       use_knot_distance="true"
       apply_no_radius="true"
       apply_with_radius="true"
       only_selected="false"
       hide_knots="false" />
    <inkscape:path-effect
       effect="fillet_chamfer"
       id="path-effect26356"
       is_visible="true"
       lpeversion="1"
       satellites_param="F,0,0,1,0,1.42875,0,1 @ F,0,0,1,0,1.42875,0,1 @ F,0,0,1,0,1.42875,0,1 @ F,0,0,1,0,1.42875,0,1"
       unit="px"
       method="auto"
       mode="F"
       radius="5.4"
       chamfer_steps="1"
       flexible="false"
       use_knot_distance="true"
       apply_no_radius="true"
       apply_with_radius="true"
       only_selected="false"
       hide_knots="false" />
    <inkscape:path-effect
       effect="fillet_chamfer"
       id="path-effect31126"
       is_visible="true"
       lpeversion="1"
       satellites_param="F,0,0,1,0,1.5875,0,1 @ F,0,0,1,0,1.5875,0,1 @ F,0,0,1,0,1.5875,0,1 @ F,0,0,1,0,1.5875,0,1 @ F,0,0,1,0,1.5875,0,1 @ F,0,0,1,0,1.5875,0,1 @ F,0,0,1,0,1.5875,0,1 @ F,0,0,1,0,1.5875,0,1 @ F,0,0,1,0,1.5875,0,1 @ F,0,0,1,0,1.5875,0,1 @ F,0,0,1,0,1.5875,0,1 @ F,0,0,1,0,1.5875,0,1 @ F,0,0,1,0,1.5875,0,1 @ F,0,0,1,0,1.5875,0,1 @ F,0,0,1,0,1.5875,0,1 @ F,0,0,1,0,1.5875,0,1 @ F,0,0,1,0,1.5875,0,1 @ F,0,0,1,0,1.5875,0,1 @ F,0,0,1,0,1.5875,0,1 @ F,0,0,1,0,1.5875,0,1 @ F,0,0,1,0,1.5875,0,1 @ F,0,0,1,0,1.5875,0,1 @ F,0,0,1,0,0.025097858,0,1 @ F,0,0,1,0,0.025097858,0,1 @ F,0,0,1,0,0.89711184,0,1 @ F,0,0,1,0,1.5875,0,1 @ F,0,0,1,0,1.5875,0,1 @ F,0,0,1,0,1.5875,0,1 @ F,0,0,1,0,1.5875,0,1 @ F,0,0,1,0,1.5875,0,1 @ F,0,0,1,0,1.5875,0,1 @ F,0,0,1,0,1.5875,0,1 @ F,0,0,1,0,1.5875,0,1 @ F,0,0,1,0,1.5875,0,1 @ F,0,0,1,0,1.5875,0,1 @ F,0,0,1,0,1.5875,0,1 @ F,0,0,1,0,1.5875,0,1 @ F,0,0,1,0,1.5875,0,1 @ F,0,0,1,0,1.5875,0,1 @ F,0,0,1,0,1.5875,0,1 @ F,0,0,1,0,1.5875,0,1 @ F,0,0,1,0,1.5875,0,1 @ F,0,0,1,0,1.5875,0,1 @ F,0,0,1,0,1.5875,0,1 @ F,0,0,1,0,1.5875,0,1 @ F,0,0,1,0,1.5875,0,1 @ F,0,0,1,0,1.5875,0,1 @ F,0,0,1,0,1.5875,0,1 @ F,0,0,1,0,1.5875,0,1 @ F,0,0,1,0,1.5875,0,1 @ F,0,0,1,0,1.5875,0,1 @ F,0,0,1,0,1.5875,0,1 @ F,0,0,1,0,1.5875,0,1 @ F,0,0,1,0,1.5875,0,1 @ F,0,0,1,0,1.5875,0,1 @ F,0,0,1,0,1.5875,0,1 @ F,0,0,1,0,1.5875,0,1 @ F,0,0,1,0,1.5875,0,1 @ F,0,0,1,0,1.5875,0,1 @ F,0,0,1,0,1.5875,0,1"
       unit="px"
       method="auto"
       mode="F"
       radius="6"
       chamfer_steps="1"
       flexible="false"
       use_knot_distance="true"
       apply_no_radius="true"
       apply_with_radius="true"
       only_selected="false"
       hide_knots="false" />
  </defs>
  <path
     id="rect22996"
     style="display:inline;fill:#000000;stroke-width:1.18226"
     inkscape:label="logo"
     d="m 22.481926,10 a 1.42875,1.42875 0 0 0 -1.428853,1.428854 v 20.642667 a 1.42875,1.42875 0 0 0 1.428853,1.428337 h 0.142627 A 1.42875,1.42875 0 0 0 24.05289,32.071521 V 11.428854 A 1.42875,1.42875 0 0 0 22.624553,10 Z m 5.526277,3.500045 a 1.42875,1.42875 0 0 0 -1.428337,1.428853 v 3.642672 a 1.42875,1.42875 0 0 0 1.428337,1.428337 H 28.15083 A 1.42875,1.42875 0 0 0 29.579686,18.57157 V 14.928898 A 1.42875,1.42875 0 0 0 28.15083,13.500045 Z M 11.428854,14.000273 A 1.42875,1.42875 0 0 0 10,15.42861 v 12.142928 a 1.42875,1.42875 0 0 0 1.428854,1.428337 h 0.142627 a 1.42875,1.42875 0 0 0 1.428853,-1.428337 V 15.42861 a 1.42875,1.42875 0 0 0 -1.428853,-1.428337 z m 5.525761,3.999756 a 1.42875,1.42875 0 0 0 -1.428337,1.428853 v 1.142566 a 1.42875,1.42875 0 0 0 1.428337,1.428854 h 0.142627 a 1.42875,1.42875 0 0 0 1.428853,-1.428854 v -1.142566 a 1.42875,1.42875 0 0 0 -1.428853,-1.428853 z m 11.053588,4.000273 a 1.42875,1.42875 0 0 0 -1.428337,1.428336 v 15.142746 a 1.42875,1.42875 0 0 0 1.428337,1.428853 h 0.142627 a 1.42875,1.42875 0 0 0 1.428856,-1.428853 V 23.428638 A 1.42875,1.42875 0 0 0 28.15083,22.000302 Z M 16.954615,24.00018 a 1.42875,1.42875 0 0 0 -1.428337,1.428853 v 11.642184 a 1.42875,1.42875 0 0 0 1.428337,1.428853 h 0.142627 a 1.42875,1.42875 0 0 0 1.428853,-1.428853 V 25.429033 A 1.42875,1.42875 0 0 0 17.097242,24.00018 Z m -5.525761,7.000091 A 1.42875,1.42875 0 0 0 10,32.428605 v 2.142506 a 1.42875,1.42875 0 0 0 1.428854,1.428853 h 0.142627 a 1.42875,1.42875 0 0 0 1.428853,-1.428853 v -2.142506 a 1.42875,1.42875 0 0 0 -1.428853,-1.428334 z m 11.053072,5.999633 a 1.42875,1.42875 0 0 0 -1.428853,1.428853 v 11.327475 a 1.42875,1.42875 0 0 1 -1.428854,1.428334 1.2742508,1.2742508 0 0 1 -1.098124,-1.428334 v -6.327265 a 1.42875,1.42875 0 0 0 -1.428853,-1.428853 h -0.142627 a 1.42875,1.42875 0 0 0 -1.428854,1.428853 v 1.845884 a 1.42875,1.42875 0 0 1 -1.428853,1.428335 1.2738055,1.2738055 0 0 1 -1.097091,-1.428335 v -3.846277 a 1.42875,1.42875 0 0 0 -1.428853,-1.428853 h -0.14211 A 1.42875,1.42875 0 0 0 10,41.428574 v 12.852445 0.71882 c 6.88e-4,21.996861 5.29e-4,41.367831 5.29e-4,63.425591 0,0.87675 0.710738,1.5916 1.587501,1.59577 3.307394,0.0157 11.071305,0.0452 16.404169,0.006 0.87662,-0.006 1.586981,-0.72522 1.586981,-1.60197 V 74.90146 c 0,-0.876753 0.182954,-1.896354 0.438216,-2.257227 l 0.520899,-0.686263 0.603581,-0.7028 0.686263,-0.719335 0.768945,-0.760678 0.851628,-0.694531 0.934309,-0.628385 1.016993,-0.56224 1.091406,-0.520898 1.157552,-0.372071 1.223698,-0.223242 1.289844,-0.07441 0.552421,0.01188 1.141015,0.07286 0.233577,0.02894 0.569476,0.09198 0.172082,0.03359 0.774113,0.190169 0.02376,0.0057 c 0.01384,0 0.03478,0.01101 0.04806,0.01497 0.38572,0.115774 0.697634,-0.19028 0.697632,-0.685747 -3e-6,-2.850748 -6e-6,-11.72871 0,-15.374771 2e-6,-0.876742 -0.6418,-1.585743 -1.433502,-1.5875 h -5.29e-4 l -1.383377,0.04961 h -0.0011 l -0.0026,5.29e-4 -1.30483,0.147794 -0.0072,0.0016 -1.226799,0.245981 -0.01085,0.0026 -1.149802,0.343646 -0.01291,0.0047 -1.072801,0.440801 -0.0155,0.0072 -0.996839,0.536919 -0.01654,0.01035 -0.920871,0.633037 -0.0186,0.01394 -0.844909,0.728123 -0.0098,0.0083 -0.01757,0.01704 -1.136883,1.107943 -0.06718,0.06925 -0.01654,0.01757 -1.067636,1.174605 -0.04651,0.05426 -0.01704,0.02066 -0.0031,0.0036 -0.991672,1.239203 -0.04031,0.05271 -0.01601,0.02222 -0.913122,1.298628 -0.03152,0.04703 -5.29e-4,5.29e-4 v -2.801895 -0.71882 -8.852173 a 1.42875,1.42875 0 0 0 -1.428856,-1.428853 h -0.142627 a 1.42875,1.42875 0 0 0 -1.428853,1.428853 v 2.642733 a 1.42875,1.42875 0 0 1 -1.428854,1.428337 1.2740278,1.2740278 0 0 1 -1.097607,-1.428337 V 38.428837 A 1.42875,1.42875 0 0 0 22.62399,36.999983 Z m 24.971602,12.497943 a 1.3680859,1.3680859 0 0 0 -1.36839,1.368394 v 0.203089 a 1.42875,1.42875 0 0 0 1.428853,1.428337 h 6.397025 1.43402 c 3.754231,0.447122 5.983227,1.621742 7.89151,3.515545 0.559869,0.555623 1.452177,0.637583 2.052588,0.125574 l 0.08217,-0.07028 c 0.600408,-0.512005 0.680323,-1.421989 0.128672,-1.985925 -2.521035,-2.577177 -5.552985,-4.140237 -8.729181,-4.503084 -0.783545,-0.08951 -1.428049,-0.08165 -1.430922,-0.08165 h -7.254854 z m 0.06563,4.89221 a 1.42875,1.42875 0 0 0 -1.428853,1.428853 v 0.142626 a 1.42875,1.42875 0 0 0 1.428853,1.428338 h 3.397208 c 0.789078,0 2.073463,-0.0095 2.850989,0.11989 0.390363,0.06494 0.777928,0.156316 1.160653,0.273368 0.668755,0.204528 1.50277,-0.0176 1.897041,-0.595831 l 0.01447,-0.02119 c 0.536562,-0.786903 0.286467,-1.791113 -0.611849,-2.105298 -0.801616,-0.280368 -1.622137,-0.473649 -2.452563,-0.57826 -0.782402,-0.09856 -1.425237,-0.09222 -1.425237,-0.0925 h -0.0047 -4.255038 z m 13.049851,3.763595 c -0.471932,0.0033 -0.942459,0.249737 -1.251087,0.702283 -0.379177,0.555993 -0.19739,1.423017 0.330729,2.008661 2.085856,2.313065 3.406603,5.536999 3.691763,9.024256 l 0.05736,1.459343 v 0.99994 h 5.29e-4 v 5.568651 a 1.42875,1.42875 0 0 0 1.428853,1.428338 h 0.14211 a 1.42875,1.42875 0 0 0 1.428854,-1.428338 v -4.139798 -2.428793 -5.29e-4 -5.29e-4 -5.29e-4 -5.29e-4 -5.29e-4 -5.3e-4 C 66.035405,65.541948 64.328043,61.486613 61.596863,58.604713 61.303964,58.295648 60.936074,58.150993 60.56902,58.153578 Z m 7.285342,0.200504 c -0.339884,0.0013 -0.691189,0.128902 -0.995804,0.388606 -0.516231,0.440122 -0.609685,1.348854 -0.264584,2.058274 1.319112,2.711675 2.107862,5.855181 2.286683,9.119338 0.04316,0.787797 0.03876,1.875504 0.03876,2.427761 v 12.571842 a 1.42875,1.42875 0 0 0 1.428854,1.428337 h 0.14211 a 1.42875,1.42875 0 0 0 1.428853,-1.428337 V 73.776988 71.348195 C 71.69184,66.061833 70.726251,62.342286 69.089422,59.140672 68.823172,58.619887 68.351108,58.352071 67.854355,58.354156 Z m -20.335193,0.927592 a 1.42875,1.42875 0 0 0 -1.428853,1.428853 v 0.143145 a 1.42875,1.42875 0 0 0 1.428853,1.428335 c 2.385806,0 3.347435,-0.01254 4.115512,0.161231 1.101032,0.249113 2.143329,0.781982 3.052009,1.561145 0.598254,0.512985 1.514221,0.644536 2.152324,0.180351 0.706432,-0.513892 0.782431,-1.578004 0.04392,-2.248959 -1.507136,-1.369266 -3.31746,-2.250199 -5.23534,-2.544548 -0.77919,-0.119586 -1.426186,-0.109553 -1.429885,-0.109553 h -2.113566 z m 0,4.891691 a 1.42875,1.42875 0 0 0 -1.428853,1.428853 v 0.143145 a 1.42875,1.42875 0 0 0 1.428853,1.428337 c 0.315434,0 1.230974,-0.02212 1.974041,0.232542 1.209278,0.414423 2.169914,1.349553 2.602423,2.531629 0.269793,0.737362 0.249081,1.84708 0.249081,2.399337 h 5.29e-4 v 3.071648 a 1.42875,1.42875 0 0 0 1.428854,1.428335 h 0.14211 a 1.42875,1.42875 0 0 0 1.428853,-1.428335 v -1.642795 -1.92908 -0.499713 c -0.814345,-4.696865 -3.743616,-7.163816 -7.254854,-7.163903 z m 11.520745,2.464967 c -0.310849,0.0083 -0.637535,0.119184 -0.938962,0.338478 -0.504764,0.367234 -0.722444,1.147075 -0.563274,1.764234 0.100037,0.387863 0.177734,0.782836 0.233061,1.182875 0.108027,0.781053 0.100769,1.871885 0.100769,2.424142 v 7.571629 a 1.42875,1.42875 0 0 0 1.428854,1.428338 h 0.14211 a 1.42875,1.42875 0 0 0 1.428853,-1.428338 v -6.142776 -2.428793 c -0.155165,-2.193417 -0.300445,-2.949559 -0.508495,-3.684529 -0.193643,-0.684075 -0.72948,-1.041083 -1.322916,-1.02526 z m -5.265831,13.198676 a 1.42875,1.42875 0 0 0 -1.428853,1.428853 v 12.142412 a 1.42875,1.42875 0 0 0 1.428853,1.428853 h 0.142111 a 1.42875,1.42875 0 0 0 1.428853,-1.428853 V 81.265935 a 1.42875,1.42875 0 0 0 -1.428853,-1.428853 z m 11.053073,2.507858 a 1.42875,1.42875 0 0 0 -1.428854,1.428854 V 85.9163 a 1.42875,1.42875 0 0 0 1.428854,1.428853 h 0.14211 A 1.42875,1.42875 0 0 0 66.398108,85.9163 V 83.773794 A 1.42875,1.42875 0 0 0 64.969255,82.34494 Z m -5.526794,2.002978 a 1.42875,1.42875 0 0 0 -1.428854,1.428854 v 9.839711 a 1.42875,1.42875 0 0 0 1.428854,1.428853 h 0.14211 a 1.42875,1.42875 0 0 0 1.428853,-1.428853 v -9.839711 a 1.42875,1.42875 0 0 0 -1.428853,-1.428854 z m 11.047905,5.000213 a 1.42875,1.42875 0 0 0 -1.428854,1.428853 v 13.142346 a 1.42875,1.42875 0 0 0 1.428854,1.42886 h 0.142628 a 1.42875,1.42875 0 0 0 1.428335,-1.42886 V 90.776984 a 1.42875,1.42875 0 0 0 -1.428335,-1.428853 z m -5.521111,0.996839 a 1.42875,1.42875 0 0 0 -1.428854,1.428853 v 13.842567 a 1.42875,1.42875 0 0 0 1.428854,1.42885 h 0.14211 a 1.42875,1.42875 0 0 0 1.428853,-1.42885 V 91.773823 A 1.42875,1.42875 0 0 0 64.969255,90.34497 Z m -11.053073,7.492047 a 1.42875,1.42875 0 0 0 -1.428853,1.428854 v 1.350309 a 1.42875,1.42875 0 0 0 1.428853,1.42885 h 0.142111 a 1.42875,1.42875 0 0 0 1.428853,-1.42885 v -1.350309 a 1.42875,1.42875 0 0 0 -1.428853,-1.428854 z m 5.525763,2.208653 a 1.42875,1.42875 0 0 0 -1.428854,1.42834 v 17.14262 a 1.42875,1.42875 0 0 0 1.428854,1.42885 h 0.142626 a 1.42875,1.42875 0 0 0 1.428853,-1.42885 v -17.14262 a 1.42875,1.42875 0 0 0 -1.428853,-1.42834 z m -5.525763,4.99969 a 1.42875,1.42875 0 0 0 -1.428853,1.42886 v 12.14241 a 1.42875,1.42875 0 0 0 1.428853,1.42885 h 0.142111 a 1.42875,1.42875 0 0 0 1.428853,-1.42885 v -12.14241 a 1.42875,1.42875 0 0 0 -1.428853,-1.42886 z m 16.579351,3.00034 a 1.42875,1.42875 0 0 0 -1.428853,1.42834 v 9.14259 a 1.42875,1.42875 0 0 0 1.428853,1.42885 h 0.142629 a 1.42875,1.42875 0 0 0 1.428853,-1.42885 v -9.14259 a 1.42875,1.42875 0 0 0 -1.428853,-1.42834 z m -5.526278,1.99988 a 1.42875,1.42875 0 0 0 -1.428854,1.42885 v 7.1422 a 1.42875,1.42875 0 0 0 1.428854,1.42885 h 0.14211 a 1.42875,1.42875 0 0 0 1.428853,-1.42885 v -7.1422 a 1.42875,1.42875 0 0 0 -1.428853,-1.42885 z" />
</svg>
