<?xml version="1.0" encoding="UTF-8" standalone="no"?>
<!-- Created with Inkscape (http://www.inkscape.org/) -->

<svg
   width="152.29166mm"
   height="152.29167mm"
   viewBox="0 0 152.29166 152.29167"
   version="1.1"
   id="svg5"
   inkscape:version="1.1 (c68e22c387, 2021-05-23)"
   sodipodi:docname="logo-monocrome-border.svg"
   inkscape:export-filename="C:\Users\reneh\Desktop\Logo White.png"
   inkscape:export-xdpi="230.81151"
   inkscape:export-ydpi="230.81151"
   xmlns:inkscape="http://www.inkscape.org/namespaces/inkscape"
   xmlns:sodipodi="http://sodipodi.sourceforge.net/DTD/sodipodi-0.dtd"
   xmlns="http://www.w3.org/2000/svg"
   xmlns:svg="http://www.w3.org/2000/svg">
  <sodipodi:namedview
     id="namedview7"
     pagecolor="#21006f"
     bordercolor="#ffffff"
     borderopacity="1"
     inkscape:pageshadow="0"
     inkscape:pageopacity="0"
     inkscape:pagecheckerboard="1"
     inkscape:document-units="px"
     showgrid="false"
     showborder="true"
     inkscape:showpageshadow="false"
     inkscape:zoom="0.70710678"
     inkscape:cx="184.55487"
     inkscape:cy="348.60364"
     inkscape:window-width="1920"
     inkscape:window-height="1009"
     inkscape:window-x="-8"
     inkscape:window-y="-8"
     inkscape:window-maximized="1"
     inkscape:current-layer="svg5"
     inkscape:snap-smooth-nodes="true"
     inkscape:snap-intersection-paths="true"
     inkscape:object-paths="true"
     showguides="false"
     inkscape:guide-bbox="true"
     inkscape:snap-midpoints="true"
     inkscape:snap-others="true"
     inkscape:object-nodes="true"
     inkscape:snap-nodes="false"
     fit-margin-top="10"
     fit-margin-left="10"
     fit-margin-right="10"
     fit-margin-bottom="10"
     borderlayer="false"
     lock-margins="true"
     inkscape:snap-bbox="true"
     inkscape:snap-bbox-edge-midpoints="true"
     inkscape:snap-bbox-midpoints="true">
    <sodipodi:guide
       position="47.883998,22.91531"
       orientation="0,-1"
       id="guide1188" />
    <sodipodi:guide
       position="46.296487,28.157523"
       orientation="1,0"
       id="guide1190" />
    <sodipodi:guide
       position="108.22061,27.362397"
       orientation="1,0"
       id="guide1192" />
    <sodipodi:guide
       position="58.849003,132.93642"
       orientation="0,-1"
       id="guide1194" />
    <sodipodi:guide
       position="76.145827,76.145833"
       orientation="1,0"
       id="guide1196" />
    <sodipodi:guide
       position="76.145829,76.14583"
       orientation="0,-1"
       id="guide1198" />
  </sodipodi:namedview>
  <defs
     id="defs2">
    <inkscape:path-effect
       effect="fillet_chamfer"
       id="path-effect1443"
       is_visible="true"
       lpeversion="1"
       satellites_param="F,0,0,1,0,1.3680859,0,1 @ F,0,0,1,0,1.42875,0,1 @ F,0,0,1,0,1.42875,0,1 @ F,0,0,1,0,1.42875,0,1 @ F,0,0,1,0,1.42875,0,1 @ F,0,0,1,0,1.42875,0,1 @ F,0,0,1,0,1.42875,0,1 @ F,0,0,1,0,1.42875,0,1 @ F,0,0,1,0,1.42875,0,1 @ F,0,0,1,0,0,0,1"
       unit="px"
       method="auto"
       mode="F"
       radius="5.4"
       chamfer_steps="1"
       flexible="false"
       use_knot_distance="true"
       apply_no_radius="true"
       apply_with_radius="true"
       only_selected="false"
       hide_knots="false" />
    <inkscape:path-effect
       effect="fillet_chamfer"
       id="path-effect1427"
       is_visible="true"
       lpeversion="1"
       satellites_param="F,0,0,1,0,1.42875,0,1 @ F,0,0,1,0,1.42875,0,1 @ F,0,0,1,0,1.42875,0,1 @ F,0,0,1,0,1.42875,0,1 @ F,0,0,1,0,1.2672024,0,1 @ F,0,0,1,0,1.7245151,0,1 @ F,0,0,1,0,1.42875,0,1 @ F,0,0,1,0,1.42875,0,1 @ F,0,0,1,0,1.42875,0,1 @ F,0,0,1,0,0,0,1"
       unit="px"
       method="auto"
       mode="F"
       radius="5.4"
       chamfer_steps="1"
       flexible="false"
       use_knot_distance="true"
       apply_no_radius="true"
       apply_with_radius="true"
       only_selected="false"
       hide_knots="false" />
    <inkscape:path-effect
       effect="fillet_chamfer"
       id="path-effect1145"
       is_visible="true"
       lpeversion="1"
       satellites_param="F,0,0,1,0,1.42875,0,1 @ F,0,0,1,0,1.42875,0,1 @ F,0,0,1,0,1.42875,0,1 @ F,0,0,1,0,1.42875,0,1 @ F,0,0,1,0,1.42875,0,1 @ F,0,0,1,0,1.8085666,0,1 @ F,0,0,1,0,1.42875,0,1 @ F,0,0,1,0,1.42875,0,1 @ F,0,0,1,0,0.013891936,0,1"
       unit="px"
       method="auto"
       mode="F"
       radius="5.4"
       chamfer_steps="1"
       flexible="false"
       use_knot_distance="true"
       apply_no_radius="true"
       apply_with_radius="true"
       only_selected="false"
       hide_knots="false" />
    <inkscape:path-effect
       effect="fillet_chamfer"
       id="path-effect6528"
       is_visible="true"
       lpeversion="1"
       satellites_param="F,0,0,1,0,1.42875,0,1 @ F,0,0,1,0,1.42875,0,1 @ F,0,0,1,0,1.42875,0,1 @ F,0,0,1,0,1.42875,0,1"
       unit="px"
       method="auto"
       mode="F"
       radius="5.4"
       chamfer_steps="1"
       flexible="false"
       use_knot_distance="true"
       apply_no_radius="true"
       apply_with_radius="true"
       only_selected="false"
       hide_knots="false" />
    <inkscape:path-effect
       effect="fillet_chamfer"
       id="path-effect6524"
       is_visible="true"
       lpeversion="1"
       satellites_param="F,0,0,1,0,1.42875,0,1 @ F,0,0,1,0,1.42875,0,1 @ F,0,0,1,0,1.42875,0,1 @ F,0,0,1,0,1.42875,0,1"
       unit="px"
       method="auto"
       mode="F"
       radius="5.4"
       chamfer_steps="1"
       flexible="false"
       use_knot_distance="true"
       apply_no_radius="true"
       apply_with_radius="true"
       only_selected="false"
       hide_knots="false" />
    <inkscape:path-effect
       effect="fillet_chamfer"
       id="path-effect6520"
       is_visible="true"
       lpeversion="1"
       satellites_param="F,0,0,1,0,1.42875,0,1 @ F,0,0,1,0,1.42875,0,1 @ F,0,0,1,0,1.42875,0,1 @ F,0,0,1,0,1.42875,0,1"
       unit="px"
       method="auto"
       mode="F"
       radius="5.4"
       chamfer_steps="1"
       flexible="false"
       use_knot_distance="true"
       apply_no_radius="true"
       apply_with_radius="true"
       only_selected="false"
       hide_knots="false" />
    <inkscape:path-effect
       effect="fillet_chamfer"
       id="path-effect6516"
       is_visible="true"
       lpeversion="1"
       satellites_param="F,0,0,1,0,1.42875,0,1 @ F,0,0,1,0,1.42875,0,1 @ F,0,0,1,0,1.42875,0,1 @ F,0,0,1,0,1.42875,0,1"
       unit="px"
       method="auto"
       mode="F"
       radius="5.4"
       chamfer_steps="1"
       flexible="false"
       use_knot_distance="true"
       apply_no_radius="true"
       apply_with_radius="true"
       only_selected="false"
       hide_knots="false" />
    <inkscape:path-effect
       effect="fillet_chamfer"
       id="path-effect6512"
       is_visible="true"
       lpeversion="1"
       satellites_param="F,0,0,1,0,1.42875,0,1 @ F,0,0,1,0,1.42875,0,1 @ F,0,0,1,0,1.42875,0,1 @ F,0,0,1,0,1.42875,0,1"
       unit="px"
       method="auto"
       mode="F"
       radius="5.4"
       chamfer_steps="1"
       flexible="false"
       use_knot_distance="true"
       apply_no_radius="true"
       apply_with_radius="true"
       only_selected="false"
       hide_knots="false" />
    <inkscape:path-effect
       effect="fillet_chamfer"
       id="path-effect6508"
       is_visible="true"
       lpeversion="1"
       satellites_param="F,0,0,1,0,1.42875,0,1 @ F,0,0,1,0,1.42875,0,1 @ F,0,0,1,0,1.42875,0,1 @ F,0,0,1,0,1.42875,0,1"
       unit="px"
       method="auto"
       mode="F"
       radius="5.4"
       chamfer_steps="1"
       flexible="false"
       use_knot_distance="true"
       apply_no_radius="true"
       apply_with_radius="true"
       only_selected="false"
       hide_knots="false" />
    <inkscape:path-effect
       effect="fillet_chamfer"
       id="path-effect6504"
       is_visible="true"
       lpeversion="1"
       satellites_param="F,0,0,1,0,1.42875,0,1 @ F,0,0,1,0,1.42875,0,1 @ F,0,0,1,0,1.42875,0,1 @ F,0,0,1,0,1.42875,0,1"
       unit="px"
       method="auto"
       mode="F"
       radius="5.4"
       chamfer_steps="1"
       flexible="false"
       use_knot_distance="true"
       apply_no_radius="true"
       apply_with_radius="true"
       only_selected="false"
       hide_knots="false" />
    <inkscape:path-effect
       effect="fillet_chamfer"
       id="path-effect5556"
       is_visible="true"
       lpeversion="1"
       satellites_param="F,0,0,1,0,1.7841231,0,1 @ F,0,0,1,0,1.42875,0,1 @ F,0,0,1,0,1.42875,0,1 @ F,0,0,1,0,1.42875,0,1 @ F,0,0,1,0,1.42875,0,1 @ F,0,0,1,0,1.42875,0,1 @ F,0,0,1,0,1.42875,0,1 @ F,0,0,1,0,1.42875,0,1"
       unit="px"
       method="auto"
       mode="F"
       radius="5.4"
       chamfer_steps="1"
       flexible="false"
       use_knot_distance="true"
       apply_no_radius="true"
       apply_with_radius="true"
       only_selected="false"
       hide_knots="false" />
    <inkscape:path-effect
       effect="fillet_chamfer"
       id="path-effect5264"
       is_visible="true"
       lpeversion="1"
       satellites_param="F,0,0,1,0,1.7632341,0,1 @ F,0,0,1,0,1.42875,0,1 @ F,0,0,1,0,1.42875,0,1 @ F,0,0,1,0,1.42875,0,1 @ F,0,0,1,0,1.42875,0,1 @ F,0,0,1,0,1.42875,0,1 @ F,0,0,1,0,1.42875,0,1 @ F,0,0,1,0,1.42875,0,1 @ F,0,0,1,0,1.42875,0,1 @ F,0,0,1,0,1.42875,0,1 @ F,0,0,1,0,1.42875,0,1 @ F,0,0,1,0,1.42875,0,1 @ F,0,0,1,0,1.42875,0,1 @ F,0,0,1,0,1.42875,0,1 @ F,0,0,1,0,1.42875,0,1 @ F,0,0,1,0,1.42875,0,1"
       unit="px"
       method="auto"
       mode="F"
       radius="5.4"
       chamfer_steps="1"
       flexible="false"
       use_knot_distance="true"
       apply_no_radius="true"
       apply_with_radius="true"
       only_selected="false"
       hide_knots="false" />
    <inkscape:path-effect
       effect="fillet_chamfer"
       id="path-effect4934"
       is_visible="true"
       lpeversion="1"
       satellites_param="F,0,0,1,0,1.9634624,0,1 @ F,0,0,1,0,1.1546574,0,1 @ F,0,0,1,0,1.42875,0,1 @ F,0,0,1,0,1.42875,0,1 @ F,0,0,1,0,1.42875,0,1 @ F,0,0,1,0,1.42875,0,1 @ F,0,0,1,0,1.42875,0,1 @ F,0,0,1,0,1.42875,0,1"
       unit="px"
       method="auto"
       mode="F"
       radius="5.4"
       chamfer_steps="1"
       flexible="false"
       use_knot_distance="true"
       apply_no_radius="true"
       apply_with_radius="true"
       only_selected="false"
       hide_knots="false" />
    <inkscape:path-effect
       effect="fillet_chamfer"
       id="path-effect4718"
       is_visible="true"
       lpeversion="1"
       satellites_param="F,0,0,1,0,1.42875,0,1 @ F,0,0,1,0,1.42875,0,1 @ F,0,0,1,0,1.42875,0,1 @ F,0,0,1,0,1.42875,0,1 @ F,0,0,1,0,1.42875,0,1 @ F,0,0,1,0,1.42875,0,1 @ F,0,0,1,0,1.42875,0,1 @ F,0,0,1,0,1.42875,0,1 @ F,0,0,1,0,1.42875,0,1 @ F,0,0,1,0,1.42875,0,1 @ F,0,0,1,0,1.42875,0,1 @ F,0,0,1,0,0,0,1"
       unit="px"
       method="auto"
       mode="F"
       radius="5.4"
       chamfer_steps="1"
       flexible="false"
       use_knot_distance="true"
       apply_no_radius="true"
       apply_with_radius="true"
       only_selected="false"
       hide_knots="false" />
    <inkscape:path-effect
       effect="fillet_chamfer"
       id="path-effect4691"
       is_visible="true"
       lpeversion="1"
       satellites_param="F,0,0,1,0,1.42875,0,1 @ F,0,0,1,0,1.42875,0,1 @ F,0,0,1,0,1.42875,0,1 @ F,0,0,1,0,1.42875,0,1 @ F,0,0,1,0,1.42875,0,1 @ F,0,0,1,0,1.42875,0,1 @ F,0,0,1,0,1.42875,0,1 @ F,0,0,1,0,1.42875,0,1 @ F,0,0,1,0,1.42875,0,1 @ F,0,0,1,0,9.3274632e-05,0,1 @ F,0,0,1,0,1.42875,0,1 @ F,0,0,1,0,1.42875,0,1 @ F,0,0,1,0,1.42875,0,1 @ F,0,0,1,0,1.42875,0,1 @ F,0,0,1,0,1.42875,0,1 @ F,0,0,1,0,1.42875,0,1 @ F,0,0,1,0,1.42875,0,1 @ F,0,0,1,0,0,0,1 @ F,0,0,1,0,1.42875,0,1 @ F,0,0,1,0,1.42875,0,1 @ F,0,0,1,0,1.42875,0,1 @ F,0,0,1,0,1.42875,0,1 @ F,0,0,1,0,1.42875,0,1"
       unit="px"
       method="auto"
       mode="F"
       radius="5.4"
       chamfer_steps="1"
       flexible="false"
       use_knot_distance="true"
       apply_no_radius="true"
       apply_with_radius="true"
       only_selected="false"
       hide_knots="false" />
    <inkscape:path-effect
       effect="fillet_chamfer"
       id="path-effect338"
       is_visible="true"
       lpeversion="1"
       satellites_param="F,0,0,1,0,1.42875,0,1 @ F,0,0,1,0,1.42875,0,1 @ F,0,0,1,0,1.42875,0,1 @ F,0,0,1,0,1.42875,0,1"
       unit="px"
       method="auto"
       mode="F"
       radius="5.4"
       chamfer_steps="1"
       flexible="false"
       use_knot_distance="true"
       apply_no_radius="true"
       apply_with_radius="true"
       only_selected="false"
       hide_knots="false" />
    <inkscape:path-effect
       effect="fillet_chamfer"
       id="path-effect26392"
       is_visible="true"
       lpeversion="1"
       satellites_param="F,0,0,1,0,1.42875,0,1 @ F,0,0,1,0,1.42875,0,1 @ F,0,0,1,0,1.42875,0,1 @ F,0,0,1,0,1.42875,0,1"
       unit="px"
       method="auto"
       mode="F"
       radius="5.4"
       chamfer_steps="1"
       flexible="false"
       use_knot_distance="true"
       apply_no_radius="true"
       apply_with_radius="true"
       only_selected="false"
       hide_knots="false" />
    <inkscape:path-effect
       effect="fillet_chamfer"
       id="path-effect26388"
       is_visible="true"
       lpeversion="1"
       satellites_param="F,0,0,1,0,1.42875,0,1 @ F,0,0,1,0,1.42875,0,1 @ F,0,0,1,0,1.42875,0,1 @ F,0,0,1,0,1.42875,0,1"
       unit="px"
       method="auto"
       mode="F"
       radius="5.4"
       chamfer_steps="1"
       flexible="false"
       use_knot_distance="true"
       apply_no_radius="true"
       apply_with_radius="true"
       only_selected="false"
       hide_knots="false" />
    <inkscape:path-effect
       effect="fillet_chamfer"
       id="path-effect26384"
       is_visible="true"
       lpeversion="1"
       satellites_param="F,0,0,1,0,1.42875,0,1 @ F,0,0,1,0,1.42875,0,1 @ F,0,0,1,0,1.42875,0,1 @ F,0,0,1,0,1.42875,0,1"
       unit="px"
       method="auto"
       mode="F"
       radius="5.4"
       chamfer_steps="1"
       flexible="false"
       use_knot_distance="true"
       apply_no_radius="true"
       apply_with_radius="true"
       only_selected="false"
       hide_knots="false" />
    <inkscape:path-effect
       effect="fillet_chamfer"
       id="path-effect26380"
       is_visible="true"
       lpeversion="1"
       satellites_param="F,0,0,1,0,1.42875,0,1 @ F,0,0,1,0,1.42875,0,1 @ F,0,0,1,0,1.42875,0,1 @ F,0,0,1,0,1.42875,0,1"
       unit="px"
       method="auto"
       mode="F"
       radius="5.4"
       chamfer_steps="1"
       flexible="false"
       use_knot_distance="true"
       apply_no_radius="true"
       apply_with_radius="true"
       only_selected="false"
       hide_knots="false" />
    <inkscape:path-effect
       effect="fillet_chamfer"
       id="path-effect26372"
       is_visible="true"
       lpeversion="1"
       satellites_param="F,0,0,1,0,1.42875,0,1 @ F,0,0,1,0,1.42875,0,1 @ F,0,0,1,0,1.42875,0,1 @ F,0,0,1,0,1.42875,0,1"
       unit="px"
       method="auto"
       mode="F"
       radius="5.4"
       chamfer_steps="1"
       flexible="false"
       use_knot_distance="true"
       apply_no_radius="true"
       apply_with_radius="true"
       only_selected="false"
       hide_knots="false" />
    <inkscape:path-effect
       effect="fillet_chamfer"
       id="path-effect26368"
       is_visible="true"
       lpeversion="1"
       satellites_param="F,0,0,1,0,1.42875,0,1 @ F,0,0,1,0,1.42875,0,1 @ F,0,0,1,0,1.42875,0,1 @ F,0,0,1,0,1.42875,0,1"
       unit="px"
       method="auto"
       mode="F"
       radius="5.4"
       chamfer_steps="1"
       flexible="false"
       use_knot_distance="true"
       apply_no_radius="true"
       apply_with_radius="true"
       only_selected="false"
       hide_knots="false" />
    <inkscape:path-effect
       effect="fillet_chamfer"
       id="path-effect26364"
       is_visible="true"
       lpeversion="1"
       satellites_param="F,0,0,1,0,1.42875,0,1 @ F,0,0,1,0,1.42875,0,1 @ F,0,0,1,0,1.42875,0,1 @ F,0,0,1,0,1.42875,0,1"
       unit="px"
       method="auto"
       mode="F"
       radius="5.4"
       chamfer_steps="1"
       flexible="false"
       use_knot_distance="true"
       apply_no_radius="true"
       apply_with_radius="true"
       only_selected="false"
       hide_knots="false" />
    <inkscape:path-effect
       effect="fillet_chamfer"
       id="path-effect26360"
       is_visible="true"
       lpeversion="1"
       satellites_param="F,0,0,1,0,1.42875,0,1 @ F,0,0,1,0,1.42875,0,1 @ F,0,0,1,0,1.42875,0,1 @ F,0,0,1,0,1.42875,0,1"
       unit="px"
       method="auto"
       mode="F"
       radius="5.4"
       chamfer_steps="1"
       flexible="false"
       use_knot_distance="true"
       apply_no_radius="true"
       apply_with_radius="true"
       only_selected="false"
       hide_knots="false" />
    <inkscape:path-effect
       effect="fillet_chamfer"
       id="path-effect26356"
       is_visible="true"
       lpeversion="1"
       satellites_param="F,0,0,1,0,1.42875,0,1 @ F,0,0,1,0,1.42875,0,1 @ F,0,0,1,0,1.42875,0,1 @ F,0,0,1,0,1.42875,0,1"
       unit="px"
       method="auto"
       mode="F"
       radius="5.4"
       chamfer_steps="1"
       flexible="false"
       use_knot_distance="true"
       apply_no_radius="true"
       apply_with_radius="true"
       only_selected="false"
       hide_knots="false" />
    <inkscape:path-effect
       effect="fillet_chamfer"
       id="path-effect31126"
       is_visible="true"
       lpeversion="1"
       satellites_param="F,0,0,1,0,1.5875,0,1 @ F,0,0,1,0,1.5875,0,1 @ F,0,0,1,0,1.5875,0,1 @ F,0,0,1,0,1.5875,0,1 @ F,0,0,1,0,1.5875,0,1 @ F,0,0,1,0,1.5875,0,1 @ F,0,0,1,0,1.5875,0,1 @ F,0,0,1,0,1.5875,0,1 @ F,0,0,1,0,1.5875,0,1 @ F,0,0,1,0,1.5875,0,1 @ F,0,0,1,0,1.5875,0,1 @ F,0,0,1,0,1.5875,0,1 @ F,0,0,1,0,1.5875,0,1 @ F,0,0,1,0,1.5875,0,1 @ F,0,0,1,0,1.5875,0,1 @ F,0,0,1,0,1.5875,0,1 @ F,0,0,1,0,1.5875,0,1 @ F,0,0,1,0,1.5875,0,1 @ F,0,0,1,0,1.5875,0,1 @ F,0,0,1,0,1.5875,0,1 @ F,0,0,1,0,1.5875,0,1 @ F,0,0,1,0,1.5875,0,1 @ F,0,0,1,0,0.025097858,0,1 @ F,0,0,1,0,0.025097858,0,1 @ F,0,0,1,0,0.89711184,0,1 @ F,0,0,1,0,1.5875,0,1 @ F,0,0,1,0,1.5875,0,1 @ F,0,0,1,0,1.5875,0,1 @ F,0,0,1,0,1.5875,0,1 @ F,0,0,1,0,1.5875,0,1 @ F,0,0,1,0,1.5875,0,1 @ F,0,0,1,0,1.5875,0,1 @ F,0,0,1,0,1.5875,0,1 @ F,0,0,1,0,1.5875,0,1 @ F,0,0,1,0,1.5875,0,1 @ F,0,0,1,0,1.5875,0,1 @ F,0,0,1,0,1.5875,0,1 @ F,0,0,1,0,1.5875,0,1 @ F,0,0,1,0,1.5875,0,1 @ F,0,0,1,0,1.5875,0,1 @ F,0,0,1,0,1.5875,0,1 @ F,0,0,1,0,1.5875,0,1 @ F,0,0,1,0,1.5875,0,1 @ F,0,0,1,0,1.5875,0,1 @ F,0,0,1,0,1.5875,0,1 @ F,0,0,1,0,1.5875,0,1 @ F,0,0,1,0,1.5875,0,1 @ F,0,0,1,0,1.5875,0,1 @ F,0,0,1,0,1.5875,0,1 @ F,0,0,1,0,1.5875,0,1 @ F,0,0,1,0,1.5875,0,1 @ F,0,0,1,0,1.5875,0,1 @ F,0,0,1,0,1.5875,0,1 @ F,0,0,1,0,1.5875,0,1 @ F,0,0,1,0,1.5875,0,1 @ F,0,0,1,0,1.5875,0,1 @ F,0,0,1,0,1.5875,0,1 @ F,0,0,1,0,1.5875,0,1 @ F,0,0,1,0,1.5875,0,1 @ F,0,0,1,0,1.5875,0,1"
       unit="px"
       method="auto"
       mode="F"
       radius="6"
       chamfer_steps="1"
       flexible="false"
       use_knot_distance="true"
       apply_no_radius="true"
       apply_with_radius="true"
       only_selected="false"
       hide_knots="false" />
  </defs>
  <g
     inkscape:label="logo"
     id="layer1"
     style="display:inline;fill:#ffffff"
     transform="translate(46.296001,29.355251)"
     sodipodi:insensitive="true">
    <g
       id="g3838"
       inkscape:label="h-strokes">
      <g
         id="g23044"
         style="display:inline;fill:#ffffff"
         inkscape:label="foot">
        <path
           id="rect22996"
           style="display:inline;fill:#ffffff;stroke-width:1.18226"
           d="m 54.826802,90.045349 0.1425,0 a 1.42875,1.42875 45 0 1 1.42875,1.42875 V 98.6166 a 1.42875,1.42875 135 0 1 -1.42875,1.42875 l -0.1425,0 a 1.42875,1.42875 45 0 1 -1.42875,-1.42875 v -7.142501 a 1.42875,1.42875 135 0 1 1.42875,-1.42875 z"
           inkscape:path-effect="#path-effect26388"
           inkscape:original-d="m 53.398052,90.045349 h 3 v 10.000001 h -3 z"
           inkscape:label="rect-f35" />
        <path
           id="rect23000"
           style="display:inline;fill:#ffffff;stroke-width:1.29511"
           d="m 60.35336,88.045349 0.1425,0 a 1.42875,1.42875 45 0 1 1.42875,1.42875 V 98.6166 a 1.42875,1.42875 135 0 1 -1.42875,1.42875 l -0.1425,0 A 1.42875,1.42875 45 0 1 58.92461,98.6166 v -9.142501 a 1.42875,1.42875 135 0 1 1.42875,-1.42875 z"
           inkscape:path-effect="#path-effect26380"
           inkscape:original-d="m 58.92461,88.045349 h 3 v 12.000001 h -3 z"
           inkscape:label="rect-f44" />
        <path
           id="rect23038"
           style="display:inline;fill:#ffffff;stroke-width:1.52785"
           d="m 54.826802,70.345001 h 0.1425 a 1.42875,1.42875 45 0 1 1.42875,1.42875 v 13.842501 a 1.42875,1.42875 135 0 1 -1.42875,1.42875 l -0.1425,0 a 1.42875,1.42875 45 0 1 -1.42875,-1.42875 V 71.773751 a 1.42875,1.42875 135 0 1 1.42875,-1.42875 z"
           inkscape:path-effect="#path-effect26360"
           inkscape:original-d="m 53.398052,70.345001 h 3 v 16.700001 h -3 z"
           inkscape:label="rect-f34" />
        <path
           id="rect22998"
           style="display:inline;fill:#ffffff;stroke-width:1.67198"
           d="m 49.299801,80.045349 h 0.1425 a 1.42875,1.42875 45 0 1 1.42875,1.42875 l 0,17.142501 a 1.42875,1.42875 135 0 1 -1.42875,1.42875 l -0.1425,0 A 1.42875,1.42875 45 0 1 47.871051,98.6166 V 81.474099 a 1.42875,1.42875 135 0 1 1.42875,-1.42875 z"
           inkscape:path-effect="#path-effect26384"
           inkscape:original-d="m 47.871051,80.045349 h 3 v 20.000001 h -3 z"
           inkscape:label="rect-f24" />
        <path
           id="rect22994"
           style="display:inline;fill:#ffffff;stroke-width:1.44799"
           d="m 43.7738,85.045349 0.1425,0 a 1.42875,1.42875 45 0 1 1.42875,1.42875 V 98.6166 a 1.42875,1.42875 135 0 1 -1.42875,1.42875 l -0.1425,0 A 1.42875,1.42875 45 0 1 42.34505,98.6166 V 86.474099 a 1.42875,1.42875 135 0 1 1.42875,-1.42875 z"
           inkscape:path-effect="#path-effect26392"
           inkscape:original-d="m 42.34505,85.045349 h 3 v 15.000001 h -3 z"
           inkscape:label="rect-f14" />
        <path
           id="rect23038-8"
           style="display:inline;fill:#ffffff;stroke-width:1.49549"
           d="m 60.348046,69.348 h 0.1425 a 1.42875,1.42875 45 0 1 1.42875,1.42875 l 0,13.1425 a 1.42875,1.42875 135 0 1 -1.42875,1.42875 l -0.1425,0 a 1.42875,1.42875 45 0 1 -1.42875,-1.42875 l 0,-13.1425 a 1.42875,1.42875 135 0 1 1.42875,-1.42875 z"
           inkscape:path-effect="#path-effect338"
           inkscape:original-d="m 58.919296,69.348 h 3 v 16 h -3 z"
           inkscape:label="rect-f43" />
        <path
           id="rect23040"
           style="display:inline;fill:#ffffff;stroke-width:0.835998"
           d="m 54.826802,62.345001 0.1425,0 a 1.42875,1.42875 45 0 1 1.42875,1.42875 v 2.1425 a 1.42875,1.42875 135 0 1 -1.42875,1.42875 h -0.1425 a 1.42875,1.42875 45 0 1 -1.42875,-1.42875 v -2.1425 a 1.42875,1.42875 135 0 1 1.42875,-1.42875 z"
           inkscape:path-effect="#path-effect26356"
           inkscape:original-d="m 53.398052,62.345001 h 3 v 5 h -3 z"
           inkscape:label="rect-f33" />
        <path
           id="rect23036"
           style="display:inline;fill:#ffffff;stroke-width:1.33221"
           d="m 49.300049,64.348 h 0.1425 a 1.42875,1.42875 45 0 1 1.42875,1.42875 l 0,9.839499 a 1.42875,1.42875 135 0 1 -1.42875,1.42875 h -0.1425 a 1.42875,1.42875 45 0 1 -1.42875,-1.42875 V 65.77675 a 1.42875,1.42875 135 0 1 1.42875,-1.42875 z"
           inkscape:path-effect="#path-effect26364"
           inkscape:original-d="m 47.871299,64.348 h 3 v 12.696999 h -3 z"
           inkscape:label="rect-f23" />
        <path
           id="rect23034"
           style="display:inline;fill:#ffffff;stroke-width:0.766935"
           d="m 43.7738,77.836998 h 0.1425 a 1.42875,1.42875 45 0 1 1.42875,1.42875 v 1.3505 a 1.42875,1.42875 135 0 1 -1.42875,1.42875 h -0.1425 a 1.42875,1.42875 45 0 1 -1.42875,-1.42875 v -1.3505 a 1.42875,1.42875 135 0 1 1.42875,-1.42875 z"
           inkscape:path-effect="#path-effect26368"
           inkscape:original-d="m 42.34505,77.836998 h 3 v 4.208 h -3 z"
           inkscape:label="rect-f13" />
        <path
           id="rect23032"
           style="display:inline;fill:#ffffff;stroke-width:1.44799"
           d="m 43.7738,59.837002 h 0.1425 a 1.42875,1.42875 45 0 1 1.42875,1.42875 v 12.1425 a 1.42875,1.42875 135 0 1 -1.42875,1.42875 l -0.1425,0 a 1.42875,1.42875 45 0 1 -1.42875,-1.42875 v -12.1425 a 1.42875,1.42875 135 0 1 1.42875,-1.42875 z"
           inkscape:path-effect="#path-effect26372"
           inkscape:original-d="m 42.34505,59.837002 h 3 v 15 h -3 z"
           inkscape:label="rect-f12" />
        <path
           style="display:inline;fill:#ffffff;stroke:none;stroke-width:1.00737;stroke-miterlimit:4;stroke-dasharray:none;stroke-opacity:1"
           inkscape:path-effect="#path-effect5556"
           inkscape:original-d="m 58.216085,37.585303 -2.292369,1.954403 A 13.579556,18.850244 0 0 1 58.9194,51.348287 v 0.999938 14.000178 h 2.999817 V 52.348225 51.348287 A 16.579556,21.850243 0 0 0 58.216085,37.585303 Z"
           d="m 56.858414,38.742811 c -0.51623,0.440122 -0.609529,1.348894 -0.264427,2.058314 1.319111,2.711675 2.107493,5.854967 2.286314,9.119127 0.04316,0.787796 0.0391,1.875718 0.0391,2.427973 v 12.571428 a 1.42875,1.42875 45 0 0 1.42875,1.42875 l 0.142317,0 a 1.42875,1.42875 135 0 0 1.42875,-1.42875 V 53.776975 51.348287 c -0.227384,-5.286363 -1.192845,-9.00621 -2.829675,-12.207824 -0.448423,-0.877108 -1.481307,-1.036926 -2.231128,-0.397652 z"
           id="path329"
           inkscape:label="rect-f42-bend" />
        <path
           style="display:inline;fill:#ffffff;stroke:none;stroke-width:1.00737;stroke-miterlimit:4;stroke-dasharray:none;stroke-opacity:1"
           d="m 36.085137,30.866026 v 0.202981 a 1.42875,1.42875 45 0 0 1.42875,1.42875 h 6.39723 1.43395 c 3.75423,0.447124 5.983264,1.621769 7.891547,3.515576 0.559869,0.555621 1.452005,0.63756 2.052415,0.125554 l 0.08243,-0.07029 c 0.60041,-0.512006 0.680017,-1.42195 0.128367,-1.985885 -2.521035,-2.577178 -5.552975,-4.140285 -8.729172,-4.503132 -0.783543,-0.08951 -1.42795,-0.08163 -1.430822,-0.08163 h -7.254853 -0.631759 a 1.3680859,1.3680859 135 0 0 -1.368086,1.368086 z"
           id="path22990"
           inkscape:path-effect="#path-effect1443"
           inkscape:original-d="m 36.085137,29.49794 v 2.999817 h 1.999877 7.254853 0.0052 a 13.579556,18.850244 0 0 1 8.856823,4.568198 l 2.256711,-1.924431 A 16.579556,21.850243 0 0 0 45.345035,29.49794 h -0.0052 -7.254853 z"
           inkscape:label="rect-f41-bend" />
        <path
           style="display:inline;fill:#ffffff;stroke:none;stroke-width:0.771655;stroke-miterlimit:4;stroke-dasharray:none;stroke-opacity:1"
           inkscape:path-effect="#path-effect5264"
           inkscape:original-d="m 50.311139,37.399266 -1.680001,2.463417 a 11.053203,13.926479 0 0 1 4.767152,11.453563 11.053203,13.926479 0 0 1 -5.16e-4,0.03204 v 0.999938 h 5.16e-4 v 6.99699 h 2.999816 v -6.99699 -0.999938 a 14.052997,16.958241 0 0 0 0,-5.18e-4 14.052997,16.958241 0 0 0 0,-5.16e-4 14.052997,16.958241 0 0 0 0,-5.16e-4 14.052997,16.958241 0 0 0 0,-5.19e-4 14.052997,16.958241 0 0 0 0,-5.16e-4 14.052997,16.958241 0 0 0 0,-5.15e-4 14.052997,16.958241 0 0 0 -6.086967,-13.94592 z"
           d="m 49.317683,38.855989 c -0.379176,0.555993 -0.197151,1.422812 0.330968,2.008457 2.085857,2.313064 3.406252,5.537303 3.691414,9.02456 0.05771,1.45928 0.05771,1.45928 0.05771,1.45928 v 0.999938 h 5.16e-4 v 5.56824 a 1.42875,1.42875 45 0 0 1.42875,1.42875 h 0.142316 a 1.42875,1.42875 135 0 0 1.42875,-1.42875 l 0,-4.13949 0,-2.428688 c 0,-5.18e-4 0,-5.18e-4 0,-5.18e-4 0,-5.16e-4 0,-5.16e-4 0,-5.16e-4 0,-5.16e-4 0,-5.16e-4 0,-5.16e-4 0,-5.19e-4 0,-5.19e-4 0,-5.19e-4 0,-5.16e-4 0,-5.16e-4 0,-5.16e-4 0,-5.15e-4 0,-5.15e-4 0,-5.15e-4 -0.362719,-5.803071 -2.07023,-9.858655 -4.80141,-12.740555 -0.669485,-0.70643 -1.730342,-0.553168 -2.279013,0.251358 z"
           id="path370"
           inkscape:label="rect-f32-bend" />
        <path
           style="display:inline;fill:#ffffff;stroke:none;stroke-width:0.771655;stroke-miterlimit:4;stroke-dasharray:none;stroke-opacity:1"
           d="m 36.090304,35.8189 v 0.142316 a 1.42875,1.42875 45 0 0 1.42875,1.42875 h 3.397414 c 0.789077,0 2.073372,-0.0096 2.8509,0.119789 0.390362,0.06494 0.777739,0.15612 1.160465,0.273171 0.668754,0.204528 1.502668,-0.01731 1.896941,-0.595543 l 0.01473,-0.0216 c 0.53656,-0.786902 0.286541,-1.790647 -0.611775,-2.104834 -0.801617,-0.280367 -1.622517,-0.474064 -2.452944,-0.578676 -0.782401,-0.09856 -1.424917,-0.09184 -1.424917,-0.09212 h -0.0047 -4.255037 -0.571078 a 1.42875,1.42875 135 0 0 -1.42875,1.42875 z"
           id="path22986"
           inkscape:path-effect="#path-effect1427"
           inkscape:original-d="m 36.090304,34.39015 v 2.999816 h 1.999877 4.255037 a 11.053203,13.926479 0 0 1 3.765661,0.844392 l 1.700154,-2.493389 a 14.052997,16.958241 0 0 0 -5.461164,-1.350303 v -5.16e-4 h -0.0047 -4.255037 z"
           inkscape:label="rect-f31-bend" />
        <path
           style="display:inline;fill:#ffffff;stroke:none;stroke-width:0.546148;stroke-miterlimit:4;stroke-dasharray:none;stroke-opacity:1"
           inkscape:path-effect="#path-effect4934"
           inkscape:original-d="m 49.68844,45.821491 -2.501657,1.820045 a 7.6536192,9.0662373 0 0 1 0.684713,3.706751 v 0.999938 8.999968 h 2.999817 V 52.348225 51.348287 A 10.653616,12.066232 0 0 0 49.68844,45.821491 Z"
           d="m 48.100716,46.976617 c -0.504763,0.367233 -0.7223,1.147183 -0.563127,1.764344 0.100035,0.387862 0.177964,0.783153 0.233293,1.183191 0.108026,0.781054 0.100614,1.871818 0.100614,2.424073 v 7.571218 a 1.42875,1.42875 45 0 0 1.42875,1.42875 l 0.142317,0 a 1.42875,1.42875 135 0 0 1.42875,-1.42875 v -6.142468 -2.428688 c -0.155166,-2.193416 -0.300598,-2.94974 -0.508647,-3.68471 -0.295074,-1.042401 -1.385074,-1.324918 -2.26195,-0.68696 z"
           id="path199"
           inkscape:label="rect-f22-bend" />
        <path
           style="display:inline;fill:#ffffff;stroke:none;stroke-width:0.546148;stroke-miterlimit:4;stroke-dasharray:none;stroke-opacity:1"
           d="m 36.090304,40.71059 v 0.142833 a 1.42875,1.42875 45 0 0 1.42875,1.42875 c 2.385807,0 3.34734,-0.01287 4.115417,0.160908 1.101033,0.249113 2.143371,0.782054 3.052051,1.561218 0.598255,0.512986 1.514278,0.644563 2.15238,0.180378 0.706433,-0.513892 0.782477,-1.578023 0.04397,-2.248976 -1.507137,-1.369266 -3.317381,-2.250258 -5.23526,-2.544605 -0.779195,-0.119587 -1.42619,-0.109256 -1.42989,-0.109256 H 38.10409 37.519054 a 1.42875,1.42875 135 0 0 -1.42875,1.42875 z"
           id="path22988"
           sodipodi:nodetypes="ccccccsccc"
           inkscape:path-effect="#path-effect1145"
           inkscape:original-d="m 36.090304,39.28184 v 3.000333 h 1.999877 2.12752 c 2.059263,0.0061 4.029583,0.994863 5.465815,2.742986 l 2.434476,-1.770952 C 46.100016,40.727203 43.232791,39.284299 40.224418,39.28184 h -0.0067 -2.12752 z"
           inkscape:label="rect-f21-bend" />
        <path
           id="rect23002"
           style="display:inline;fill:#ffffff;stroke:none;stroke-width:0.835996;stroke-miterlimit:4;stroke-dasharray:none;stroke-opacity:1"
           d="m 36.090304,45.602281 v 0.142833 a 1.42875,1.42875 45 0 0 1.42875,1.42875 c 0.315434,0 1.231187,-0.02217 1.974253,0.232485 1.209278,0.414422 2.169805,1.349321 2.602314,2.531399 0.269792,0.737363 0.249081,1.84737 0.249081,2.399626 h 5.16e-4 v 3.071233 a 1.42875,1.42875 45 0 0 1.42875,1.42875 h 0.142317 a 1.42875,1.42875 135 0 0 1.42875,-1.42875 v -1.642483 -1.928979 -0.499711 c -0.814347,-4.696865 -3.743618,-7.163815 -7.254854,-7.163903 h -0.571127 a 1.42875,1.42875 135 0 0 -1.42875,1.42875 z"
           inkscape:path-effect="#path-effect4718"
           inkscape:original-d="m 36.090304,44.173531 v 3.000333 h 1.999877 a 4.255054,4.174591 0 0 1 4.254521,4.16357 v 0.99994 h 5.16e-4 v 4.499983 h 2.999817 v -4.499983 -0.500229 -0.499711 a 7.2550464,7.1745929 0 0 0 -7.254854,-7.163903 z"
           inkscape:label="rect-f11-bend" />
      </g>
      <g
         id="g7750"
         style="display:inline;fill:#ffffff"
         inkscape:label="head">
        <path
           id="rect6728"
           style="display:inline;fill:#ffffff;stroke:none;stroke-width:1.44798;stroke-miterlimit:4;stroke-dasharray:none;stroke-opacity:1"
           d="m 11.053072,18.428746 v 11.327163 a 1.42875,1.42875 135 0 1 -1.42875,1.42875 1.2742508,1.2742508 52.451843 0 1 -1.0982276,-1.42875 v -6.326952 a 1.42875,1.42875 45 0 0 -1.42875,-1.42875 H 6.9545109 a 1.42875,1.42875 135 0 0 -1.42875,1.42875 v 1.845572 a 1.42875,1.42875 135 0 1 -1.42875,1.42875 1.2738055,1.2738055 52.477909 0 1 -1.0971939,-1.42875 v -3.845966 a 1.42875,1.42875 45 0 0 -1.42875,-1.42875 H 1.42875 A 1.42875,1.42875 135 0 0 0,21.428563 v 13.571274 a 9.3274632e-5,9.3274632e-5 45 0 0 9.3274632e-5,9.3e-5 H 1.571067 h 2.8575 2.6871744 2.839103 2.7708906 2.755904 1.298215 2.799829 v -9.571095 a 1.42875,1.42875 45 0 0 -1.42875,-1.42875 h -0.142834 a 1.42875,1.42875 135 0 0 -1.42875,1.42875 v 2.642422 a 1.42875,1.42875 135 0 1 -1.42875,1.42875 1.2740278,1.2740278 52.464893 0 1 -1.09771,-1.42875 v -9.642511 a 1.42875,1.42875 45 0 0 -1.42875,-1.42875 l -0.142317,0 a 1.42875,1.42875 135 0 0 -1.42875,1.42875 z"
           inkscape:original-d="M 11.053072,16.999996 V 31.184659 H 8.5260944 V 22.000207 H 5.5257609 v 4.703072 H 2.999817 V 19.999813 H 0 V 34.99993 h 2.999817 2.6871744 2.839103 2.7708906 2.755904 2.52646 0.200505 2.799829 V 24.000085 h -3.000334 v 5.499922 h -2.52646 V 16.999996 Z"
           inkscape:path-effect="#path-effect4691"
           inkscape:label="rect-h1h4-transition" />
        <path
           style="display:inline;fill:#ffffff;stroke:none;stroke-width:1.58618;stroke-miterlimit:4;stroke-dasharray:none;stroke-opacity:1"
           id="rect6728-4-5-2"
           width="3"
           height="18"
           x="16.579561"
           y="2"
           d="m 18.008311,2 h 0.1425 a 1.42875,1.42875 45 0 1 1.42875,1.42875 l 0,15.1425 A 1.42875,1.42875 135 0 1 18.150811,20 h -0.1425 a 1.42875,1.42875 45 0 1 -1.42875,-1.42875 V 3.42875 A 1.42875,1.42875 135 0 1 18.008311,2 Z"
           sodipodi:type="rect"
           inkscape:path-effect="#path-effect6504"
           inkscape:label="rect-h42" />
        <path
           style="display:inline;fill:#ffffff;stroke:none;stroke-width:1.42363;stroke-miterlimit:4;stroke-dasharray:none;stroke-opacity:1"
           id="rect6728-4-2-3-35"
           width="3"
           height="14.5"
           x="5.526001"
           y="4"
           d="m 6.954751,4 h 0.1425 a 1.42875,1.42875 45 0 1 1.42875,1.42875 v 11.6425 A 1.42875,1.42875 135 0 1 7.097251,18.5 h -0.1425 a 1.42875,1.42875 45 0 1 -1.42875,-1.42875 l 0,-11.6425 A 1.42875,1.42875 135 0 1 6.954751,4 Z"
           sodipodi:type="rect"
           inkscape:path-effect="#path-effect6512"
           inkscape:label="rect-h22" />
        <path
           style="display:inline;fill:#ffffff;stroke:none;stroke-width:0.835998;stroke-miterlimit:4;stroke-dasharray:none;stroke-opacity:1"
           id="rect6728-1-6"
           width="3"
           height="5"
           x="7.1525574e-07"
           y="11"
           d="m 1.4287507,11 h 0.1425 a 1.42875,1.42875 45 0 1 1.42875,1.42875 v 2.1425 A 1.42875,1.42875 135 0 1 1.5712507,16 h -0.1425 A 1.42875,1.42875 45 0 1 7.1525574e-7,14.57125 l 0,-2.1425 A 1.42875,1.42875 135 0 1 1.4287507,11 Z"
           sodipodi:type="rect"
           inkscape:path-effect="#path-effect6516"
           inkscape:label="rect-h12" />
        <path
           style="display:inline;fill:#ffffff;stroke:none;stroke-width:0.953173;stroke-miterlimit:4;stroke-dasharray:none;stroke-opacity:1"
           id="rect6728-4-2-3-3"
           width="3"
           height="6.5"
           x="16.579561"
           y="-6.5"
           d="m 18.008311,-6.5 h 0.1425 a 1.42875,1.42875 45 0 1 1.42875,1.42875 v 3.6425 A 1.42875,1.42875 135 0 1 18.150811,0 h -0.1425 a 1.42875,1.42875 45 0 1 -1.42875,-1.42875 v -3.6425 A 1.42875,1.42875 135 0 1 18.008311,-6.5 Z"
           sodipodi:type="rect"
           inkscape:path-effect="#path-effect6528"
           inkscape:label="rect-h41" />
        <path
           style="display:inline;fill:#ffffff;stroke:none;stroke-width:1.81238;stroke-miterlimit:4;stroke-dasharray:none;stroke-opacity:1"
           id="rect6728-4-21"
           width="3"
           height="23.5"
           x="11.053002"
           y="-10"
           d="m 12.481752,-10 h 0.1425 a 1.42875,1.42875 45 0 1 1.42875,1.42875 v 20.6425 A 1.42875,1.42875 135 0 1 12.624252,13.5 h -0.1425 a 1.42875,1.42875 45 0 1 -1.42875,-1.42875 V -8.57125 A 1.42875,1.42875 135 0 1 12.481752,-10 Z"
           sodipodi:type="rect"
           inkscape:path-effect="#path-effect6508"
           inkscape:label="rect-h31" />
        <path
           style="display:inline;fill:#ffffff;stroke:none;stroke-width:0.74773;stroke-miterlimit:4;stroke-dasharray:none;stroke-opacity:1"
           id="rect6728-4-2-3"
           width="3"
           height="4"
           x="5.526001"
           y="-2"
           d="m 6.954751,-2 h 0.1425 a 1.42875,1.42875 45 0 1 1.42875,1.42875 v 1.1425 A 1.42875,1.42875 135 0 1 7.097251,2 h -0.1425 A 1.42875,1.42875 45 0 1 5.526001,0.57125 v -1.1425 A 1.42875,1.42875 135 0 1 6.954751,-2 Z"
           sodipodi:type="rect"
           inkscape:path-effect="#path-effect6524"
           inkscape:label="rect-h21" />
        <path
           style="display:inline;fill:#ffffff;stroke:none;stroke-width:1.44799;stroke-miterlimit:4;stroke-dasharray:none;stroke-opacity:1"
           id="rect6728-1"
           width="3"
           height="15"
           x="7.664795e-07"
           y="-6"
           d="m 1.4287508,-6 h 0.1425 a 1.42875,1.42875 45 0 1 1.42875,1.42875 l 0,12.1425 A 1.42875,1.42875 135 0 1 1.5712508,9 h -0.1425 A 1.42875,1.42875 45 0 1 7.664795e-7,7.57125 l 0,-12.1425 A 1.42875,1.42875 135 0 1 1.4287508,-6 Z"
           sodipodi:type="rect"
           inkscape:path-effect="#path-effect6520"
           inkscape:label="rect-h11" />
      </g>
    </g>
    <path
       id="path14471-4-6"
       style="font-weight:bold;font-family:Asap;-inkscape-font-specification:'Asap Bold';display:inline;fill:#ffffff;stroke-width:0.264583"
       inkscape:label="r-base"
       d="M 5.2504054e-5,34.281081 C 7.6887105e-4,56.588822 4.9577578e-4,76.117687 4.8277419e-4,98.42543 c 0,0.876752 0.71075280581,1.59153 1.58751552581,1.59569 3.3073947,0.0157 11.0711127,0.045 16.4039737,0.006 0.876622,-0.006 1.58724,-0.725238 1.58724,-1.60199 V 54.901465 c 0,-0.876752 0.182957,-1.896353 0.43822,-2.257227 0.5209,-0.686263 0.5209,-0.686263 0.5209,-0.686263 0.60358,-0.702799 0.60358,-0.702799 0.60358,-0.702799 0.68626,-0.719336 0.68626,-0.719336 0.68626,-0.719336 0.76895,-0.760677 0.76895,-0.760677 0.76895,-0.760677 0.85162,-0.694531 0.85162,-0.694531 0.85162,-0.694531 0.93431,-0.628386 0.93431,-0.628386 0.93431,-0.628386 1.017,-0.562239 1.017,-0.562239 1.017,-0.562239 1.0914,-0.520899 1.0914,-0.520899 1.0914,-0.520899 1.15755,-0.37207 1.15755,-0.37207 1.15755,-0.37207 1.2237,-0.223242 1.2237,-0.223242 1.2237,-0.223242 1.28985,-0.07441 1.28985,-0.07441 1.28985,-0.07441 0.55242,0.01188 0.55242,0.01188 0.55242,0.01188 1.14101,0.07286 1.14101,0.07286 1.14101,0.07286 0.23358,0.02894 0.23358,0.02894 0.23358,0.02894 0.56948,0.09198 0.56948,0.09198 0.56948,0.09198 0.17208,0.03359 0.17208,0.03359 0.17208,0.03359 0.77411,0.190169 0.77411,0.190169 0.77411,0.190169 0.0238,0.0057 0.0238,0.0057 0.0238,0.0057 0,0 0,0 0,0 0.01383,0 0.03456,0.01103 0.04784,0.01501 0.385719,0.115774 0.697871,-0.190275 0.69787,-0.685741 -3e-6,-2.850748 -1.1e-5,-11.728709 -6e-6,-15.374771 10e-7,-0.876742 -0.641789,-1.585724 -1.433493,-1.587481 h -5.3e-4 c -1.38338,0.04961 -1.38338,0.04961 -1.38338,0.04961 -10e-4,0 -10e-4,0 -10e-4,0 -0.003,5.16e-4 -0.003,5.16e-4 -0.003,5.16e-4 -1.30483,0.147795 -1.30483,0.147795 -1.30483,0.147795 -0.007,0.0015 -0.007,0.0015 -0.007,0.0015 -1.22679,0.24598 -1.22679,0.24598 -1.22679,0.24598 -0.0109,0.0026 -0.0109,0.0026 -0.0109,0.0026 -1.1498,0.343648 -1.1498,0.343648 -1.1498,0.343648 -0.0129,0.0047 -0.0129,0.0047 -0.0129,0.0047 -1.07281,0.4408 -1.07281,0.4408 -1.07281,0.4408 -0.0155,0.0072 -0.0155,0.0072 -0.0155,0.0072 -0.99684,0.536918 -0.99684,0.536918 -0.99684,0.536918 -0.0165,0.01034 -0.0165,0.01034 -0.0165,0.01034 -0.92087,0.633037 -0.92087,0.633037 -0.92087,0.633037 -0.0186,0.01395 -0.0186,0.01395 -0.0186,0.01395 -0.84491,0.728121 -0.84491,0.728121 -0.84491,0.728121 -0.01,0.0083 -0.01,0.0083 -0.01,0.0083 -0.0176,0.01705 -0.0176,0.01705 -0.0176,0.01705 -1.136579,1.10801 -1.136579,1.10801 -1.136579,1.10801 -0.06744,0.06918 -0.06744,0.06918 -0.06744,0.06918 -0.0165,0.01757 -0.0165,0.01757 -0.0165,0.01757 -1.067658,1.17455 -1.067658,1.17455 -1.067658,1.17455 -0.0465,0.05433 -0.0465,0.05433 -0.0465,0.05433 -0.0171,0.02067 -0.0171,0.02067 -0.0171,0.02067 l -0.003,0.0036 c -0.99178,1.239274 -0.99178,1.239274 -0.99178,1.239274 -0.04016,0.05264 -0.04016,0.05264 -0.04016,0.05264 -0.016,0.02222 -0.016,0.02222 -0.016,0.02222 -0.912894,1.298477 -0.912894,1.298477 -0.912894,1.298477 -0.03178,0.04717 -0.03178,0.04717 -0.03178,0.04717 -5.3e-4,5.29e-4 -5.3e-4,5.29e-4 -5.3e-4,5.29e-4 v -3.520732 a 1.5875,1.5875 45 0 0 -1.5875,-1.5875 l -16.404562,0 c -0.87675204,0 -1.587475651026,0.710748 -1.587447495946,1.5875 z"
       sodipodi:nodetypes="ccccssscssscsssscccccsccccsssccscscssscscscsccsscscscsscssccc"
       inkscape:path-effect="#path-effect31126"
       inkscape:original-d="m 0,32.693581 c 8e-4,23.503833 4.8230469e-4,43.815514 4.8230469e-4,67.319349 0,0 12.90373969531,0.0757 19.57872969531,1e-5 V 53.313965 c 0.13229,-0.220486 0.27836,-0.443728 0.43822,-0.669727 0.15985,-0.225998 0.33349,-0.454752 0.5209,-0.686263 0.18742,-0.231511 0.3886,-0.465776 0.60358,-0.702799 0.21497,-0.237023 0.44372,-0.476801 0.68626,-0.719336 0.24254,-0.264584 0.49885,-0.518143 0.76895,-0.760677 0.27009,-0.242535 0.55397,-0.474046 0.85162,-0.694531 0.29766,-0.220486 0.6091,-0.429948 0.93431,-0.628386 0.32522,-0.198437 0.66422,-0.38585 1.017,-0.562239 0.35277,-0.198438 0.71658,-0.372071 1.0914,-0.520899 0.37483,-0.148828 0.76068,-0.272851 1.15755,-0.37207 0.39688,-0.09922 0.80478,-0.173633 1.2237,-0.223242 0.41893,-0.04961 0.84887,-0.07441 1.28985,-0.07441 0.18804,0 0.37152,0.0048 0.55242,0.01188 0.40246,0.01015 0.7753,0.03279 1.14101,0.07286 0.0761,0.0086 0.15789,0.01872 0.23358,0.02894 0.18916,0.02502 0.3784,0.05556 0.56948,0.09198 0.0566,0.01097 0.11488,0.02152 0.17208,0.03359 0.24985,0.05206 0.50567,0.114664 0.77411,0.190169 0.008,0.0023 0.0155,0.0033 0.0238,0.0057 0.0115,0.0035 0.0124,0.0043 0.0238,0.0078 0.25873,0.07762 0.47556,0.143278 0.72191,0.218594 0,0 -2e-5,-17.859373 0,-17.859373 -0.46056,6.85e-4 -0.98298,0.001 -1.4335,0 h -5.3e-4 c -0.47352,0 -0.93461,0.01661 -1.38338,0.04961 -2.6e-4,2.5e-5 -7.9e-4,-2.5e-5 -10e-4,0 -0.001,7.8e-5 -0.002,4.39e-4 -0.003,5.16e-4 -0.44723,0.03299 -0.88219,0.08202 -1.30483,0.147795 -0.002,3.81e-4 -0.005,0.0012 -0.007,0.0015 -0.42114,0.06576 -0.83008,0.147649 -1.22679,0.24598 -0.004,8.94e-4 -0.007,0.0017 -0.0109,0.0026 -0.39542,0.09836 -0.77868,0.212889 -1.1498,0.343648 -0.004,0.0015 -0.009,0.0031 -0.0129,0.0047 -0.36972,0.130742 -0.72724,0.277854 -1.07281,0.4408 -0.005,0.0024 -0.0103,0.0048 -0.0155,0.0072 -0.34428,0.162987 -0.67659,0.3419 -0.99684,0.536918 -0.006,0.0034 -0.011,0.0069 -0.0165,0.01034 -0.31894,0.195027 -0.62582,0.406157 -0.92087,0.633037 -0.006,0.0047 -0.0125,0.0092 -0.0186,0.01395 -0.29359,0.226791 -0.57506,0.469688 -0.84491,0.728121 -0.003,0.003 -0.007,0.0053 -0.01,0.0083 -0.006,0.0056 -0.0115,0.01149 -0.0176,0.01705 -0.40972,0.37759 -0.80534,0.764701 -1.18752,1.160652 -0.005,0.0056 -0.0112,0.01096 -0.0165,0.01654 -0.006,0.0058 -0.011,0.01176 -0.0165,0.01757 -0.38499,0.400226 -0.75665,0.809447 -1.11363,1.228348 -1.6e-4,1.85e-4 -2.6e-4,3.44e-4 -5.3e-4,5.29e-4 -0.006,0.0068 -0.0112,0.01386 -0.0171,0.02067 l -0.003,0.0036 c -0.35228,0.414392 -0.69047,0.838124 -1.01544,1.270723 -0.005,0.0072 -0.0112,0.01403 -0.0165,0.02119 -0.005,0.0073 -0.0105,0.0149 -0.016,0.02222 -0.32341,0.432333 -0.63341,0.873518 -0.92967,1.323951 -0.005,0.0073 -0.0102,0.01436 -0.015,0.0217 -1.3e-4,2.01e-4 -2.7e-4,3.17e-4 -5.3e-4,5.29e-4 v -5.108232 z" />
  </g>
  <rect
     style="display:none;fill:#999999;fill-opacity:1;fill-rule:evenodd;stroke:none;stroke-width:2.48319;stroke-linecap:round;stroke-linejoin:round;stroke-miterlimit:4;stroke-dasharray:9.93268, 9.93268;stroke-dashoffset:0"
     id="rect1040"
     width="61.924126"
     height="110.02111"
     x="46.29649"
     y="19.355255" />
  <ellipse
     style="fill:none;fill-rule:evenodd;stroke:#450eff;stroke-width:2.38125;stroke-linecap:round;stroke-linejoin:round;stroke-miterlimit:4;stroke-dasharray:14.28749998, 14.28749998;stroke-dashoffset:0;stroke-opacity:1"
     id="path912"
     cx="76.145859"
     cy="76.145958"
     rx="64.891441"
     ry="64.891418" />
</svg>
