<svg xmlns="http://www.w3.org/2000/svg" width="309.638" height="491.528" viewBox="0 0 81.925 130.05" xmlns:v="https://vecta.io/nano"><path d="M12.482-10a1.43 1.43 0 0 0-1.429 1.429v20.643a1.43 1.43 0 0 0 1.429 1.428h.143a1.43 1.43 0 0 0 1.428-1.428V-8.571A1.43 1.43 0 0 0 12.624-10zm5.526 3.5a1.43 1.43 0 0 0-1.428 1.429v3.643A1.43 1.43 0 0 0 18.008 0h.143a1.43 1.43 0 0 0 1.429-1.428v-3.643A1.43 1.43 0 0 0 18.151-6.5zM1.429-6A1.43 1.43 0 0 0 0-4.572V7.571A1.43 1.43 0 0 0 1.429 9h.143A1.43 1.43 0 0 0 3 7.571V-4.572A1.43 1.43 0 0 0 1.571-6zm5.526 4A1.43 1.43 0 0 0 5.526-.571V.571A1.43 1.43 0 0 0 6.955 2h.143A1.43 1.43 0 0 0 8.526.571V-.571A1.43 1.43 0 0 0 7.097-2zm11.053 4a1.43 1.43 0 0 0-1.428 1.428v15.142A1.43 1.43 0 0 0 18.008 20h.143a1.43 1.43 0 0 0 1.429-1.429V3.428A1.43 1.43 0 0 0 18.151 2zM6.955 4a1.43 1.43 0 0 0-1.428 1.429v11.642A1.43 1.43 0 0 0 6.955 18.5h.143a1.43 1.43 0 0 0 1.429-1.429V5.429A1.43 1.43 0 0 0 7.097 4zm-5.526 7A1.43 1.43 0 0 0 0 12.428v2.142a1.43 1.43 0 0 0 1.429 1.429h.143A1.43 1.43 0 0 0 3 14.571v-2.142A1.43 1.43 0 0 0 1.571 11zm11.053 6a1.43 1.43 0 0 0-1.429 1.429v11.327a1.43 1.43 0 0 1-1.429 1.428c-.698-.091-1.189-.731-1.098-1.428v-6.327a1.43 1.43 0 0 0-1.429-1.429h-.143a1.43 1.43 0 0 0-1.429 1.429v1.846a1.43 1.43 0 0 1-1.429 1.428c-.697-.092-1.188-.731-1.097-1.428v-3.846a1.43 1.43 0 0 0-1.429-1.429h-.142A1.43 1.43 0 0 0 0 21.428v13.571 63.425a1.6 1.6 0 0 0 1.587 1.596l16.404.006c.877-.006 1.587-.725 1.587-1.602V54.901c0-.877.183-1.896.438-2.257l.521-.686.604-.703.686-.719.769-.761.852-.695.934-.628 1.017-.562 1.091-.521 1.158-.372 1.224-.223 1.29-.074.552.012 1.141.073.234.029.569.092.172.034.774.19.024.006c.014 0 .035.011.048.015.386.116.698-.19.698-.686V31.089c0-.877-.642-1.586-1.433-1.587h-.001l-1.383.05h-.001-.003l-1.305.148-.007.002-1.227.246-.011.003-1.15.344-.013.005-1.073.441-.016.007-.997.537-.017.01-.921.633-.019.014-.845.728-.01.008-.018.017-1.137 1.108-.067.069-.017.018-1.068 1.175-.047.054-.017.021-.003.004-.992 1.239-.04.053-.016.022-.913 1.299-.032.047h-.001V25.429A1.43 1.43 0 0 0 18.15 24h-.143a1.43 1.43 0 0 0-1.429 1.429v2.643A1.43 1.43 0 0 1 15.15 29.5c-.697-.091-1.189-.731-1.098-1.428v-9.643A1.43 1.43 0 0 0 12.624 17zm24.971 12.498a1.37 1.37 0 0 0-1.368 1.368v.203a1.43 1.43 0 0 0 1.429 1.428h7.831c3.754.447 5.983 1.622 7.891 3.515.56.556 1.452.638 2.053.126l.082-.07c.6-.512.68-1.422.129-1.986-2.521-2.577-5.553-4.14-8.729-4.503-.784-.09-1.428-.082-1.431-.082h-7.255zm.066 4.892a1.43 1.43 0 0 0-1.429 1.429v.143a1.43 1.43 0 0 0 1.429 1.428h3.397l2.851.12a9.04 9.04 0 0 1 1.161.273c.669.205 1.503-.018 1.897-.596l.014-.021c.537-.787.286-1.791-.612-2.105-.802-.28-1.622-.474-2.453-.578-.782-.099-1.425-.092-1.425-.092h-4.26zm13.05 3.764c-.472.003-.942.25-1.251.702-.379.556-.197 1.423.331 2.009 2.086 2.313 3.406 5.537 3.692 9.024l.057 1.459v1h.001v5.569a1.43 1.43 0 0 0 1.429 1.428h.142a1.43 1.43 0 0 0 1.429-1.428v-6.572c-.363-5.803-2.07-9.858-4.801-12.74a1.39 1.39 0 0 0-1.028-.451zm7.285.201c-.34.001-.691.129-.996.389-.516.44-.61 1.349-.265 2.058 1.319 2.712 2.108 5.855 2.287 9.119.043.788.039 1.875.039 2.428v12.572a1.43 1.43 0 0 0 1.429 1.428h.142a1.43 1.43 0 0 0 1.429-1.428V51.347c-.227-5.286-1.193-9.006-2.83-12.207-.266-.521-.738-.789-1.235-.787zm-20.335.928a1.43 1.43 0 0 0-1.429 1.429v.143a1.43 1.43 0 0 0 1.429 1.428c2.386 0 3.347-.013 4.116.161 1.101.249 2.143.782 3.052 1.561.598.513 1.514.645 2.152.18.706-.514.782-1.578.044-2.249-1.507-1.369-3.317-2.25-5.235-2.545-.779-.12-1.426-.11-1.43-.11h-2.114zm0 4.892a1.43 1.43 0 0 0-1.429 1.429v.143a1.43 1.43 0 0 0 1.429 1.428c.315 0 1.231-.022 1.974.233a4.23 4.23 0 0 1 2.602 2.532c.27.737.249 1.847.249 2.399h.001v3.072a1.43 1.43 0 0 0 1.429 1.428h.142a1.43 1.43 0 0 0 1.429-1.428v-4.072c-.814-4.697-3.744-7.164-7.255-7.164zm11.521 2.465a1.68 1.68 0 0 0-.939.338c-.505.367-.722 1.147-.563 1.764a10.49 10.49 0 0 1 .233 1.183c.108.781.101 1.872.101 2.424v7.571a1.43 1.43 0 0 0 1.429 1.428h.142a1.43 1.43 0 0 0 1.429-1.428v-8.571c-.155-2.193-.3-2.95-.508-3.685-.194-.684-.729-1.041-1.323-1.025zm-5.266 13.199a1.43 1.43 0 0 0-1.429 1.429v12.142a1.43 1.43 0 0 0 1.429 1.429h.142a1.43 1.43 0 0 0 1.429-1.429V61.265a1.43 1.43 0 0 0-1.429-1.429zm11.053 2.508a1.43 1.43 0 0 0-1.429 1.429v2.142a1.43 1.43 0 0 0 1.429 1.429h.142a1.43 1.43 0 0 0 1.429-1.429v-2.142a1.43 1.43 0 0 0-1.429-1.429zM49.3 64.347a1.43 1.43 0 0 0-1.429 1.429v9.839a1.43 1.43 0 0 0 1.429 1.429h.142a1.43 1.43 0 0 0 1.429-1.429v-9.839a1.43 1.43 0 0 0-1.429-1.429zm11.048 5a1.43 1.43 0 0 0-1.429 1.429v13.142a1.43 1.43 0 0 0 1.429 1.429h.143a1.43 1.43 0 0 0 1.428-1.429V70.776a1.43 1.43 0 0 0-1.428-1.429zm-5.521.997a1.43 1.43 0 0 0-1.429 1.429v13.842a1.43 1.43 0 0 0 1.429 1.429h.142a1.43 1.43 0 0 0 1.429-1.429V71.773a1.43 1.43 0 0 0-1.429-1.429zm-11.053 7.492a1.43 1.43 0 0 0-1.429 1.429v1.35a1.43 1.43 0 0 0 1.429 1.429h.142a1.43 1.43 0 0 0 1.429-1.429v-1.35a1.43 1.43 0 0 0-1.429-1.429zm5.526 2.209a1.43 1.43 0 0 0-1.429 1.428v17.142a1.43 1.43 0 0 0 1.429 1.429h.143a1.43 1.43 0 0 0 1.429-1.429V81.472a1.43 1.43 0 0 0-1.429-1.428zm-5.526 5a1.43 1.43 0 0 0-1.429 1.429v12.142a1.43 1.43 0 0 0 1.429 1.429h.142a1.43 1.43 0 0 0 1.429-1.429V86.472a1.43 1.43 0 0 0-1.429-1.429zm16.579 3a1.43 1.43 0 0 0-1.429 1.428v9.143a1.43 1.43 0 0 0 1.429 1.429h.143a1.43 1.43 0 0 0 1.429-1.429v-9.143a1.43 1.43 0 0 0-1.429-1.428zm-5.526 2a1.43 1.43 0 0 0-1.429 1.429v7.142a1.43 1.43 0 0 0 1.429 1.429h.142a1.43 1.43 0 0 0 1.429-1.429v-7.142a1.43 1.43 0 0 0-1.429-1.429z"/></svg>